<svg width="86" height="129" viewBox="0 0 86 129" fill="none" xmlns="http://www.w3.org/2000/svg">
<path d="M41.3925 3.49349C41.5483 1.50217 43.4517 1.50217 43.6075 3.49349L44.9132 20.1988C46.5992 41.7699 57.8024 58.7771 72.0118 61.3366L83.0161 63.3188C84.328 63.5552 84.328 66.4448 83.0161 66.6813L72.0118 68.6634C57.8024 71.2229 46.5992 88.2301 44.9132 109.801L43.6075 126.506C43.4517 128.498 41.5483 128.498 41.3925 126.506L40.0868 109.801C38.4008 88.2301 27.1977 71.2229 12.9881 68.6634L1.98381 66.6813C0.672065 66.4448 0.672065 63.5552 1.98381 63.3188L12.9881 61.3366C27.1977 58.7771 38.4008 41.7699 40.0868 20.1988L41.3925 3.49349Z" fill="black"/>
<path d="M3.625 65.0469C3.62499 65.0469 3.63509 65.0631 3.64844 65.0938C3.67467 65.1539 3.71646 65.2528 3.80078 65.3867L4.14062 65.9258L4.49219 66.4648C4.52869 66.5227 4.55058 66.5483 4.62109 66.5703L5.23047 66.7578L5.85156 66.957C6.19034 67.0627 6.53664 67.1477 6.88281 67.2031L7.50391 67.2969L8.13672 67.4023C8.45988 67.454 8.79249 67.4707 9.13281 67.4609L9.78906 67.4375L10.4453 67.4258C10.8619 67.4134 11.2798 67.3916 11.6992 67.3672L13.0117 67.2969C13.8152 67.2501 14.5691 67.4822 15.2031 67.9648L15.7305 68.375L16.2695 68.7734C16.3845 68.861 16.4907 68.8971 16.6211 68.9023L17.2773 68.9375L17.9453 68.9609C18.8014 68.9958 19.552 69.3606 20.1133 70.0039L20.5586 70.5078L20.9336 70.9531C20.9506 70.9548 20.9771 70.9666 21.0156 70.9648L21.8125 70.918L22.6094 70.8828C23.3877 70.8433 24.163 70.9959 24.8477 71.4336L25.4102 71.7852L25.9609 72.1484C26.5283 72.5111 27.0031 72.9815 27.3555 73.5547L27.707 74.1406L28.0586 74.7148C28.2137 74.9671 28.4008 75.1715 28.6094 75.3477L29.1016 75.7812L29.6055 76.2031C30.0519 76.5801 30.4368 77.0142 30.7539 77.5039L31.1172 78.0547L31.4688 78.5938C31.8017 79.1083 32.0389 79.6806 32.1836 80.2812L32.3359 80.9492L32.5 81.6055C32.5737 81.9117 32.6842 82.1729 32.8164 82.3906L33.4727 83.4688C33.5727 83.6334 33.7316 83.8103 33.9766 83.9844L34.5508 84.4062L35.1367 84.8164C35.5371 85.101 35.8773 85.4966 36.0742 86C36.2664 86.4934 36.2881 86.9948 36.2148 87.4531L36.0859 88.2266L35.9688 88.9883L35.957 89.0234L36.3789 89.4805L36.8477 89.9727C37.384 90.5504 37.6886 91.2652 37.7383 92.0586L37.7852 92.7266L37.8203 93.3828C37.8222 93.4143 37.8297 93.4651 37.9375 93.5703L38.9688 94.5781C39.5919 95.1863 39.9553 95.9886 39.918 96.8984L39.8945 97.5664L39.8594 98.2344C39.8489 98.4894 39.8881 98.7182 39.9648 98.9258L40.1875 99.5352L40.4219 100.133C40.608 100.633 40.7308 101.153 40.8086 101.68L40.9961 102.945C41.0817 103.527 41.0795 104.118 40.9844 104.703L40.7734 106.016C40.7301 106.282 40.7381 106.526 40.7852 106.754L41.043 107.996C41.156 108.542 41.193 109.102 41.1602 109.66L41.125 110.305L41.0781 110.938C41.0628 111.198 41.0879 111.463 41.1602 111.723L41.3359 112.344L41.5117 112.977C41.5963 113.279 41.7285 113.585 41.8984 113.902L42.2266 114.523L42.3438 114.758C42.4308 114.472 42.5135 114.184 42.625 113.902L43.1172 112.66C43.2138 112.416 43.2583 112.184 43.2578 111.957V110.68C43.2564 110.145 43.3088 109.609 43.4219 109.086L43.5625 108.465L43.6914 107.832C43.7893 107.379 43.9016 106.929 44.0312 106.484L44.2188 105.875L44.3945 105.254C44.4824 104.953 44.5407 104.648 44.5586 104.34L44.5938 103.695L44.6289 103.062C44.6674 102.387 44.8708 101.755 45.2148 101.176L45.5547 100.602L45.8125 100.156L45.8008 100.145L45.0508 98.6445C44.8156 98.1775 44.6541 97.5554 44.8398 96.8867C45.0256 96.2211 45.4797 95.7715 45.918 95.4922L46.6328 95.0469L47.1367 94.7188L47.0312 94.3086L46.8438 93.5703C46.6138 92.6677 46.7653 91.7265 47.4297 90.9688L47.8867 90.4531L48.332 89.9492V89.8672L48.1445 88.3906C48.0881 87.9246 48.1319 87.4181 48.3438 86.9375C48.5565 86.4563 48.9029 86.0836 49.293 85.8125L49.8906 85.4023L50.4883 84.9805C50.5488 84.9384 50.5739 84.9098 50.582 84.8984C50.5864 84.892 50.5997 84.8808 50.6055 84.8516L50.7344 84.1836L50.8633 83.5273C51.0169 82.7344 51.4262 82.0606 52.0586 81.5586L53.1133 80.7148C53.4948 80.4122 53.8859 80.1276 54.2852 79.8594L54.8359 79.4844L55.3867 79.1211C55.5557 79.0076 55.6738 78.8792 55.75 78.7344L56.3359 77.6094C56.541 77.2184 56.7575 76.8186 56.9805 76.4258L57.3086 75.8633L57.625 75.2891C57.8526 74.8883 58.0979 74.4918 58.3516 74.0938L58.7148 73.5195L59.0664 72.957C59.566 72.1732 60.3448 71.727 61.2227 71.6094L61.9375 71.5156L62.5352 71.4336L62.8398 70.7539L63.1562 70.0273L63.5312 69.3828C63.692 69.1784 63.8895 68.9882 64.1289 68.832C64.6152 68.5151 65.1577 68.4179 65.6641 68.4453L66.4023 68.4805L67.1406 68.5273C67.2133 68.5313 67.2495 68.5185 67.2578 68.5156C67.2667 68.5121 67.2879 68.5063 67.3164 68.4805L67.832 68L68.3594 67.5312C69.0723 66.886 69.9805 66.6461 70.9141 66.8516L71.6055 67.0039L72.3086 67.1562C72.5119 67.2004 72.6411 67.1836 72.7422 67.1445L73.3516 66.9102L73.9492 66.6758C74.2684 66.5522 74.5911 66.3979 74.9102 66.207L76.082 65.5039C76.6854 65.1425 77.3532 64.9391 78.0625 64.9297H78.707L79.3633 64.918C79.7211 64.9133 80.072 64.8785 80.418 64.8242L81.0508 64.7305L81.6836 64.625C81.942 64.584 82.1192 64.5127 82.2461 64.4375L82.3047 64.3906L81.8594 63.7344C81.842 63.7083 81.8239 63.6897 81.8125 63.6758L81.2852 63.6523L80.6406 63.6055C80.486 63.5965 80.2726 63.6247 79.9844 63.7461L79.2812 64.0391L78.5781 64.3438C78.0915 64.548 77.5173 64.6305 76.9258 64.4609C76.3492 64.2953 75.9126 63.9387 75.6016 63.5586L75.0742 62.9023L74.5469 62.2578L74.5352 62.2344L74.0312 62.3047L73.3633 62.3867C72.8301 62.4493 72.2943 62.4512 71.7695 62.4102L70.5039 62.3164C70.1001 62.2849 69.6813 62.2634 69.25 62.2461L68.582 62.2109L67.9023 62.1875C66.9496 62.1488 66.1668 61.6823 65.6406 60.9453L65.2188 60.3477L64.7969 59.7617C64.6925 59.6155 64.6217 59.587 64.5742 59.5742L63.9414 59.3984L63.3086 59.2344C62.5956 59.0427 61.9818 58.6518 61.5039 58.0859L61.082 57.5938L60.6719 57.0898C60.3668 56.7284 60.0745 56.3572 59.8047 55.9766L59.4414 55.4609L59.0664 54.9453C58.9633 54.7998 58.8296 54.6787 58.6445 54.582L58.0703 54.2773L57.4844 53.9727C57.1623 53.8044 56.7954 53.642 56.3828 53.4922L55.6797 53.2461L54.9766 52.9883C54.5116 52.8186 54.0618 52.5233 53.7344 52.0625C53.41 51.6054 53.2845 51.0907 53.2656 50.6094L53.2305 49.8359L53.207 49.0625L53.1719 48.8867L52.6914 48.4297L52.2109 47.9844C51.8231 47.6228 51.4752 47.228 51.168 46.8008L50.418 45.7461C49.9817 45.1379 49.7535 44.4403 49.7266 43.707L49.7031 43.0156L49.6797 42.3125C49.6692 42.0417 49.6082 41.8404 49.5273 41.6797L48.9648 40.5547C48.8827 40.3916 48.738 40.2051 48.4961 40.0039L47.3711 39.0664C46.8419 38.6253 46.4182 38.0831 46.1406 37.4492L45.8828 36.8633L45.6133 36.2656C45.2272 35.382 45.351 34.4751 45.6953 33.6992L46.375 32.1758C46.4353 32.039 46.4532 31.9556 46.457 31.918V31.9062L46.0586 30.7109C45.9339 30.3393 45.7947 29.9692 45.6484 29.5977L45.1797 28.4023C45.072 28.1296 44.9199 27.8443 44.7109 27.5469L44.3008 26.9609L43.8906 26.3867C43.3387 25.6024 43.2138 24.6755 43.5273 23.7734L43.7617 23.1055L43.9961 22.4258C44.1285 22.0448 44.2275 21.6811 44.2891 21.3359L44.5234 20.0469C44.5319 19.9976 44.5258 19.9372 44.4531 19.8125L43.75 18.5938C43.3213 17.8581 43.1831 17.0205 43.4102 16.1797L43.5859 15.5234L43.7266 15.0078L43.1992 14.4219L42.6602 13.8242C42.3656 13.4972 42.1559 13.1113 42.0273 12.6992L42.0391 12.7578C42.066 13.0378 42.127 13.3392 42.25 13.6602L42.7656 14.9727C42.9538 15.4635 42.9977 16.0107 42.8477 16.5547C42.7017 17.0803 42.3948 17.5041 42.0625 17.832L41.4648 18.4297L41.0898 18.7812L41.3008 19.1328L41.6992 19.8008C41.9628 20.2465 42.1392 20.8089 42.0508 21.4297C41.963 22.0418 41.6438 22.5287 41.2891 22.8828L40.7148 23.457L40.3164 23.8438L40.5273 24.2656L40.8672 24.957C41.2951 25.8308 41.3124 26.8279 40.7266 27.7109L40.3398 28.2852L39.9531 28.8711C39.9547 28.8794 39.9609 28.8922 39.9648 28.9062L40.1641 29.6094L40.3633 30.3008C40.6184 31.2004 40.464 32.117 39.8711 32.8789L39.4375 33.4297L39.0156 33.9805C38.8643 34.1746 38.791 34.3514 38.7578 34.5195L38.6289 35.1523L38.5117 35.7734C38.414 36.2724 38.2669 36.7632 38.0898 37.2383L37.6445 38.4336C37.4901 38.8479 37.3332 39.2671 37.1641 39.6758L36.6719 40.8477C36.5132 41.231 36.3668 41.6201 36.2148 42.0078L35.7461 43.2031C35.4861 43.865 35.0546 44.4191 34.5039 44.8555L33.9648 45.2773L33.5195 45.6289L33.5898 46.4023L33.6719 47.1992C33.7449 47.9841 33.6099 48.7809 33.1562 49.4844L32.8047 50.0352L32.4414 50.5859C31.9959 51.2736 31.3508 51.7335 30.6133 51.9922L29.8867 52.2383L29.1719 52.4844C29.0717 52.5197 29.0265 52.5631 29.0078 52.5781C28.9934 52.59 28.9794 52.6007 28.9727 52.6133L28.3633 53.7617C28.0055 54.4282 27.4595 54.9346 26.7812 55.2617L26.1836 55.5547L25.5977 55.8359C25.3459 55.9574 25.132 56.1121 24.9648 56.2812L24.5312 56.7266L24.0859 57.1719C23.8654 57.3955 23.6497 57.6593 23.4414 57.9688L22.668 59.1172C22.2772 59.698 21.7619 60.1693 21.1328 60.4883L20.5586 60.7812L19.9727 61.0742C19.3893 61.3697 18.7626 61.5254 18.1094 61.5547L17.4297 61.5898L16.75 61.6133C16.2759 61.6339 15.8073 61.6507 15.3555 61.6484L14.7227 61.6367H14.1016C14.0943 61.64 14.0485 61.6664 13.9727 61.7422L13.4219 62.2812L12.8828 62.8203C12.2185 63.4825 11.327 63.8355 10.3281 63.6406L9.64844 63.5117L8.98047 63.3711C8.76868 63.3296 8.6015 63.3465 8.45312 63.3945L7.84375 63.5938L7.22266 63.793C6.50431 64.026 5.76417 64.0174 5.05469 63.8164L4.375 63.6289L4.14062 63.5586L4.02344 63.7695L3.66016 64.3906C3.62101 64.4593 3.59855 64.5221 3.57812 64.5664L3.56641 64.5898L3.58984 64.7539L3.625 65.0469ZM42.1211 9.27734L41.9336 10.543C41.8895 10.8444 41.8808 11.157 41.9102 11.4688L41.9219 11.6797C41.9417 11.4856 41.9717 11.2828 42.0391 11.082L42.4844 9.76953C42.4997 9.72277 42.4964 9.69682 42.4961 9.6875C42.4957 9.68116 42.4923 9.65931 42.4727 9.61719L42.1797 8.99609L42.1328 8.90234C42.1239 9.02674 42.1392 9.15311 42.1211 9.27734ZM46.2578 111.945C46.2595 112.57 46.1369 113.179 45.9062 113.762L45.4141 115.004C45.275 115.354 45.1702 115.711 45.0859 116.059L44.9336 116.68L44.7812 117.312C44.7658 117.379 44.7522 117.476 44.8281 117.652L45.1211 118.309L45.4023 118.977C45.7151 119.704 45.7898 120.496 45.5547 121.285L45.3789 121.906L45.1914 122.527C45.1208 122.764 45.0888 123.003 45.1094 123.242L45.2266 124.531C45.2813 125.162 45.2019 125.785 44.9805 126.383L44.7812 126.945L44.5703 127.508C44.4659 127.789 44.2276 128.307 43.6914 128.633C42.9929 129.054 42.2765 128.886 41.8281 128.621L41.4648 128.41L41.1016 128.188C40.4174 127.781 40.0625 127.112 39.8711 126.535L39.6602 125.914L39.4609 125.293C39.1895 124.475 39.2699 123.647 39.6133 122.902L39.9297 122.246L40.2344 121.578C40.3467 121.334 40.3614 121.151 40.3516 121.016L40.2578 119.75C40.2266 119.32 40.2017 118.88 40.1758 118.449L40.1055 117.184C40.0941 116.995 40.0327 116.787 39.9062 116.551L39.5781 115.941L39.25 115.32C38.9829 114.822 38.7766 114.303 38.6289 113.773L38.4531 113.152L38.2773 112.52C38.118 111.946 38.0549 111.355 38.0898 110.762L38.125 110.129L38.1602 109.484C38.1777 109.186 38.1606 108.891 38.1016 108.605L37.8438 107.363C37.7188 106.76 37.7092 106.146 37.8086 105.535L38.0195 104.223C38.067 103.931 38.0698 103.654 38.0312 103.391L37.9375 102.758L37.8438 102.113C37.797 101.798 37.7215 101.489 37.6094 101.188L37.375 100.578L37.1523 99.9805C36.9302 99.3837 36.8335 98.7545 36.8594 98.1172L36.8945 97.4492L36.918 96.7812L36.8828 96.7344L36.3555 96.2188L35.8398 95.7148C35.2561 95.145 34.8852 94.4179 34.832 93.5703L34.7852 92.9023L34.75 92.2461C34.7447 92.161 34.7191 92.1046 34.6445 92.0234L34.1875 91.5195L33.7188 91.0273C33.0517 90.3072 32.8607 89.3977 33.0039 88.5078L33.1328 87.7461L33.2148 87.1367L32.8164 86.8438L32.2305 86.4336C31.6969 86.0542 31.2443 85.5839 30.9062 85.0273L30.25 83.9492C29.9439 83.4454 29.7224 82.8913 29.582 82.3086L29.4297 81.6523L29.2656 80.9844C29.1967 80.6982 29.0875 80.4491 28.9492 80.2344L28.5977 79.6836L28.2344 79.1328C28.0792 78.8935 27.8936 78.6755 27.6719 78.4883L26.6641 77.6445C26.2058 77.2569 25.8201 76.7996 25.5039 76.2852L25.1523 75.7109L24.7891 75.125C24.67 74.9329 24.5318 74.7809 24.3555 74.668L23.793 74.3164L23.2305 73.9531C23.1681 73.9139 23.0378 73.8572 22.7617 73.8711L21.9648 73.918L21.168 73.9531C20.2785 73.9974 19.3836 73.7293 18.7305 72.9805L18.2969 72.4766L17.8516 71.9727L17.8398 71.9609H17.8281L17.1602 71.9258L16.4922 71.9023C15.741 71.871 15.0494 71.6179 14.4531 71.1641L13.9141 70.7539L13.3867 70.3555C13.308 70.2955 13.2576 70.2811 13.1875 70.2852L12.5312 70.3203L11.875 70.3672C11.4253 70.3933 10.9747 70.4125 10.5273 70.4258L9.88281 70.4375L9.22656 70.4609C8.70122 70.4765 8.18186 70.4375 7.66797 70.3555L7.03516 70.2617L6.40234 70.1562C5.91188 70.0776 5.42536 69.9653 4.94922 69.8164L4.33984 69.6289L3.73047 69.4297C2.98334 69.1961 2.36771 68.7337 1.94922 68.0703L1.26953 66.9922C1.00654 66.5753 0.733863 66.0489 0.660156 65.4922L0.613281 65.1523L0.566406 64.8008C0.467593 64.0492 0.800474 63.3543 1.05859 62.9023L1.76172 61.6602C1.9998 61.2447 2.37746 60.8331 2.93359 60.6055C3.21433 60.4908 3.49749 60.4446 3.76562 60.4414L4.51562 60.5469L5.19531 60.7344L5.875 60.9336C6.0725 60.9895 6.20107 60.976 6.29688 60.9453L6.90625 60.7461L7.52734 60.5469C8.19139 60.3313 8.87521 60.2968 9.55469 60.4297L10.2344 60.5586L10.7852 60.6641L11.3125 60.1602L11.8516 59.6211C12.4358 59.0376 13.1982 58.6323 14.1016 58.6367H14.7344L15.3789 58.6484C15.7784 58.6503 16.1938 58.6436 16.6211 58.625L17.3008 58.5898L17.9688 58.5664C18.2131 58.5558 18.4256 58.4966 18.6133 58.4023L19.1992 58.1094L19.7852 57.8047C19.928 57.7311 20.0626 57.6214 20.1836 57.4414L20.5703 56.8672L20.9453 56.293C21.2488 55.8417 21.5877 55.4325 21.9531 55.0625L22.3984 54.6172L22.832 54.1719C23.2518 53.7471 23.7438 53.4024 24.2852 53.1406L24.8828 52.8477L25.4805 52.5664C25.5955 52.5109 25.6618 52.4414 25.7148 52.3438L26.0195 51.7695L26.3359 51.1953C26.7474 50.4278 27.4174 49.9299 28.1875 49.6602L28.9023 49.4023L29.6172 49.1562C29.8302 49.0816 29.8936 49.0001 29.9219 48.957L30.2852 48.4062L30.6367 47.8555C30.6549 47.8264 30.7066 47.7328 30.6836 47.4805L30.6016 46.6836L30.5312 45.8867C30.444 44.9459 30.7392 44.0078 31.5625 43.3555L32.1016 42.9219L32.6406 42.5C32.8095 42.3662 32.8938 42.233 32.9453 42.1016L33.1797 41.5039L33.4141 40.918C33.5732 40.512 33.74 40.1008 33.9062 39.6992L34.1523 39.1133L34.3867 38.5273C34.5421 38.1519 34.7019 37.7711 34.8438 37.3906L35.2891 36.1953C35.4088 35.8742 35.4921 35.5387 35.5586 35.1992L35.6875 34.5781L35.8047 33.9453C35.9359 33.2758 36.231 32.6638 36.6484 32.1289L37.082 31.5898L37.457 31.0859L37.2695 30.418L37.0703 29.7266C36.8251 28.862 36.9448 27.9769 37.457 27.207L37.8438 26.6328L38.125 26.1875L37.832 25.5898L37.4922 24.8984C37.2649 24.4359 37.1477 23.8806 37.2578 23.293C37.3666 22.7159 37.6708 22.2586 38.0195 21.9102L38.5938 21.3242L38.9219 20.9844L38.7227 20.6562L38.3242 19.9766C38.0547 19.5202 37.8845 18.9513 37.9844 18.3242C38.0829 17.7132 38.4025 17.2335 38.7578 16.8828L39.3555 16.2969L39.8594 15.793L39.707 15.3945L39.4492 14.7383C39.2371 14.1849 39.1055 13.614 39.0508 13.0391L38.9922 12.3945L38.9219 11.75C38.8703 11.2028 38.8895 10.6508 38.9688 10.1094L39.1562 8.84375C39.1914 8.60149 39.1858 8.34941 39.1328 8.08203L39.0039 7.42578L38.8633 6.78125C38.6946 5.94027 38.8816 5.12469 39.3438 4.42578L39.7188 3.85156L40 3.40625C40.0178 3.08583 40.1006 2.85543 40.1172 2.82031C40.2163 2.61255 40.3486 2.45571 40.3867 2.41016C40.5076 2.26584 40.6735 2.09542 40.8438 1.92969L41.3359 1.44922L41.8398 0.96875L42.4258 0.535156C42.6645 0.416796 43.3478 0.153737 44.043 0.59375C44.6505 0.978697 44.7652 1.60512 44.793 1.78906C44.8306 2.04083 44.8109 2.28088 44.793 2.45703L44.7227 3.20703L44.6406 3.95703C44.5919 4.4332 44.5644 4.87504 44.5469 5.26953L44.5117 5.91406L44.4883 6.54688C44.4808 6.71514 44.5108 6.89493 44.6055 7.09766L45.1914 8.33984C45.5509 9.10573 45.5873 9.9341 45.3203 10.7305L45.1094 11.3867L44.9453 11.8555L45.4375 12.4062L45.9648 13.0039C46.59 13.6977 46.945 14.6277 46.668 15.6523L46.4922 16.3086L46.3047 16.9648V17.0234C46.3091 17.0351 46.3248 17.0563 46.3398 17.082L46.6914 17.6914L47.0547 18.3008C47.4544 18.9877 47.62 19.7666 47.4766 20.5742L47.2422 21.8633C47.1506 22.3768 47.0116 22.8934 46.832 23.4102L46.5977 24.0898L46.375 24.6992L46.75 25.2383L47.1602 25.8125C47.493 26.2855 47.7763 26.7827 47.9805 27.3008L48.4492 28.4961C48.6143 28.9156 48.7648 29.3398 48.9062 29.7617L49.3047 30.957C49.5899 31.8104 49.4432 32.6588 49.1172 33.3945L48.4375 34.918C48.3977 35.0081 48.3836 35.0659 48.3789 35.0938L48.625 35.6562L48.8828 36.2539C48.9513 36.4099 49.0768 36.5773 49.293 36.7578L50.418 37.6953C50.9256 38.1175 51.3534 38.6211 51.6484 39.207L52.2109 40.332C52.5056 40.9185 52.6556 41.5515 52.6797 42.207L52.7031 42.8984L52.7266 43.6016C52.7338 43.7977 52.792 43.9116 52.8555 44L53.2305 44.5273L53.6055 45.043C53.7967 45.3094 54.0136 45.562 54.2617 45.793L55.2227 46.6836C55.883 47.2995 56.1749 48.112 56.207 48.9453L56.2305 49.7188L56.2539 50.2461L56.7109 50.4219L57.4023 50.6797C57.9218 50.8684 58.4142 51.0762 58.8672 51.3125L60.0391 51.9219C60.6302 52.2308 61.1287 52.665 61.5156 53.2109L61.8789 53.7266L62.2539 54.2422C62.4733 54.5517 62.7063 54.859 62.957 55.1562L63.3789 55.6602L63.8008 56.1523C63.8789 56.2437 63.9663 56.2939 64.0938 56.3281L64.7266 56.5039L65.3477 56.668C66.1433 56.8815 66.7861 57.3713 67.2461 58.0156L67.668 58.6016L68.0781 59.1875L68.6992 59.2227L69.3672 59.2461C69.8342 59.2648 70.2946 59.2935 70.7383 59.3281L72.0039 59.4219C72.3255 59.447 72.6638 59.4393 73.0117 59.3984L73.6797 59.3281L74.3359 59.2461C75.4189 59.1187 76.2845 59.6472 76.8672 60.3594L77.3945 61.0039L77.7461 61.4375L78.1211 61.2852L78.8125 60.9805C79.4547 60.7096 80.1413 60.5722 80.8398 60.6172L81.4844 60.6523L82.1172 60.6992C83.1227 60.7639 83.8705 61.3442 84.3555 62.0703L84.8008 62.7266L85.2344 63.3945C85.4475 63.7137 85.7212 64.2183 85.7031 64.8359C85.6789 65.5967 85.2436 66.16 84.7305 66.4648L84.25 66.7461L83.7812 67.0273C83.279 67.3251 82.7181 67.4991 82.1406 67.5898L81.5195 67.6953L80.8867 67.7891C80.3957 67.8662 79.8992 67.9116 79.3984 67.918L78.7539 67.9297H78.0977C77.9488 67.9324 77.8013 67.9791 77.6289 68.082L77.043 68.4336L76.457 68.7734C75.9986 69.048 75.5251 69.2883 75.0391 69.4766L73.8203 69.9453C73.1172 70.2165 72.3843 70.2437 71.6641 70.0859L70.9609 69.9336L70.3281 69.793L69.8477 70.2266L69.3203 70.707C68.6608 71.3013 67.8455 71.5633 66.9766 71.5156L66.2383 71.4805L65.8047 71.457L65.5938 71.9609L65.2773 72.6875C64.8797 73.5989 64.1155 74.2561 63.0625 74.3984L62.3359 74.4922L61.6211 74.5859C61.6027 74.5884 61.5834 74.5837 61.5742 74.5859L61.2344 75.1367L60.8828 75.6992C60.6553 76.0562 60.4403 76.4215 60.2383 76.7773L59.9102 77.3398L59.5938 77.9141C59.3879 78.2766 59.1843 78.6335 58.9961 78.9922L58.7031 79.5664L58.3984 80.1289C58.0805 80.7329 57.6263 81.227 57.0625 81.6055L56.5117 81.9805L55.9609 82.3438C55.6271 82.5679 55.2984 82.815 54.9766 83.0703L54.4492 83.4805L53.9219 83.9023C53.8498 83.9595 53.822 84.0121 53.8047 84.1016L53.6758 84.7578L53.5469 85.4258C53.3796 86.2825 52.8893 86.9617 52.1992 87.4414L51.6016 87.8633L51.1328 88.1797L51.2148 88.7656L51.3086 89.5039C51.414 90.3747 51.1926 91.2351 50.582 91.9297L50.1367 92.4336L49.75 92.8672L49.9375 93.5586L50.125 94.2969C50.2559 94.8108 50.2533 95.3834 50.0078 95.9375C49.7692 96.4754 49.3651 96.8585 48.9531 97.1211L48.2383 97.5664L47.9453 97.7422L48.1094 98.0469L48.4844 98.7969C48.8974 99.6183 49.0307 100.624 48.4727 101.562L47.793 102.711C47.6841 102.895 47.627 103.067 47.6172 103.238L47.5469 104.504C47.5163 105.042 47.4287 105.578 47.2773 106.098L47.0898 106.707L46.9141 107.328C46.8045 107.704 46.7038 108.082 46.6211 108.465L46.4922 109.098L46.3516 109.719C46.2839 110.032 46.257 110.35 46.2578 110.668V111.945Z" fill="white"/>
</svg>
