<svg width="82" height="120" viewBox="0 0 82 120" fill="none" xmlns="http://www.w3.org/2000/svg">
<path d="M39.9325 3.37496C40.0827 1.54168 41.9173 1.54168 42.0675 3.37496L43.326 18.7545C44.9511 38.6136 55.7493 54.271 69.4451 56.6273L80.0516 58.4522C81.3161 58.6699 81.3161 61.3301 80.0516 61.5478L69.4451 63.3727C55.7493 65.729 44.9511 81.3864 43.326 101.245L42.0675 116.625C41.9173 118.458 40.0827 118.458 39.9325 116.625L38.674 101.245C37.049 81.3864 26.2508 65.729 12.5548 63.3727L1.94825 61.5478C0.683918 61.3301 0.683918 58.6699 1.94825 58.4522L12.5548 56.6273C26.2508 54.271 37.049 38.6136 38.674 18.7545L39.9325 3.37496Z" fill="white"/>
<path d="M25.0625 49.2422C25.0686 49.2262 25.0795 49.1924 25.0859 49.1328L25.1406 48.6484L25.1875 48.1641C25.2394 47.677 25.4176 47.1835 25.8125 46.8047L26.0859 46.5469L26.3594 46.2812C26.555 46.094 26.759 45.9125 26.9688 45.7344L27.5625 45.2344C27.8368 45.0018 28.1469 44.8108 28.4844 44.6562L28.8828 44.4688L29.2422 44.3047L29.3203 43.9766L29.4219 43.5781C29.4954 43.2786 29.5784 42.9832 29.6797 42.7031L29.9453 41.9688C30.0395 41.7082 30.1444 41.4541 30.25 41.2031L30.5469 40.5L30.7656 40.1172C31.0236 39.7744 31.3833 39.55 31.75 39.4141L32.2344 39.2344L32.5391 39.1172V38.9609L32.5312 38.5234C32.529 38.1782 32.5567 37.8414 32.6172 37.5156L32.6875 37.125L32.7656 36.7422C32.8491 36.2929 33.0532 35.8954 33.3594 35.5625L33.6328 35.2578L33.9141 34.9609C34.0323 34.8326 34.1161 34.6979 34.1797 34.5625L34.5078 33.8594C34.639 33.5794 34.7945 33.3089 34.9688 33.0469L35.1875 32.7109L35.4141 32.3828C35.4826 32.2797 35.5211 32.1742 35.5391 32.0625L35.6016 31.6719L35.6562 31.2812C35.6752 31.1592 35.6799 31.0123 35.6406 30.8359L35.5391 30.4141L35.4453 29.9844C35.3224 29.4313 35.428 28.8749 35.7812 28.4062L36.0312 28.0781L36.2812 27.7422C36.3183 27.6928 36.3208 27.6678 36.3203 27.6406L36.3047 26.8438C36.2952 26.3864 36.4157 25.9518 36.6484 25.5625L36.8516 25.2109L37.0625 24.8594C37.1665 24.6852 37.2524 24.5126 37.3125 24.3359L37.5625 23.5859C37.6069 23.4538 37.629 23.3208 37.625 23.1797L37.6094 22.7812L37.6016 22.3906C37.5889 21.982 37.6631 21.5797 37.8203 21.2031L37.9766 20.8359L38.1328 20.4609V20.4453V20.4375C38.1317 20.4305 38.131 20.4157 38.125 20.3984L37.9844 20L37.8516 19.5938C37.6653 19.0542 37.7094 18.4966 37.9922 18L38.2031 17.6328L38.2812 17.4844L38.0391 17.1953L37.6953 16.7812C37.4927 16.5364 37.2972 16.1938 37.2891 15.7656C37.2816 15.3174 37.4822 14.9522 37.7188 14.6953L38.375 13.9766C38.5159 13.8235 38.5785 13.7084 38.6016 13.6328L38.7109 13.25L38.8125 12.9141C38.8086 12.9054 38.8051 12.8894 38.7969 12.875L38.5625 12.4766L38.3281 12.0703C38.1707 11.7957 38.075 11.4586 38.1094 11.0859C38.1444 10.7133 38.3053 10.3967 38.5078 10.1562L39.1172 9.4375C39.1645 9.38126 39.1872 9.33945 39.1953 9.32031V9.30469L39.2109 8.91406L39.2266 8.53125C39.2272 8.51352 39.2215 8.44088 39.1328 8.29688L38.6328 7.48438C38.3442 7.01588 38.2119 6.44256 38.4141 5.85156L38.5469 5.47656L38.6719 5.10156C38.7681 4.8203 38.883 4.54191 39.0078 4.26562L39.1719 3.89062C39.1445 3.84498 39.1045 3.80905 39.0859 3.76562C39.0051 3.57621 38.9944 3.39562 38.9922 3.28906C38.9882 3.0746 39.0273 2.85631 39.0703 2.67969L39.1875 2.21875L39.2969 1.75781L39.4844 1.29688C39.5876 1.12839 39.7819 0.902348 40.1016 0.789062C40.4333 0.672292 40.722 0.723082 40.9453 0.820312L41.3906 1.11719L41.7109 1.42969L42.0312 1.73438C42.2922 1.98308 42.5287 2.24941 42.7266 2.53906L42.9531 2.88281L43.1875 3.22656C43.5041 3.69033 43.606 4.23283 43.4609 4.78125L43.3594 5.17188L43.25 5.57031C43.2241 5.66859 43.2296 5.74746 43.25 5.82031L43.3516 6.19531L43.4609 6.57031C43.5925 7.04103 43.5545 7.51586 43.3906 7.96094L43.25 8.35938L43.1016 8.75781C43.0488 8.90069 43.032 9.0199 43.0391 9.11719L43.0703 9.5L43.1016 9.89062L43.1953 10.0156L43.5469 10.375L43.8906 10.7266C44.2346 11.084 44.5 11.5434 44.5391 12.0938L44.5625 12.4766L44.5938 12.8594C44.614 13.1464 44.6166 13.4378 44.6094 13.7266L44.5938 14.5078C44.5875 14.7546 44.5848 15.0039 44.5859 15.25V16.0156C44.5869 16.2163 44.6057 16.4191 44.6406 16.6172L44.7109 17L44.7734 17.3828C44.8557 17.8535 44.7848 18.3123 44.6016 18.7344L44.4219 19.1328L44.25 19.5391C44.2038 19.646 44.2052 19.7047 44.2109 19.7344L44.2891 20.1094L44.3594 20.4922C44.3884 20.6418 44.4469 20.7954 44.5312 20.9531L44.7188 21.3125L44.9141 21.6719C45.1104 22.0391 45.2212 22.4399 45.2344 22.8594L45.25 23.25L45.2578 23.6328C45.2689 24.0026 45.22 24.3718 45.1172 24.7344L44.8828 25.5625C44.8782 25.5789 44.8761 25.5937 44.875 25.6016V25.625L45.0547 25.9844L45.2266 26.3359C45.334 26.554 45.4552 26.7731 45.5781 26.9844L45.7734 27.3281L45.9766 27.6797C46.1356 27.9534 46.2707 28.2346 46.3828 28.5234L46.5234 28.8828L46.6641 29.2344C46.7743 29.5184 46.8622 29.813 46.9297 30.1094L47.0156 30.4844L47.1016 30.8516C47.1793 31.193 47.2106 31.5505 47.1953 31.9062L47.1719 32.3125L47.1562 32.7188C47.1468 32.9374 47.1536 33.1551 47.1797 33.3594L47.2344 33.75L47.2734 34.0938C47.278 34.0975 47.2819 34.1043 47.2891 34.1094L47.6719 34.375L48.0469 34.6406C48.4698 34.9388 48.7931 35.3666 48.8984 35.9219L48.9766 36.3047L49.0469 36.6953C49.0802 36.8696 49.1313 37.0349 49.2031 37.1875L49.5312 37.875C49.6969 38.2271 49.7917 38.6104 49.8203 39L49.8516 39.4141L49.8672 39.6562L50.1953 39.8047L50.6328 40C50.9391 40.138 51.2391 40.3766 51.4219 40.7422C51.601 41.1014 51.6098 41.4752 51.5547 41.7891L51.4688 42.2891L51.4062 42.6094L51.5625 42.7031L51.9297 42.9297C52.1834 43.0812 52.4326 43.2311 52.6719 43.3828L53.0234 43.6016L53.3672 43.8281C53.9194 44.1784 54.1727 44.7335 54.1953 45.3203L54.2188 45.7969L54.2344 46.2656V46.2734L54.4922 46.4922L54.8047 46.7344C55.0752 46.9525 55.3103 47.2055 55.5156 47.4844L55.75 47.7969L55.9766 48.1094C56.0926 48.2669 56.224 48.4149 56.3672 48.5469L56.6484 48.8047L56.9375 49.0703C57.1524 49.2684 57.3597 49.4754 57.5547 49.6953L57.8125 49.9922L58.0703 50.2812C58.204 50.432 58.3509 50.5709 58.5078 50.6953L58.8125 50.9375L59.125 51.1797C59.3254 51.3383 59.5245 51.499 59.7266 51.6562L60.0391 51.8984L60.3438 52.1406C60.5493 52.3005 60.7617 52.4559 60.9688 52.6172L61.2734 52.8594L61.5859 53.1016C61.7879 53.2588 61.9955 53.415 62.2031 53.5703L62.5234 53.8125L62.8359 54.0469C62.9511 54.133 63.0782 54.2017 63.2188 54.2422L63.6094 54.3516L63.9922 54.4609C64.0049 54.4642 64.0768 54.4736 64.2422 54.4141L64.7188 54.2422L65.2031 54.0703L65.7344 53.9688C65.926 53.9623 66.1315 53.9891 66.3359 54.0703C66.5367 54.1505 66.702 54.2661 66.8359 54.3984L67.1484 54.8281L67.4062 55.2891L67.5 55.4688L67.5703 55.4453L68.0078 55.2969C68.4353 55.148 68.897 55.0957 69.3594 55.1953L69.7344 55.2734L70.1016 55.3516C70.5067 55.4388 70.8804 55.6221 71.2109 55.8672L71.5547 56.1172L71.7656 56.2734L72.0781 56.1328L72.5 55.9375C72.9471 55.7286 73.457 55.6382 73.9766 55.7734L74.3516 55.875L74.7266 55.9688C75.0892 56.0636 75.4331 56.2221 75.75 56.4297L76.0938 56.6562L76.4453 56.8906C76.6613 57.0322 76.884 57.1585 77.1016 57.2812L77.4531 57.4844L77.75 57.6484L78.1484 57.5L78.5703 57.3359C79.0643 57.1429 79.5923 57.1252 80.1016 57.3125L80.5 57.4609L80.9062 57.6094C81.1833 57.7118 81.4718 57.8933 81.6797 58.1953C81.8897 58.5012 81.9567 58.8431 81.9453 59.1484L81.9141 59.9766C81.8975 60.4023 81.7515 61.0275 81.1406 61.3594L80.8984 61.4844L80.6641 61.6172C80.6555 61.6232 80.6333 61.6355 80.6016 61.6641C80.5501 61.7105 80.4831 61.7835 80.3984 61.8828L80.0859 62.25L79.7656 62.6172C79.4112 63.033 78.9062 63.343 78.2734 63.3281L77.4922 63.3125C77.0894 63.303 76.6961 63.211 76.3203 63.0547L75.8984 62.875L75.6719 62.7812L75.4844 62.9766L75.1562 63.3125C74.9387 63.5331 74.6488 63.7226 74.2891 63.7969C73.9265 63.8717 73.5809 63.8131 73.2891 63.6875L72.8672 63.5078L72.4453 63.3203C72.3067 63.2613 72.2282 63.2682 72.1953 63.2734L71.8203 63.3359L71.4375 63.3906C71.2354 63.4227 71.0341 63.4752 70.8359 63.5391L70.4688 63.6562L70.0938 63.7734C69.7251 63.8919 69.3406 63.9431 68.9531 63.9219L68.1406 63.875C68.0556 63.8703 67.9849 63.8832 67.9141 63.9219L67.5547 64.125L67.2031 64.3203C66.9408 64.4656 66.6739 64.6006 66.4062 64.7188L66.0469 64.875L65.6797 65.0312C65.6365 65.0507 65.571 65.0953 65.4922 65.2109L65.2422 65.5859L64.9844 65.9609C64.6325 66.4792 64.0841 66.7824 63.4375 66.7656L63.0078 66.75L62.5703 66.7422C62.4428 66.7389 62.3722 66.7633 62.3281 66.7891L61.6562 67.1797C61.4754 67.2854 61.3037 67.4077 61.1406 67.5391L60.8359 67.7812L60.5391 68.0234C60.4499 68.0953 60.3627 68.1982 60.2891 68.3359L59.8984 69.0703C59.5767 69.6719 59.0036 69.9623 58.3984 70L57.9141 70.0234L57.4375 70.0547C57.269 70.0649 57.1965 70.1067 57.1719 70.125L56.8594 70.3594L56.6094 70.5391C56.6082 70.5507 56.6098 70.5686 56.6094 70.5859L56.5938 71.1016L56.5781 71.625C56.5693 71.9575 56.4792 72.3544 56.1875 72.6797C55.8946 73.0052 55.5134 73.1384 55.1797 73.1797L54.6641 73.2422L54.4844 73.2578V73.375L54.4609 73.8594C54.4482 74.1756 54.366 74.5199 54.1406 74.8203C53.915 75.1209 53.6085 75.2996 53.3047 75.3984L52.8516 75.5469L52.6562 75.6016L52.6641 75.8125L52.6719 76.2891C52.6822 76.7712 52.5678 77.2655 52.2578 77.6875L52.0312 77.9922L51.8047 78.3047C51.5416 78.6612 51.1929 78.9247 50.8047 79.1172L50.3906 79.3281L49.9688 79.5312C49.8542 79.5886 49.8438 79.6326 49.8438 79.6328L49.6719 79.9844L49.5156 80.2969C49.5163 80.3157 49.5199 80.3629 49.5469 80.4453L49.7109 80.9531L49.8828 81.4688C49.9776 81.7596 50.0269 82.1187 49.9219 82.4922C49.8101 82.8875 49.5551 83.1823 49.2578 83.375L48.875 83.625L48.5156 83.8516L48.4844 84.1797L48.4375 84.5781C48.4068 84.8663 48.3702 85.1511 48.3203 85.4297L48.1797 86.1953C48.1054 86.6073 47.9369 86.9865 47.6875 87.3203L47.4453 87.6406L47.2109 87.9609C47.168 88.0185 47.1515 88.0708 47.1484 88.1328L47.125 88.5234L47.1094 88.9219C47.082 89.4602 46.8448 89.9209 46.4844 90.2812L45.8594 90.9062C45.7097 91.0553 45.5923 91.2039 45.5078 91.3516L45.3047 91.7031L45.1953 91.8984L45.4375 92.3125L45.7109 92.7656C45.8583 93.0153 45.9789 93.3207 45.9922 93.6641C46.0056 94.0249 45.8934 94.3647 45.6953 94.6484L45.4609 94.9922L45.2422 95.2891L45.3438 95.6562L45.4531 96.0625C45.5917 96.5744 45.5414 97.0969 45.2812 97.5703L45.0859 97.9297L44.8828 98.2891C44.7819 98.4732 44.7018 98.6582 44.6406 98.8438L44.5156 99.2188L44.3984 99.5938C44.3106 99.8611 44.2145 100.131 44.1094 100.398L43.8125 101.148C43.7764 101.241 43.7696 101.321 43.7812 101.406L43.8906 102.188C43.9234 102.422 43.964 102.661 44.0156 102.898L44.1016 103.297L44.1875 103.688C44.3173 104.287 44.1343 104.837 43.7891 105.273L43.5 105.641L43.2188 106C43.2009 106.023 43.1858 106.044 43.1797 106.055H43.1719L43.2109 106.43L43.2422 106.82C43.2475 106.879 43.2794 106.988 43.3906 107.156L43.6562 107.562L43.9297 107.977C44.096 108.229 44.228 108.544 44.2344 108.906C44.2407 109.277 44.1169 109.608 43.9297 109.875L43.6719 110.234L43.4141 110.602C43.3983 110.624 43.3867 110.64 43.3828 110.648L43.4922 111.43C43.5187 111.619 43.5677 111.817 43.6406 112.023L43.9219 112.82C44.0556 113.199 44.1175 113.591 44.0938 113.992L44.0781 114.375L44.0547 114.758C44.0197 115.348 43.7088 115.823 43.3359 116.172L42.9531 116.531L42.5703 116.883H42.5625L42.6172 117.352L42.6797 117.836C42.7074 118.065 42.7355 118.737 42.125 119.117C41.8533 119.286 41.576 119.31 41.3828 119.297C41.1898 119.284 41.0134 119.232 40.875 119.18L40.3516 118.984L39.8359 118.789C39.5518 118.682 39.2222 118.499 38.9922 118.172C38.7455 117.82 38.6903 117.418 38.75 117.055L38.8203 116.617L38.8984 116.172C38.9124 116.084 38.8954 116.039 38.875 116L38.6797 115.625L38.4844 115.258C38.296 114.904 38.169 114.524 38.1328 114.125L38.1016 113.734L38.0703 113.352C38.0292 112.886 38.1291 112.443 38.3281 112.039L38.5312 111.633L38.7266 111.234C38.8298 111.026 38.9015 110.823 38.9453 110.641L39.0391 110.25L39.0859 110.039L38.75 109.727L38.3516 109.375C37.9729 109.033 37.6498 108.568 37.6016 107.977L37.5391 107.211C37.512 106.879 37.5225 106.544 37.5703 106.211L37.625 105.82L37.6875 105.43C37.7428 105.045 37.8657 104.673 38.0469 104.32L38.2578 103.914L38.4609 103.516C38.5262 103.389 38.5266 103.319 38.5234 103.289L38.4453 102.523C38.4227 102.308 38.3842 102.091 38.3359 101.875L38.1641 101.109C38.1535 101.064 38.121 100.975 38 100.844L37.6719 100.484L37.3438 100.133C37.1433 99.9163 36.9729 99.6397 36.8984 99.3047C36.8229 98.9628 36.8618 98.6316 36.9766 98.3359L37.1328 97.9297L37.2344 97.6641L37.0469 97.4297L36.7578 97.0859C36.5617 96.8492 36.4119 96.5526 36.3672 96.2109C36.3236 95.8726 36.3966 95.5552 36.5156 95.2812L36.6953 94.8594L36.7891 94.6328L36.3047 94.1484C35.9646 93.8088 35.7081 93.379 35.6406 92.8672L35.5938 92.4844L35.5469 92.1094C35.5005 91.7569 35.5019 91.3975 35.5547 91.0391L35.6797 90.2109C35.7079 90.0178 35.7061 89.8392 35.6875 89.6719L35.6484 89.2812L35.6016 88.8906C35.5798 88.6972 35.5431 88.5082 35.4844 88.3281L35.3594 87.9609L35.2422 87.5938C35.1378 87.2736 35.0686 86.9411 35.0391 86.6016L35.0078 86.1953L34.9688 85.7969C34.9643 85.7918 34.956 85.7828 34.9453 85.7734L34.6172 85.4844L34.2891 85.2031C34.0513 84.9946 33.827 84.7796 33.6172 84.5625L33.3359 84.2656L33.0547 83.9766C32.5605 83.4652 32.5015 82.8065 32.6562 82.2344L32.7812 81.75L32.7969 81.6719L32.6797 81.6328L32.1719 81.4531C31.6668 81.2776 31.1514 80.9322 30.9297 80.3047L30.7969 79.9453L30.6719 79.5781C30.556 79.2493 30.4838 78.9044 30.4531 78.5469L30.4141 78.1172L30.3828 77.6953L30.375 77.6875L30.0859 77.4453L29.7656 77.1875C29.5587 77.0189 29.3509 76.8519 29.1484 76.6875L28.5391 76.1875C28.229 75.9356 27.9781 75.6302 27.7969 75.2734L27.6172 74.9297L27.4453 74.5859C27.3896 74.4765 27.3196 74.3829 27.2266 74.3047L26.9297 74.0625L26.6328 73.8125C26.3789 73.5988 26.1507 73.3589 25.9531 73.0938L25.5 72.4844C25.2731 72.1799 25.1078 71.8361 24.9922 71.4688L24.8594 71.0547L24.7344 70.6406C24.6933 70.5108 24.636 70.4377 24.5859 70.3906L24.0234 69.8594C23.9339 69.7752 23.8238 69.7084 23.6875 69.6562L23.3047 69.5078L22.9297 69.3672C22.4485 69.1834 22.0763 68.8451 21.8281 68.4062L21.6172 68.0391L21.4062 67.6641C21.3401 67.5476 21.2667 67.4755 21.1953 67.4297L20.5391 67.0078C20.4978 66.9814 20.431 66.9545 20.3047 66.9531H19.8594L19.4219 66.9453C18.947 66.9421 18.479 66.8105 18.0781 66.5156L17.4531 66.0625C17.2632 65.9227 17.0691 65.7848 16.8672 65.6562L16.5391 65.4453L16.2031 65.2344C16.1581 65.2059 16.1105 65.1931 16.0312 65.1953L15.2188 65.2109C14.8383 65.2217 14.4609 65.1754 14.1016 65.0547L13.7344 64.9297L13.375 64.8047C13.0881 64.7078 12.8011 64.5929 12.5234 64.4531L12.1719 64.2734L11.8125 64.0938C11.7248 64.0496 11.643 64.035 11.5547 64.0391L11.1641 64.0547L10.7656 64.0703C10.5116 64.0819 10.2552 64.0998 10 64.1172L9.60938 64.1406L9.21094 64.1719C8.9233 64.1915 8.63665 64.197 8.35156 64.1953H7.57031C7.00458 64.1918 6.52575 63.9435 6.15625 63.5859L5.82031 63.2578L5.625 63.0781L5.40625 63.1797L4.98438 63.3672C4.42404 63.6133 3.79785 63.5953 3.25 63.2266L2.54688 62.7578C2.25757 62.5629 1.99347 62.3379 1.78125 62.0781L1.57812 61.8281L1.38281 61.5859C1.25422 61.4284 1.12014 61.2676 0.984375 61.1094L0.773438 60.8672L0.5625 60.6172C0.111313 60.0913 0.137648 59.4562 0.34375 58.9609L0.492188 58.5938L0.648438 58.2188L0.851562 57.8516C1.08316 57.5211 1.41317 57.2788 1.82031 57.1562L2.20312 57.0391L2.58594 56.9297C2.81785 56.8602 3.04336 56.7787 3.26562 56.6953L3.63281 56.5625L4 56.4219C4.51367 56.2289 5.04213 56.2715 5.51562 56.4609L5.92969 56.625L6.35156 56.7969C6.57373 56.8857 6.78231 56.9421 6.97656 56.9766L7.38281 57.0469L7.53906 57.0703L7.80469 56.6953L8.11719 56.2422C8.43623 55.7725 8.97227 55.3197 9.72656 55.375L10.125 55.4062L10.5156 55.4297C10.7394 55.4463 10.9634 55.4482 11.1797 55.4375L11.5703 55.4219L11.9531 55.3984C12.2541 55.3836 12.5614 55.391 12.8672 55.4141L13.2656 55.4453L13.6328 55.4688H13.6406L13.9609 55.1953L14.2812 54.9141L14.6797 54.6484C14.9557 54.5148 15.2509 54.4583 15.5469 54.4766L15.9922 54.5625L16.4453 54.6953L16.75 54.7812L16.9062 54.6172L17.1953 54.2969L17.5078 54.0156C17.8473 53.7716 18.2501 53.6567 18.6797 53.6641L19.125 53.6719H19.2344L19.3203 53.3906L19.4688 52.8906L19.6641 52.4297C19.7554 52.2783 19.876 52.132 20.0312 52.0078C20.3514 51.7523 20.7252 51.6628 21.0703 51.6719L22.0078 51.7031C22.0609 51.7045 22.0909 51.698 22.1016 51.6953L22.0938 51.7031L22.3828 51.4453L22.6797 51.1953C22.8954 51.009 23.1223 50.8255 23.3516 50.6562L23.6641 50.4297L23.9766 50.1953C24.1567 50.0623 24.327 49.9167 24.4922 49.7656L24.7812 49.5078L25.0625 49.2422ZM46.9375 36.3125C46.9295 36.3046 46.9132 36.2893 46.8906 36.2734L46.5156 36.0078L46.1406 35.75C45.7007 35.4403 45.372 34.984 45.2969 34.3984L45.25 34L45.1953 33.6094C45.1545 33.289 45.1422 32.9606 45.1562 32.6328L45.1797 32.2266L45.1953 31.8203C45.2035 31.6295 45.1839 31.4525 45.1484 31.2969L45.0625 30.9219L44.9844 30.5547C44.9387 30.354 44.8719 30.1543 44.7969 29.9609L44.6641 29.6016L44.5234 29.2422C44.4507 29.0551 44.3588 28.8668 44.25 28.6797L43.8438 27.9922C43.6985 27.7425 43.5649 27.4848 43.4375 27.2266L43.0781 26.5078C42.8422 26.0288 42.8206 25.5096 42.9609 25.0156L43.1953 24.1875C43.2481 24.0006 43.2697 23.8376 43.2656 23.6953L43.25 23.3047L43.2422 22.9219C43.2392 22.8291 43.2089 22.7303 43.1484 22.6172L42.9609 22.2578L42.7656 21.8984C42.5928 21.5753 42.4678 21.2312 42.3984 20.875L42.3281 20.4922L42.25 20.1094C42.1583 19.6338 42.2291 19.1689 42.4141 18.7422L42.5938 18.3359L42.7656 17.9375C42.8145 17.8249 42.811 17.7623 42.8047 17.7266L42.7344 17.3438L42.6719 16.9609C42.6178 16.6533 42.5875 16.3434 42.5859 16.0312V15.2578C42.5847 14.9903 42.5869 14.7212 42.5938 14.4531L42.6016 14.0625L42.6094 13.6797C42.6151 13.4534 42.6096 13.2239 42.5938 13L42.5703 12.6172L42.5391 12.2344C42.5299 12.2163 42.503 12.1771 42.4453 12.1172L41.7578 11.3984C41.4152 11.0421 41.1517 10.586 41.1094 10.0391L41.0938 9.89844C40.9985 10.2051 40.8506 10.4863 40.6484 10.7266L40.3438 11.0859L40.1797 11.2734L40.5312 11.8828C40.795 12.3429 40.9111 12.8901 40.7422 13.4531L40.625 13.8281L40.5156 14.2031C40.3879 14.6289 40.1493 15.0041 39.8516 15.3281L39.5156 15.6875L39.4453 15.7578L39.5781 15.9219L39.9219 16.3359C40.1103 16.5632 40.2834 16.8565 40.3438 17.2109C40.407 17.584 40.3307 17.9421 40.1562 18.25L39.9453 18.625L39.7422 18.9609L39.875 19.3438L40.0156 19.75C40.1826 20.2355 40.1799 20.7474 39.9766 21.2344L39.8203 21.6016L39.6641 21.9766C39.614 22.0963 39.598 22.2119 39.6016 22.3281L39.6094 22.7188L39.625 23.1172C39.6364 23.4977 39.5831 23.8739 39.4609 24.2344L39.3359 24.6016L39.2031 24.9766C39.0956 25.2931 38.9554 25.5994 38.7812 25.8906L38.3594 26.5938C38.3146 26.6698 38.3032 26.7358 38.3047 26.8047L38.3125 27.1953L38.3203 27.5938C38.3312 28.0939 38.1699 28.5541 37.875 28.9453L37.625 29.2812L37.3984 29.5703L37.4922 29.9766L37.5859 30.4062C37.6731 30.7986 37.6944 31.1987 37.6328 31.5938L37.5781 31.9766L37.5156 32.3672C37.4527 32.7704 37.3033 33.1449 37.0781 33.4844L36.8594 33.8203L36.6328 34.1562C36.5119 34.3381 36.4077 34.5243 36.3203 34.7109L36.1562 35.0625L35.9922 35.4062C35.8373 35.737 35.6322 36.0416 35.3828 36.3125L35.1094 36.6172L34.8281 36.9141C34.7671 36.9805 34.7389 37.0431 34.7266 37.1094L34.6562 37.4922L34.5859 37.8828C34.5508 38.0724 34.5297 38.2847 34.5312 38.5156L34.5391 38.9453V39.375C34.5414 39.7174 34.4459 40.0747 34.2109 40.375C33.986 40.6622 33.6855 40.834 33.4062 40.9375L32.9297 41.1172L32.4453 41.2891C32.403 41.3048 32.3746 41.3193 32.3594 41.3281L32.2422 41.625L32.0938 41.9766C32.0018 42.195 31.9108 42.4198 31.8281 42.6484L31.5625 43.3828C31.4866 43.5929 31.417 43.8201 31.3594 44.0547L31.2656 44.4531L31.1641 44.8516C31.0206 45.4355 30.6394 45.8696 30.1172 46.1094L29.7188 46.2891L29.3203 46.4766C29.1263 46.5654 28.9688 46.6583 28.8516 46.7578L28.5625 47.0078L28.2656 47.2578C28.0848 47.4113 27.9091 47.5668 27.7422 47.7266L27.4688 47.9922L27.2031 48.2422C27.1969 48.2565 27.188 48.298 27.1797 48.375L27.125 48.8594L27.0781 49.3438C27.0246 49.8454 26.8266 50.3415 26.4141 50.7188L26.1328 50.9844L25.8438 51.2422C25.6269 51.4405 25.4006 51.63 25.1641 51.8047L24.8516 52.0391L24.5391 52.2656C24.3508 52.4046 24.1614 52.5502 23.9844 52.7031L23.6953 52.9609L23.3984 53.2109C22.9763 53.5755 22.461 53.7089 21.9531 53.6953L21.4844 53.6875L21.3203 53.6797L21.2422 53.9531L21.0938 54.4609C21.0091 54.7502 20.8475 55.0726 20.5547 55.3203C20.2454 55.5806 19.8745 55.6781 19.5234 55.6719L19.0859 55.6641L18.6641 55.6562L18.3906 55.9531L18.1094 56.2734C17.8967 56.509 17.6128 56.6895 17.2734 56.7734C16.9421 56.8549 16.6238 56.824 16.3438 56.7422L15.8906 56.6094L15.5 56.4922L15.2812 56.6953L14.9609 56.9766C14.5604 57.3272 14.0578 57.5102 13.5078 57.4688L12.7109 57.4062C12.4874 57.3895 12.2685 57.388 12.0547 57.3984L11.6641 57.4219L11.2812 57.4375C10.9822 57.4523 10.6777 57.452 10.375 57.4297L9.97656 57.3984L9.75781 57.375L9.46094 57.8203L9.14844 58.2812C8.81298 58.7741 8.23202 59.2327 7.4375 59.0938L7.03125 59.0156L6.625 58.9453C6.28422 58.8847 5.94435 58.7901 5.60938 58.6562L5.1875 58.4844L4.77344 58.3203C4.72433 58.3007 4.69648 58.2969 4.69531 58.2969L4.33594 58.4297L3.96875 58.5703C3.70362 58.6698 3.43069 58.7615 3.15625 58.8438L2.78125 58.9609L2.46875 59.0469L2.34375 59.3594L2.26562 59.5312L2.28906 59.5625L2.5 59.8125C2.64571 59.9823 2.79095 60.1504 2.92969 60.3203L3.13281 60.5625L3.32812 60.8125C3.38325 60.88 3.48843 60.9751 3.66406 61.0938L4.01562 61.3359L4.25 61.4922L4.60156 61.3438L5.02344 61.1641L5.48438 61.0234C5.65016 60.9991 5.82733 61.0059 6.00781 61.0391C6.18594 61.072 6.34748 61.1309 6.49219 61.2109L6.875 61.5L7.21094 61.8203L7.54688 62.1484C7.57995 62.1805 7.60234 62.1914 7.60938 62.1953H8.36719C8.60106 62.1966 8.84013 62.1881 9.07812 62.1719L9.46875 62.1484L9.86719 62.1172C10.1376 62.0987 10.4102 62.0826 10.6797 62.0703L11.4609 62.0391C11.8974 62.0192 12.322 62.109 12.7109 62.3047L13.4297 62.6641C13.6275 62.7636 13.8221 62.8488 14.0156 62.9141L14.375 63.0391L14.7344 63.1562C14.855 63.1969 14.9955 63.223 15.1562 63.2188L15.5625 63.2031L15.9766 63.1953C16.4391 63.1827 16.8858 63.2951 17.2812 63.5469L17.9375 63.9688C18.1767 64.121 18.4143 64.2788 18.6406 64.4453L18.9531 64.6797L19.2656 64.9062C19.2814 64.9178 19.319 64.9441 19.4297 64.9453L19.875 64.9531H20.3125C20.7714 64.9562 21.2188 65.0725 21.6172 65.3281L21.9453 65.5391L22.2812 65.75C22.6483 65.986 22.9362 66.3046 23.1484 66.6797L23.3594 67.0547L23.5703 67.4219C23.5999 67.474 23.6175 67.4832 23.6406 67.4922L24.0234 67.6406L24.3984 67.7891C24.7666 67.9296 25.1031 68.1288 25.3906 68.3984L25.6719 68.6719L25.9609 68.9375C26.2862 69.2441 26.5087 69.6215 26.6406 70.0391L26.7734 70.4531L26.8984 70.8672C26.956 71.0502 27.0337 71.1875 27.1094 71.2891L27.5625 71.8984C27.6666 72.0377 27.7849 72.166 27.9219 72.2812L28.2188 72.5312L28.5156 72.7734C28.8143 73.0247 29.0496 73.332 29.2266 73.6797L29.4062 74.0234L29.5781 74.3672C29.6296 74.4686 29.6987 74.5609 29.7969 74.6406L30.1016 74.8906L30.4141 75.1328C30.6185 75.2988 30.8224 75.4704 31.0312 75.6406L31.3438 75.8984L31.6562 76.1484C32.0883 76.5005 32.3294 76.9869 32.375 77.5234L32.4062 77.9453L32.4453 78.375C32.463 78.5826 32.5008 78.761 32.5547 78.9141L32.6875 79.2734L32.7734 79.5391C32.7873 79.5453 32.8047 79.5543 32.8281 79.5625L33.3359 79.7422L33.8359 79.9141C34.1418 80.0201 34.504 80.2291 34.7266 80.625C34.9535 81.0303 34.9326 81.4524 34.8438 81.7812L34.7188 82.2734L34.6016 82.6953L34.7734 82.875L35.0547 83.1719C35.2236 83.3467 35.4107 83.521 35.6094 83.6953L36.2656 84.2734C36.5618 84.5335 36.7803 84.8572 36.8906 85.2344L36.9688 85.625L37 86.0234L37.0312 86.4297C37.048 86.6214 37.0861 86.8006 37.1406 86.9688L37.2656 87.3438L37.3828 87.7109C37.4837 88.0209 37.557 88.3385 37.5938 88.6641L37.6328 89.0547L37.6797 89.4453C37.7191 89.796 37.7086 90.1529 37.6562 90.5078L37.5938 90.9219L37.5391 91.3281C37.511 91.5187 37.5037 91.6914 37.5234 91.8438L37.5781 92.2266L37.625 92.6016C37.6254 92.6045 37.6245 92.6172 37.6328 92.6328C37.6421 92.6504 37.6706 92.6863 37.7188 92.7344L38.0391 93.0547L38.3672 93.375C38.5881 93.5956 38.7683 93.8898 38.8359 94.25C38.9033 94.6098 38.8346 94.9498 38.7109 95.2344L38.5312 95.6562L38.3984 95.9375L38.5859 96.1484L38.8672 96.4922C39.0549 96.7186 39.2027 97.0016 39.2578 97.3281C39.3125 97.6542 39.2635 97.9649 39.1562 98.2422L39 98.6562L38.9062 98.875L39.1406 99.125L39.4609 99.4766C39.7713 99.8107 40.0135 100.21 40.1172 100.672L40.2891 101.438C40.3539 101.728 40.3989 102.019 40.4297 102.312L40.4766 102.695L40.5156 103.078C40.566 103.559 40.453 104.019 40.2422 104.43L40.0312 104.828L39.8281 105.234C39.7339 105.418 39.6839 105.576 39.6641 105.711L39.5547 106.492C39.5276 106.681 39.5166 106.868 39.5312 107.047L39.5625 107.43L39.5859 107.773C39.5931 107.786 39.6243 107.827 39.6953 107.891L40.0859 108.242L40.4766 108.602C40.914 108.996 41.2523 109.591 41.0781 110.32L40.9844 110.719L40.8906 111.109C40.8085 111.452 40.6857 111.789 40.5234 112.117L40.3203 112.523L40.125 112.922C40.06 113.053 40.0586 113.136 40.0625 113.18L40.125 113.945C40.135 114.055 40.1698 114.176 40.2422 114.312L40.4453 114.688L40.6406 115.055C40.7696 115.297 40.8332 115.553 40.8672 115.812C40.9601 115.67 41.0819 115.543 41.2109 115.422L41.5859 115.07L41.9688 114.711C42.0277 114.656 42.0463 114.616 42.0547 114.602L42.0781 114.258L42.1016 113.875C42.1081 113.764 42.0927 113.636 42.0391 113.484L41.7578 112.688C41.6433 112.364 41.5619 112.034 41.5156 111.703L41.4062 110.922C41.3308 110.378 41.4784 109.874 41.7734 109.453L42.0312 109.094L42.1484 108.914L41.9922 108.664L41.7188 108.258C41.4711 107.882 41.2994 107.46 41.2578 107L41.2188 106.609L41.1797 106.227C41.1289 105.666 41.3291 105.161 41.6484 104.758L41.9375 104.398L42.2109 104.039L42.1484 103.719L42.0625 103.328C42.0005 103.043 41.9461 102.754 41.9062 102.469L41.7969 101.688C41.7363 101.253 41.7934 100.821 41.9531 100.414L42.0938 100.039L42.2422 99.6641C42.3336 99.4314 42.4166 99.1988 42.4922 98.9688L42.7422 98.2188C42.8438 97.9103 42.9737 97.6097 43.1328 97.3203L43.3281 96.9609L43.5234 96.6094C43.5232 96.6071 43.5269 96.5991 43.5234 96.5859L43.3047 95.7734C43.1548 95.2197 43.2477 94.6611 43.5781 94.1875L43.8203 93.8438L43.9219 93.6797L43.7188 93.3281L43.4453 92.875C43.1492 92.3732 43.0085 91.7052 43.375 91.0625L43.5703 90.7109L43.7734 90.3672C43.9547 90.0494 44.18 89.7567 44.4453 89.4922L45.0703 88.8672C45.0865 88.8511 45.0959 88.836 45.1016 88.8281L45.1094 88.8203L45.125 88.4219L45.1484 88.0312C45.1716 87.5664 45.3321 87.1367 45.6094 86.7656L45.8438 86.4453L46.0859 86.125C46.1553 86.0322 46.1933 85.9388 46.2109 85.8438L46.3516 85.0781C46.3928 84.8479 46.4273 84.6095 46.4531 84.3672L46.5312 83.5703L46.6328 83.1406C46.7776 82.7384 47.0544 82.4156 47.4062 82.1875L47.7891 81.9453L47.9062 81.8672L47.8125 81.5781L47.6406 81.0703C47.4794 80.5774 47.4392 80.004 47.7031 79.4609L47.875 79.1094L48.0391 78.7578C48.2672 78.2894 48.649 77.9587 49.0859 77.7422L49.5 77.5312L49.9141 77.3281C50.0775 77.2472 50.1569 77.1692 50.1953 77.1172L50.4219 76.8125L50.6484 76.5L50.6562 76.4766C50.6625 76.4541 50.6736 76.4051 50.6719 76.3281L50.6641 75.8594L50.6484 75.3828C50.6415 75.0644 50.7131 74.7081 50.9375 74.3906C51.1629 74.0731 51.4778 73.8877 51.7812 73.7891L52.2344 73.6406L52.4688 73.5547L52.4844 73.2969L52.5 72.8203L52.6094 72.2891C52.6762 72.1118 52.7782 71.9366 52.9297 71.7812C53.225 71.4788 53.5981 71.3592 53.9141 71.3203L54.4219 71.2578L54.5859 71.2344L54.5938 71.0547L54.6094 70.5312C54.624 69.9825 54.8123 69.3882 55.3438 68.9922L55.6641 68.7578L55.9766 68.5234C56.375 68.2265 56.8404 68.0912 57.3125 68.0625L57.7969 68.0312L58.1953 68L58.3281 67.7578L58.5234 67.3906C58.7135 67.0352 58.967 66.722 59.2812 66.4688L59.8906 65.9844C60.1311 65.7907 60.3819 65.609 60.6484 65.4531L61.3203 65.0625C61.7235 64.827 62.1719 64.7304 62.625 64.7422L63.0547 64.75L63.375 64.7578L63.5859 64.4609L63.8359 64.0938C64.0943 63.7133 64.4393 63.3955 64.875 63.2031L65.2344 63.0469L65.5938 62.8828C65.804 62.7901 66.0154 62.6872 66.2266 62.5703L66.9453 62.1797C67.3484 61.9564 67.7907 61.8499 68.25 61.875L69.0625 61.9219C69.2194 61.9305 69.3605 61.9149 69.4844 61.875L69.8516 61.75L70.2266 61.6328C70.5211 61.538 70.8209 61.4623 71.125 61.4141L71.5078 61.3594L71.8828 61.2969C72.3566 61.2217 72.821 61.3031 73.2422 61.4844L73.6641 61.6719L73.875 61.7578L74.3984 61.2344L74.7734 60.9375C74.9149 60.8544 75.0739 60.788 75.25 60.75C75.4293 60.7115 75.6068 60.7068 75.7734 60.7266L76.25 60.8516L76.6641 61.0312L77.0859 61.2031C77.27 61.2799 77.4203 61.3097 77.5391 61.3125L77.9297 61.3203H78.25L78.875 60.5859C79.1109 60.3092 79.3914 60.0332 79.7109 59.8594L79.9141 59.7344L79.9297 59.4844V59.375L79.8125 59.3359L79.4062 59.1875C79.381 59.1783 79.3586 59.1712 79.2969 59.1953L78.875 59.3594L78.4609 59.5234C77.9338 59.73 77.3558 59.7273 76.8281 59.4297L76.4688 59.2266L76.1172 59.0234C75.8603 58.8785 75.6034 58.7275 75.3516 58.5625L75 58.3281L74.6484 58.1016C74.4976 58.0029 74.3542 57.9417 74.2188 57.9062L73.8438 57.8047L73.4688 57.7109H73.4609C73.4446 57.7134 73.4095 57.723 73.3516 57.75L72.9219 57.9453L72.5 58.1484C72.2361 58.2715 71.9258 58.3454 71.5938 58.3203C71.2572 58.2942 70.9592 58.1684 70.7109 57.9844L70.3672 57.7266L70.0156 57.4688C69.8852 57.3725 69.7716 57.3245 69.6797 57.3047L69.3125 57.2266L68.9375 57.1484C68.9023 57.1409 68.8175 57.1341 68.6641 57.1875L68.2344 57.3359L67.7969 57.4922C67.4659 57.6074 67.0618 57.6335 66.6641 57.4531C66.2863 57.2817 66.0461 56.9823 65.8984 56.7109L65.6484 56.2422L65.5547 56.0625L65.3984 56.125L64.9219 56.2969C64.4584 56.4638 63.9456 56.5289 63.4375 56.3828L62.6719 56.1641C62.2995 56.057 61.9509 55.8805 61.6406 55.6484L61.3203 55.4141L61 55.1719C60.7831 55.0097 60.5707 54.8442 60.3594 54.6797L59.7344 54.1953C59.5285 54.035 59.3215 53.8777 59.1172 53.7188L58.8125 53.4766L58.5 53.2344C58.2934 53.0737 58.0877 52.9122 57.8828 52.75L57.5781 52.5078L57.2656 52.2656C57.0166 52.0684 56.7893 51.8474 56.5781 51.6094L56.3125 51.3203L56.0547 51.0234C55.9045 50.8542 55.7503 50.6907 55.5859 50.5391L55.2969 50.2812L55.0078 50.0156C54.7712 49.7973 54.5583 49.5564 54.3672 49.2969L54.1406 48.9844L53.9062 48.6719C53.8047 48.534 53.6849 48.4084 53.5469 48.2969L53.2422 48.0469L52.9297 47.7969C52.457 47.4149 52.2546 46.877 52.2344 46.3359L52.2188 45.8672L52.2031 45.4531L51.9531 45.2969L51.6016 45.0703C51.3784 44.9288 51.145 44.791 50.9062 44.6484L50.5391 44.4219L50.1641 44.2031C49.8727 44.0288 49.6287 43.7642 49.4922 43.4141C49.3614 43.0778 49.3628 42.7375 49.4141 42.4453L49.5 41.9453L49.5391 41.7031L49.375 41.6328L48.9375 41.4297C48.3713 41.1734 47.9345 40.6793 47.8828 39.9766L47.8516 39.5625L47.8203 39.1406C47.8077 38.9739 47.7706 38.8368 47.7188 38.7266L47.5625 38.3828L47.3984 38.0391C47.253 37.7298 47.1421 37.4001 47.0781 37.0625L47.0078 36.6797L46.9375 36.3125ZM41.1641 4.34375L41 4.71875L40.8281 5.08594C40.7286 5.30631 40.6377 5.53025 40.5625 5.75L40.4375 6.125L40.3359 6.4375L40.8359 7.25C41.0217 7.55182 41.1247 7.8898 41.1719 8.25C41.19 8.19015 41.2048 8.12934 41.2266 8.07031L41.3672 7.67188L41.5156 7.27344C41.5471 7.18808 41.5402 7.1414 41.5312 7.10938L41.4297 6.73438L41.3203 6.35938C41.2002 5.92976 41.2079 5.48954 41.3203 5.0625L41.4219 4.66406L41.5078 4.30469L41.3047 4.00781L41.2734 3.96094C41.2353 4.10603 41.209 4.24418 41.1641 4.34375Z" fill="black"/>
</svg>
