<svg width="50" height="62" viewBox="0 0 50 62" fill="none" xmlns="http://www.w3.org/2000/svg">
<path d="M23.8729 1.69933C23.9611 0.766889 25.0389 0.766889 25.1271 1.69933L25.8665 9.52167C26.8212 19.6224 33.1652 27.5861 41.2115 28.7846L47.4428 29.7127C48.1857 29.8235 48.1857 31.1765 47.4428 31.2873L41.2115 32.2154C33.1652 33.4139 26.8212 41.3776 25.8665 51.4782L25.1271 59.3006C25.0389 60.2331 23.9611 60.2331 23.8729 59.3006L23.1335 51.4782C22.1788 41.3776 15.8348 33.4139 7.78845 32.2154L1.55709 31.2873C0.814302 31.1765 0.814302 29.8235 1.55709 29.7127L7.78845 28.7846C15.8348 27.5861 22.1788 19.6224 23.1335 9.52167L23.8729 1.69933Z" fill="white"/>
<path d="M26.0859 13.6484C26.0856 13.564 26.0693 13.4866 26.0234 13.4062L25.8281 13.0625L25.625 12.7188C25.4554 12.4215 25.3214 12.1073 25.2266 11.7812L25.1172 11.4062L25.0156 11.0391C24.869 10.5349 24.9264 10.0308 25.125 9.57812L25.4844 8.76562C25.5373 8.64425 25.537 8.5694 25.5312 8.52344L25.4766 8.14062L25.4297 7.75781C25.4205 7.69088 25.3909 7.59042 25.2969 7.46094L24.7656 6.74219C24.4569 6.31666 24.3425 5.8113 24.4531 5.29688C24.3955 5.41485 24.3444 5.53611 24.2734 5.64844L24.0469 6.01562L23.9531 6.14844L24.1719 6.4375L24.5 6.85156C24.707 7.12021 24.8928 7.51322 24.8359 7.98438C24.7795 8.44807 24.5105 8.77949 24.2578 8.99219L23.8438 9.34375L23.6562 9.49219L23.7188 9.59375L23.9609 10.0078C24.106 10.2561 24.2116 10.5553 24.2188 10.8906C24.2256 11.235 24.1256 11.5523 23.9531 11.8203L23.5 12.5234C23.4936 12.5334 23.4865 12.5422 23.4844 12.5469V12.5859L23.5469 13L23.6172 13.4141C23.6794 13.8089 23.6641 14.2051 23.5703 14.5938L23.4766 14.9766L23.3906 15.3594C23.323 15.6388 23.2388 15.9142 23.1484 16.1875L23.0234 16.5625L22.9062 16.9297C22.8191 17.1934 22.7253 17.4589 22.625 17.7188L22.4844 18.0859L22.3359 18.4531C22.1841 18.8453 21.9468 19.1838 21.6406 19.4688L21.3438 19.75L21.0391 20.0391C20.804 20.2577 20.5523 20.4566 20.2891 20.6406L19.9453 20.8828L19.6094 21.1172C19.5315 21.1715 19.5021 21.221 19.4844 21.2656L19.3359 21.625L19.1953 21.9844C19.0644 22.3135 18.8849 22.6151 18.6641 22.8906L18.1953 23.4844C18.0214 23.7013 17.8386 23.9143 17.6484 24.1172L17.3828 24.3906L17.125 24.6719C17.0944 24.7053 17.037 24.7888 16.9922 24.9688L16.875 25.4297L16.7656 25.8906C16.6303 26.4328 16.3028 26.9196 15.7422 27.1875L15.375 27.3594L15.0078 27.5391C14.6066 27.7306 14.1747 27.8057 13.7344 27.7969L12.8281 27.7812C12.6424 27.7775 12.5261 27.8067 12.4609 27.8359L12.1172 27.9922L11.7812 28.1484C11.526 28.2636 11.2648 28.3636 11 28.4531L10.6406 28.5703L10.2891 28.6953C10.0924 28.7619 9.89216 28.837 9.69531 28.9297L9.00781 29.2578C8.74749 29.3804 8.47742 29.4951 8.20312 29.5938L7.46875 29.8594C7.19476 29.9579 6.91278 30.037 6.63281 30.1094L6.25781 30.2109L5.88281 30.3047C5.60667 30.376 5.32695 30.4365 5.04688 30.4844L4.67188 30.5469L4.28906 30.6172C4.15617 30.6399 4.02314 30.6621 3.89062 30.6875C3.99364 30.7299 4.10087 30.7666 4.20312 30.8125L4.57031 30.9766L4.92969 31.1406C5.12414 31.2278 5.32105 31.2928 5.51562 31.3438L5.89062 31.4453L6.26562 31.5391C6.29477 31.5466 6.35087 31.5553 6.46094 31.5156L6.875 31.3672L7.28125 31.2188C7.69183 31.0707 8.12579 31.0584 8.53125 31.2031L8.92969 31.4062L9.27344 31.6328L9.53906 31.8125L10.0156 31.6562L10.4766 31.4922C10.8086 31.3787 11.2529 31.337 11.6797 31.5703C11.8803 31.6803 12.0332 31.829 12.1484 31.9844L12.3984 32.4531L12.5859 32.9766L12.7734 33.4922C12.7983 33.56 12.8221 33.6018 12.8359 33.625L13.1172 33.75L13.4531 33.9062C13.5368 33.9445 13.6722 33.9835 13.875 33.9922L14.3281 34.0078L14.7812 34.0312C15.1036 34.0451 15.4583 34.1415 15.7578 34.3984C15.906 34.526 16.0183 34.6759 16.1016 34.8281L16.2734 35.2891L16.3828 35.75L16.4688 36.1562L16.75 36.2656L17.1328 36.4062C17.5406 36.5617 17.8993 36.8119 18.1797 37.1562L18.6641 37.75C18.806 37.9247 18.9567 38.101 19.1172 38.2656L19.3906 38.5391L19.6641 38.8203C19.8482 39.0092 20.0337 39.2029 20.2188 39.3984L20.7656 39.9766C21.0277 40.2538 21.2343 40.5707 21.3828 40.9219L21.5391 41.2891L21.6875 41.6484C21.8731 42.0885 21.9084 42.5532 21.8359 43.0078L21.7656 43.4609L21.7188 43.7344L21.9688 43.8984L22.3516 44.1641C22.7393 44.4272 23.0683 44.7823 23.2578 45.2344L23.4062 45.5938L23.5625 45.9609C23.6853 46.2546 23.7817 46.5571 23.8516 46.8672L24.0234 47.6328C24.0726 47.8516 24.1364 48.0723 24.2109 48.2891L24.3359 48.6641L24.4688 49.0391C24.6897 49.6817 24.4922 50.2846 24.1719 50.7422L23.875 51.1719L23.5703 51.5938C23.4989 51.6956 23.4822 51.7583 23.4766 51.7812L23.4922 52.1641L23.5078 52.5C23.5176 52.5145 23.5419 52.5469 23.5938 52.5938L23.9766 52.9453L24.3672 53.2969C24.3753 53.3042 24.3825 53.3127 24.3906 53.3203C24.4582 53.1747 24.5436 53.035 24.6484 52.9062L24.9453 52.5469L25.1719 52.2578L25.0781 51.9922L24.9375 51.5859C24.7631 51.0892 24.7704 50.5644 25 50.0703L25.1719 49.7031L25.3359 49.3438C25.3426 49.3295 25.3533 49.3099 25.3359 49.2422L25.2266 48.8203L25.1172 48.4062C25.0358 48.0981 25.0276 47.7566 25.1484 47.4219C25.2671 47.0943 25.4817 46.8421 25.7109 46.6562L26.0859 46.3594L26.3438 46.1328L26.2969 45.8672L26.2188 45.4375C26.1612 45.1456 26.1657 44.8243 26.2812 44.5078C26.3969 44.1922 26.5962 43.9436 26.8281 43.7578L27.5156 43.2109C27.5326 43.1973 27.5416 43.1858 27.5469 43.1797L27.6016 42.7891L27.6641 42.3984C27.6945 42.1877 27.7098 41.9521 27.7109 41.6953V40.8047C27.7125 40.4679 27.8152 40.1093 28.0625 39.8047C28.3005 39.5129 28.6091 39.347 28.8984 39.2578L29.3828 39.1094L29.6172 39.0312V38.8047L29.6094 38.3125C29.6027 37.97 29.6861 37.5475 30.0156 37.2109C30.3331 36.8871 30.7381 36.7891 31.0547 36.7656L31.5859 36.7266L31.9375 36.6953L31.9844 36.5312L32.1016 36.1016C32.2261 35.6437 32.4713 35.2261 32.8594 34.9141L33.1641 34.6719L33.4609 34.4297C33.7303 34.2131 34.0268 34.0378 34.3438 33.8984L35.0625 33.5859C35.3485 33.4605 35.6441 33.3519 35.9453 33.2734L36.3203 33.1797L36.6875 33.0781C36.7177 33.0703 36.7686 33.0555 36.8359 32.9766L37.1094 32.6484L37.3906 32.3281C37.7171 31.9451 38.1514 31.6791 38.6719 31.6016L39.0625 31.5391L39.4453 31.4844C39.7263 31.4425 40.009 31.412 40.2891 31.3906L40.6797 31.3594L41.0625 31.3281C41.186 31.3188 41.3133 31.2911 41.4453 31.2266L41.8125 31.0469L42.1719 30.8672C42.5164 30.6979 42.8844 30.5917 43.2656 30.5547L44.0312 30.4766C44.1573 30.4644 44.282 30.4783 44.4062 30.4844C44.3545 30.4785 44.3016 30.4838 44.25 30.4766L43.4844 30.3672C43.1021 30.3135 42.7373 30.1869 42.3984 30L42.0391 29.8047L41.6797 29.6016C41.4677 29.4848 41.2582 29.3857 41.0547 29.2969L40.6953 29.1406L40.4453 29.0312C40.4338 29.0368 40.4217 29.0461 40.4062 29.0547L39.4531 29.5859C38.9675 29.857 38.3553 29.9994 37.7344 29.7422L37.3594 29.5859L36.9844 29.4375C36.4911 29.2331 36.1328 28.8628 35.8906 28.4219L35.6641 28.0078L35.5078 27.7188L35.1719 27.7422L34.6875 27.7656C34.3641 27.7806 33.9939 27.7153 33.6641 27.4766C33.3359 27.2387 33.1586 26.91 33.0703 26.6016L32.9375 26.1328L32.8203 25.7422L32.5312 25.6641L32.1016 25.5547C31.5884 25.4181 31.1459 25.1101 30.8672 24.625L30.6719 24.2812L30.4688 23.9297C30.3307 23.6895 30.1983 23.4497 30.0703 23.2109L29.8828 22.8672L29.7031 22.5234C29.6117 22.3529 29.5032 22.1919 29.3828 22.0469L28.8828 21.4531C28.665 21.1914 28.4828 20.9008 28.3359 20.5938L28.1719 20.25L28.0078 19.8984C27.9659 19.8108 27.8933 19.7163 27.7734 19.6172L27.1172 19.0703C26.7943 18.8033 26.532 18.4821 26.3516 18.1016L26.0078 17.3828C25.7927 16.9273 25.7602 16.4417 25.8516 15.9688L25.9297 15.5234L26.0156 15.0859C26.0622 14.8457 26.0856 14.6285 26.0859 14.4375V13.6484ZM24.3125 55.7969L24.0234 56.2109C23.9358 56.3346 23.9162 56.3976 23.9141 56.4141L23.9219 56.8047L23.9297 57.1875C23.9328 57.412 23.9435 57.6373 23.9688 57.8594L24.0156 58.2422L24.0391 58.5391L24.0469 58.5469C24.0661 58.5649 24.0983 58.5879 24.1406 58.6172L24.5625 58.9141L24.7031 58.6328C24.8196 58.3846 24.8891 58.181 24.9219 58.0234L25 57.6406L25.0781 57.2656C25.0965 57.1767 25.0958 57.0754 25.0625 56.9531L24.8438 56.1562C24.7788 55.9187 24.7034 55.6793 24.6172 55.4375L24.6016 55.3906L24.3125 55.7969ZM45.9531 30.5234L45.5625 30.5312H45.1719C45.0122 30.5333 44.8537 30.5103 44.6953 30.5C44.889 30.5304 45.0797 30.5802 45.2656 30.6484L45.6797 30.8047L46.0234 30.9219L46.2969 30.75L46.6406 30.5234L46.6484 30.5C46.3963 30.5075 46.1646 30.5207 45.9531 30.5234ZM32.5859 23.6094C32.5901 23.6113 32.5997 23.6204 32.6172 23.625L33.4609 23.8438C34.1258 24.0196 34.5538 24.5104 34.7266 25.1172L34.8594 25.5859L34.9062 25.75H35.0781L35.5547 25.7266L36.0312 25.7578C36.1908 25.7908 36.3537 25.8446 36.5078 25.9297C36.6621 26.0151 36.7934 26.1237 36.9062 26.2422L37.1875 26.6328L37.6406 27.4609C37.6998 27.5685 37.7422 27.5828 37.75 27.5859L38.125 27.7422L38.4141 27.8594C38.4289 27.8531 38.4513 27.8501 38.4766 27.8359L39.4297 27.3047C39.8995 27.0427 40.516 26.8775 41.1406 27.1484L41.5 27.3047L41.8516 27.4609C42.1171 27.5767 42.3837 27.7056 42.6484 27.8516L43.0078 28.0547L43.3672 28.25C43.5073 28.3272 43.6402 28.3731 43.7656 28.3906L44.1406 28.4375L44.5234 28.4922C44.7268 28.5207 44.9384 28.5339 45.1484 28.5312H45.5391L45.9219 28.5234C46.1735 28.5202 46.4657 28.5108 46.7891 28.5L47.7734 28.4688C47.9737 28.4621 48.5571 28.4674 48.9297 28.9609C49.3327 29.4977 49.1133 30.0822 49.0234 30.2812L48.8281 30.7031L48.6406 31.1172C48.4454 31.5476 48.1526 31.9201 47.75 32.1875L47.3984 32.4141L47.0547 32.6484C46.5418 32.9877 45.9513 33.0314 45.3984 32.8281L44.9922 32.6797L44.5781 32.5234C44.4273 32.468 44.3129 32.461 44.2266 32.4688L43.8359 32.5078L43.4531 32.5469C43.3236 32.5598 43.1928 32.5962 43.0547 32.6641L42.6875 32.8359L42.3281 33.0156C41.9773 33.188 41.6006 33.2986 41.2109 33.3281L40.8281 33.3516L40.4453 33.3828C40.2129 33.4004 39.9774 33.4259 39.7422 33.4609L39.3516 33.5234L38.9688 33.5781H38.9609C38.9596 33.5789 38.9411 33.5933 38.9141 33.625L38.6328 33.9453L38.3594 34.2734C38.056 34.6293 37.6644 34.8934 37.1953 35.0156L36.8203 35.1172L36.4453 35.2109C36.2482 35.2623 36.0562 35.3314 35.8672 35.4141L35.1484 35.7266C34.991 35.7957 34.8503 35.8865 34.7188 35.9922L34.1094 36.4766C34.0939 36.4894 34.0594 36.5221 34.0312 36.625L33.9141 37.0547L33.8047 37.4766C33.7128 37.8144 33.5172 38.1333 33.2031 38.3594C32.904 38.5745 32.5659 38.6572 32.2656 38.6797L31.7344 38.7188L31.6094 38.7266L31.6172 38.7656L31.625 39.2578C31.6314 39.5875 31.5573 39.9584 31.3203 40.2812C31.0846 40.6019 30.7559 40.7797 30.4453 40.875L29.9688 41.0234L29.7109 41.1016V41.7031C29.7094 42.0406 29.6856 42.3675 29.6406 42.6797L29.5859 43.0703L29.5234 43.4688C29.445 44.0078 29.1685 44.4508 28.7656 44.7734L28.4219 45.0469L28.2109 45.2109L28.2656 45.4844L28.3438 45.9141C28.4038 46.2204 28.3901 46.5483 28.2656 46.8672C28.1429 47.1803 27.9393 47.4242 27.7109 47.6094L27.3438 47.9141L27.1016 48.1016L27.1562 48.3125L27.2734 48.7266C27.4017 49.212 27.3671 49.7168 27.1484 50.1875L26.9844 50.5469L26.8125 50.9062L26.8203 50.9219L26.9609 51.3281L27.1016 51.7266C27.3234 52.3563 27.173 52.9723 26.7812 53.4531L26.4922 53.8125L26.2656 54.0938L26.3594 54.3594L26.5 54.7656C26.6031 55.0548 26.6945 55.3437 26.7734 55.6328L26.9922 56.4297C27.1025 56.8356 27.1251 57.2562 27.0391 57.6719L26.9609 58.0469L26.8828 58.4297C26.8109 58.776 26.6803 59.1254 26.5156 59.4766L26.0938 60.3828C25.9511 60.6867 25.6506 61.0893 25.1016 61.1953C24.5995 61.2908 24.1786 61.0804 23.9375 60.9141L23.4766 60.5859L23.0078 60.2656C22.5734 59.9659 22.1453 59.5074 22.0703 58.8516L22.0234 58.4688L21.9844 58.0859C21.9517 57.7983 21.9338 57.5088 21.9297 57.2188L21.9219 56.8281L21.9141 56.4453C21.9066 55.9182 22.111 55.4496 22.3906 55.0547L22.6797 54.6406L22.75 54.5312L22.6406 54.4297L22.25 54.0781C21.8681 53.7329 21.5473 53.2587 21.5156 52.6562L21.5 52.2656L21.4766 51.8828C21.4493 51.3376 21.6554 50.8477 21.9375 50.4453L22.2344 50.0234L22.5312 49.5938V49.5781L22.4453 49.3125L22.3203 48.9375C22.2227 48.6536 22.1356 48.3682 22.0703 48.0781L21.8984 47.3125C21.854 47.1148 21.7976 46.9147 21.7188 46.7266L21.5625 46.3672L21.4141 46.0078C21.4007 45.9761 21.361 45.9067 21.2344 45.8203L20.8438 45.5547L20.4609 45.2969C20.2086 45.1256 19.9781 44.8831 19.8359 44.5625C19.6932 44.2389 19.6697 43.9011 19.7188 43.5938L19.7891 43.1406L19.8594 42.6953C19.8824 42.5508 19.8613 42.4725 19.8438 42.4297L19.6953 42.0625L19.5391 41.7031C19.4848 41.5746 19.4127 41.4577 19.3125 41.3516L18.7656 40.7734C18.5867 40.5844 18.4042 40.4009 18.2266 40.2188L17.9609 39.9375L17.6875 39.6562C17.4858 39.4493 17.2898 39.2376 17.1094 39.0156L16.625 38.4219C16.5834 38.3709 16.5266 38.3215 16.4219 38.2812L16.0312 38.1328L15.6484 37.9844C15.0286 37.7481 14.6717 37.2407 14.5391 36.6641L14.4297 36.2031L14.3828 36.0078H14.2422L13.7891 35.9922C13.3867 35.9749 12.9896 35.8928 12.625 35.7266L12.2812 35.5703L11.9453 35.4141C11.3831 35.1554 11.0718 34.6531 10.8984 34.1797L10.5859 33.3203L10.6641 33.5469L10.1953 33.7031C9.65708 33.8871 9.05447 33.8788 8.51562 33.5234L8.17188 33.2969L7.89844 33.1172L7.54688 33.25L7.14062 33.3984C6.70152 33.5568 6.22833 33.5997 5.75781 33.4766L5.38281 33.375L5.00781 33.2812C4.70394 33.2017 4.40824 33.0913 4.11719 32.9609L3.38281 32.6328C3.16533 32.5353 2.94548 32.4521 2.72656 32.375L2.35938 32.2422L1.98438 32.1094C1.69567 32.0075 1.32769 31.8452 1.0625 31.5469L0.78125 31.2344C0.64322 31.0786 0.373034 30.6863 0.515625 30.1641C0.644983 29.693 1.02482 29.4849 1.17188 29.4141L1.375 29.3125L1.58594 29.2109C1.83091 29.0929 2.11973 29.0129 2.40625 28.9531L3.15625 28.7969C3.41973 28.7419 3.68815 28.686 3.95312 28.6406L4.32812 28.5781L4.71094 28.5156C4.9361 28.4771 5.16004 28.4247 5.38281 28.3672L5.75781 28.2734L6.13281 28.1719C6.3524 28.1151 6.57259 28.0544 6.78906 27.9766L7.52344 27.7109C7.73802 27.6338 7.94761 27.5475 8.14844 27.4531L8.5 27.2891L8.84375 27.125C9.10766 27.0007 9.37715 26.8886 9.64844 26.7969L10.0078 26.6797L10.3594 26.5625C10.5628 26.4937 10.7643 26.409 10.9609 26.3203L11.2969 26.1719L11.6406 26.0156C12.0287 25.8409 12.448 25.7729 12.8672 25.7812L13.3203 25.7891L13.7734 25.8047C13.9393 25.808 14.0603 25.7765 14.1484 25.7344L14.5156 25.5547L14.8203 25.4062L15.0547 24.4844C15.1619 24.054 15.3502 23.6408 15.6641 23.3047L15.9297 23.0234L16.1875 22.75C16.3428 22.5844 16.4908 22.4114 16.6328 22.2344L16.8672 21.9375L17.1094 21.6406C17.203 21.5233 17.2772 21.3902 17.3359 21.2422L17.4766 20.8828L17.625 20.5234C17.7977 20.0897 18.0866 19.7381 18.4609 19.4766L18.8047 19.2422L19.1406 19C19.3281 18.869 19.5047 18.7257 19.6719 18.5703L20.2812 18.0078C20.3773 17.9184 20.4396 17.8294 20.4766 17.7344L20.7578 17C20.8464 16.7706 20.9309 16.5372 21.0078 16.3047L21.125 15.9297L21.25 15.5625C21.3235 15.3403 21.3904 15.1098 21.4453 14.8828L21.5391 14.5078L21.625 14.125C21.6533 14.008 21.6644 13.8782 21.6406 13.7266L21.5703 13.3125L21.5078 12.9062C21.4257 12.3876 21.5364 11.8775 21.8203 11.4375L22.0469 11.0859L22.1641 10.8984L21.9922 10.6016L21.75 10.1875C21.5731 9.88435 21.4597 9.49607 21.5547 9.07031C21.647 8.66136 21.8982 8.35966 22.1406 8.15625L22.5547 7.8125L22.6484 7.72656L22.5938 7.65625L22.2656 7.24219C22.0844 7.00726 21.9255 6.7041 21.8828 6.34375C21.8385 5.96365 21.9383 5.60762 22.125 5.3125L22.3516 4.94531L22.5859 4.58594C22.6847 4.4298 22.7377 4.28327 22.7656 4.15625L22.8516 3.78125L22.9375 3.39844C22.9892 3.16293 23.0313 2.92787 23.0703 2.69531L23.1406 2.27344C23.125 2.25159 23.0927 2.23527 23.0781 2.21094C22.8125 1.76438 22.98 1.33612 23.1016 1.14844C23.2057 0.987636 23.3285 0.894891 23.3672 0.867188C23.5145 0.761707 23.69 0.698719 23.7422 0.679688L24.1797 0.523438L24.4375 0.460938C24.5397 0.446686 24.6605 0.438931 24.7891 0.460938C25.0825 0.512016 25.3292 0.678198 25.4922 0.90625C25.6351 1.10728 25.6853 1.31683 25.7031 1.44531C25.7214 1.57909 25.719 1.70405 25.7109 1.80469L25.6797 2.15625L25.6562 2.41406C25.6645 2.4255 25.6792 2.44264 25.6953 2.46094L26.0078 2.8125L26.3203 3.17188C26.736 3.64318 26.9225 4.27282 26.6875 4.92969L26.5469 5.32812L26.4297 5.625L26.6484 5.92969L26.9141 6.28906C27.17 6.64182 27.3455 7.04272 27.4062 7.48438L27.5156 8.25C27.5785 8.71163 27.4935 9.15803 27.3125 9.57031L27.1328 9.97656L26.9609 10.3828C26.9419 10.4262 26.931 10.4503 26.9297 10.4609V10.4766L27.0391 10.8516L27.1484 11.2188C27.1982 11.3899 27.2734 11.5622 27.3672 11.7266L27.7578 12.4141C27.9748 12.7943 28.0866 13.2172 28.0859 13.6562V14.4453C28.0852 14.7781 28.0515 15.1223 27.9844 15.4688L27.8125 16.3438C27.7904 16.4577 27.8102 16.5099 27.8203 16.5312L27.9844 16.8828L28.1562 17.2422C28.2017 17.3383 28.2749 17.4356 28.3906 17.5312L29.0469 18.0781C29.3663 18.3422 29.6324 18.6624 29.8125 19.0391L29.9766 19.3828L30.1406 19.7344C30.2159 19.8917 30.3098 20.0372 30.4219 20.1719L30.6719 20.4688L30.9141 20.7656C31.1227 21.0163 31.3061 21.2893 31.4609 21.5781L31.8359 22.2656C31.9538 22.4855 32.0754 22.7072 32.2031 22.9297L32.4062 23.2812L32.5859 23.6094Z" fill="black"/>
</svg>
