<svg width="232" height="271" viewBox="0 0 232 271" fill="none" xmlns="http://www.w3.org/2000/svg">
<path d="M108.172 5.16431C108.616 0.945203 114.043 0.945197 114.487 5.16431L118.21 40.5637C119.73 55.0166 123.964 68.5025 130.323 80.3596C142.761 74.9815 154.535 66.9683 164.752 56.4778L189.587 30.9788C192.548 27.9394 196.81 31.2988 194.547 34.8879L175.561 64.9954C165.929 80.269 160.511 96.9627 159.208 113.382C169.956 120.94 182.26 125.967 195.477 127.737L226.854 131.938C230.594 132.439 230.594 138.562 226.854 139.063L195.477 143.263C184.528 144.729 174.206 148.431 164.876 153.954C168.785 164.066 174.601 173.362 182.292 181.288L204.336 204.008C206.964 206.717 203.174 211.525 199.926 209.604L172.682 193.483C161.208 186.693 148.434 183.026 135.316 182.309C126.176 196.012 120.099 212.477 118.21 230.436L114.487 265.835C114.043 270.055 108.616 270.055 108.172 265.835L104.449 230.436C102.917 215.871 98.629 202.288 92.1875 190.365C79.8528 195.741 68.1794 203.714 58.0391 214.125L33.2041 239.625C30.2431 242.665 25.981 239.306 28.2441 235.716L47.2305 205.608C56.7716 190.478 62.1769 173.954 63.5439 157.684C52.7739 150.089 40.4367 145.037 27.1816 143.263L-4.19531 139.063C-7.93492 138.561 -7.93487 132.439 -4.19531 131.938L27.1816 127.737C38.2208 126.259 48.6228 122.507 58.0137 116.907C54.1038 106.696 48.2554 97.3097 40.499 89.3157L18.4541 66.5959C15.8267 63.8874 19.6165 59.0781 22.8643 60.9993L50.1084 77.1213C61.6194 83.933 74.4386 87.6008 87.6006 88.301C96.5967 74.6761 102.578 58.3523 104.449 40.5637L108.172 5.16431Z" fill="black"/>
<path d="M87.6758 86.6448L88.4492 85.6252C88.6188 85.4021 88.7587 85.1576 88.8594 84.887L89.082 84.2776L89.3164 83.6682C89.4528 83.3014 89.5739 82.924 89.6797 82.5432L90.0312 81.2776C90.2295 80.5665 90.6194 79.9571 91.168 79.4729L91.6836 79.0159L92.1406 78.6057L92.0938 77.8792L92.0352 77.1409C91.984 76.4559 92.0671 75.7649 92.3281 75.1252L92.5625 74.5393L92.8086 73.9534C93.036 73.3981 93.3549 72.8921 93.7578 72.4417L94.2031 71.9495L94.6484 71.4456C94.7704 71.309 94.8415 71.1744 94.8711 71.0237L94.9883 70.3909L95.1172 69.7581C95.2305 69.1818 95.4298 68.6296 95.7148 68.1174L96.0312 67.5549L96.3359 67.0042C96.646 66.4471 97.068 65.9564 97.5664 65.5393L98.1406 65.0706L98.3867 64.8479L98.1406 64.3088L97.7656 63.512C97.5479 63.0438 97.4044 62.4399 97.5781 61.7893C97.7573 61.1233 98.2029 60.6611 98.6562 60.3713L99.3594 59.926L100.062 59.469C100.34 59.2916 100.395 59.1723 100.402 59.1526L100.625 58.5432L100.848 57.9456C100.856 57.9243 100.886 57.8439 100.812 57.6292L100.32 56.176C100.102 55.5365 99.9925 54.8744 100.051 54.2073L100.109 53.5627L100.168 52.9299C100.247 52.0394 100.71 51.3163 101.316 50.7737L101.902 50.2463L102.5 49.719C102.723 49.519 102.776 49.3751 102.793 49.3088L102.945 48.6877L103.109 48.0549C103.138 47.9392 103.142 47.7898 103.074 47.5745L102.852 46.8831L102.641 46.2034C102.479 45.6957 102.35 45.1919 102.254 44.6917L101.996 43.3792C101.874 42.7437 101.883 42.0988 102.031 41.469L102.172 40.8479L102.324 40.2268C102.401 39.8987 102.445 39.5667 102.465 39.2307L102.5 38.5862L102.535 37.9534C102.58 37.1611 102.904 36.458 103.379 35.8674L103.859 35.2815L104.164 34.8831L103.895 34.4143L103.508 33.7346C103.273 33.3191 103.122 32.8193 103.145 32.2698C103.168 31.7157 103.367 31.2271 103.66 30.8284L104.551 29.6331C104.675 29.4645 104.68 29.3666 104.68 29.3167L104.656 28.0276C104.652 27.8291 104.608 27.5894 104.48 27.301L104.176 26.6213L103.883 25.9534C103.499 25.0899 103.516 24.1493 104.012 23.3049L104.363 22.7073L104.715 22.0979L104.727 22.0862V22.0627L104.504 21.4065L104.281 20.7385C104.005 19.9092 104.073 19.0525 104.492 18.2776L104.82 17.6682L105.148 17.0706C105.231 16.9175 105.253 16.7961 105.242 16.6838L105.172 16.0276L105.102 15.3831C105.032 14.7127 105.129 14.0542 105.371 13.426L105.605 12.8049L105.84 12.1956C105.991 11.8038 106.129 11.405 106.262 11.012L106.473 10.4026L106.684 9.78149C106.737 9.62503 106.756 9.46105 106.719 9.27759L106.578 8.63306L106.449 7.97681C106.304 7.25643 106.369 6.4566 106.836 5.75024L106.906 5.63306C106.838 5.46252 106.77 5.324 106.754 5.2229C106.701 4.89925 106.727 4.54661 106.754 4.26196L106.824 3.51196L106.895 2.75024L107.105 1.94165C107.243 1.64659 107.459 1.34695 107.809 1.12134C108.489 0.68251 109.217 0.806261 109.637 0.933838L110.387 1.15649L111.137 1.39087C111.395 1.46969 111.659 1.48187 111.945 1.42603L112.73 1.27368L113.504 1.12134L114.312 1.08618C114.599 1.11658 114.902 1.19191 115.191 1.35571C115.768 1.6838 116.08 2.21117 116.246 2.69165L116.504 3.44165L116.762 4.17993C117.058 5.04764 117 5.94511 116.574 6.76978L116.223 7.44946L115.883 8.12915C115.768 8.3525 115.77 8.46519 115.777 8.51587L115.965 9.78149C116.014 10.098 116.105 10.4123 116.223 10.7307L116.445 11.3518L116.68 11.9729C116.911 12.5992 116.988 13.2543 116.914 13.9182L116.844 14.5745L116.773 15.219C116.75 15.4226 116.773 15.6194 116.844 15.8167L117.055 16.426L117.277 17.0471C117.523 17.7335 117.566 18.4495 117.406 19.1565L117.102 20.469C117.072 20.5986 117.087 20.7066 117.137 20.8206L117.406 21.4299L117.664 22.0393C117.83 22.4222 118.013 22.806 118.203 23.1877L118.812 24.4065C119.309 25.4023 119.092 26.4136 118.566 27.2073L118.109 27.8987L117.652 28.5784C117.626 28.6186 117.604 28.6507 117.594 28.6721L117.781 29.2112L117.992 29.8323C118.067 30.0559 118.197 30.3056 118.414 30.5823L118.883 31.1799L119.34 31.7659C119.668 32.1839 119.898 32.7224 119.891 33.3362C119.882 33.9297 119.654 34.4361 119.375 34.8362L118.895 35.5276L118.672 35.8323L118.977 36.1018L119.598 36.676C119.938 36.9872 120.256 37.3898 120.43 37.8948C120.609 38.4186 120.608 38.9613 120.453 39.4651L120.242 40.1213L120.043 40.7893C119.972 41.0226 119.967 41.2119 119.996 41.3752L120.102 41.9963L120.207 42.6292C120.277 43.0277 120.355 43.4292 120.441 43.8245L120.582 44.4456L120.711 45.0667C120.838 45.653 120.867 46.2487 120.793 46.8479L120.711 47.5042L120.629 48.1721C120.599 48.4148 120.617 48.6333 120.676 48.8401L121.027 50.0823C121.193 50.662 121.263 51.2585 121.227 51.8635L121.18 52.5198L121.145 53.1877C121.137 53.3199 121.163 53.4272 121.238 53.551L121.59 54.1252L121.93 54.6995L123.336 56.9495C123.73 57.5778 123.921 58.2832 123.898 59.0237L123.852 60.3596C123.851 60.3939 123.86 60.4099 123.863 60.4182C123.866 60.4265 123.881 60.4533 123.922 60.5002L124.379 61.0276L124.836 61.5432C125.34 62.115 125.65 62.8074 125.715 63.5823L125.773 64.2385L125.832 64.8831C125.883 65.4932 125.822 66.1137 125.68 66.7346L125.516 67.4846L125.387 67.9768L125.832 68.2698L126.465 68.7034C127.002 69.0733 127.466 69.5154 127.836 70.0276L128.223 70.5549L128.598 71.0823C128.968 71.5957 129.232 72.1642 129.371 72.7815L129.652 74.0471C129.782 74.6222 129.82 75.2189 129.781 75.8284L129.734 76.5549L129.688 77.2932C129.668 77.5975 129.701 77.8358 129.77 78.0198L130.004 78.6174L130.016 78.6526L130.355 78.594L131.141 78.4534C131.335 78.418 131.39 78.3564 131.422 78.3127L131.844 77.7268L132.277 77.1526L132.828 76.5901C133.041 76.4314 133.283 76.3008 133.555 76.2151C133.818 76.1325 134.086 76.0978 134.34 76.0979L135.078 76.1917L135.887 76.3909L136.695 76.5784C136.809 76.6058 136.876 76.603 136.906 76.6018L137.434 76.2737L137.984 75.9338C138.105 75.8568 138.242 75.7171 138.383 75.4651L138.746 74.8088L139.109 74.1643C139.541 73.3899 140.236 72.8209 141.16 72.6409L142.496 72.3831C142.671 72.3489 142.795 72.2774 142.895 72.1838L143.363 71.7385L143.832 71.3049C144.176 70.9834 144.536 70.6692 144.898 70.3792L145.391 69.9807L145.895 69.5823C146.32 69.2427 146.782 68.9568 147.277 68.7268L148.449 68.1877C148.868 67.9935 149.299 67.8076 149.738 67.637L150.359 67.4026L150.969 67.1565C151.274 67.0381 151.56 66.8976 151.812 66.7229L152.34 66.3479L152.867 65.9846C152.872 65.9808 152.879 65.9687 152.891 65.9495C152.911 65.9167 152.953 65.843 152.984 65.7151L153.359 64.1682C153.481 63.6771 153.738 63.1717 154.203 62.7854C154.67 62.3997 155.22 62.2382 155.727 62.2112L156.523 62.176L157.32 62.1292C157.645 62.1123 157.828 62.0366 157.918 61.9768L158.457 61.6252L158.938 61.2971C158.946 61.2719 158.962 61.2251 158.973 61.1448L159.078 60.3127L159.184 59.4924C159.292 58.6239 159.69 57.7526 160.566 57.2307L161.129 56.8909L161.691 56.5627C162.043 56.3545 162.394 56.1437 162.734 55.9182L163.812 55.1917C163.899 55.1342 163.972 55.0555 164.035 54.8987L164.551 53.6096C164.85 52.8482 165.383 52.2375 166.121 51.8635L167.316 51.2542C167.589 51.1162 167.818 50.9578 168.008 50.7737L168.922 49.8831C169.15 49.6615 169.36 49.4168 169.543 49.1448L170.27 48.0667C170.602 47.5727 171.004 47.1382 171.477 46.7776L172.508 46.0042C172.912 45.6957 173.341 45.4082 173.797 45.1604L174.969 44.5276C175.154 44.4268 175.288 44.3036 175.391 44.1526L176.117 43.0745C176.447 42.5875 176.849 42.1578 177.312 41.7971L177.816 41.3987L178.32 41.012C178.667 40.7419 179.021 40.4668 179.375 40.2034L179.891 39.8284L180.406 39.4417C180.669 39.246 180.909 39.0256 181.121 38.7854L181.965 37.8245C182.024 37.7563 182.115 37.6199 182.164 37.3323L182.293 36.5588L182.41 35.7971C182.529 35.0893 182.789 34.4114 183.242 33.8401L183.641 33.3479L184.039 32.844L184.531 32.3518C185.065 31.942 185.708 31.7586 186.336 31.7073L188.023 31.5667C188.366 31.5387 188.379 31.4545 188.316 31.5198L188.738 31.0862L189.148 30.6526C189.535 30.2478 189.998 29.8919 190.543 29.6799L190.988 29.5159L191.422 29.3401C192.039 29.1012 192.68 29.0997 193.273 29.2229L194.398 29.4573C194.82 29.5447 195.365 29.7707 195.734 30.3127C196.102 30.8526 196.12 31.4385 196.051 31.8596L195.945 32.4338L195.852 33.0081C195.77 33.5017 195.635 33.9814 195.441 34.4377L195.219 34.9534L195.008 35.469C194.986 35.5194 194.932 35.6967 194.961 36.0784L195.02 36.8635L195.078 37.6604C195.117 38.1684 195.034 38.7394 194.703 39.2542C194.374 39.7638 193.897 40.0731 193.426 40.2502L191.926 40.8127L191.715 40.9182L191.434 41.5042L191.152 42.0784C190.88 42.6339 190.507 43.1235 190.051 43.5432L189.559 43.9885L189.078 44.4338C188.873 44.6226 188.706 44.832 188.586 45.0549L187.977 46.1799C187.906 46.3124 187.853 46.5072 187.848 46.801L187.824 47.551L187.812 48.2893C187.8 48.9226 187.699 49.5369 187.496 50.1174L187.074 51.3596C186.863 51.9646 186.527 52.5079 186.09 52.9768L185.656 53.4456L185.211 53.926C184.788 54.3801 184.285 54.7544 183.723 55.051L182.41 55.7307C182.158 55.8643 182.016 56.0056 181.93 56.1292L181.566 56.6565L181.203 57.1721C180.996 57.4699 180.81 57.7873 180.641 58.1096L180.336 58.6721L180.043 59.2346C179.868 59.5687 179.707 59.9221 179.562 60.2776L179.07 61.4729C178.908 61.8705 178.75 62.2698 178.59 62.6682L178.344 63.2659L178.109 63.8752C177.891 64.4158 177.589 64.9141 177.219 65.3635L176.809 65.8557L176.398 66.3596C176.057 66.7738 175.67 67.1537 175.238 67.4963L174.699 67.9182L174.16 68.3518L174.148 68.3635V68.3987L174.102 69.1135L174.066 69.8284C174.032 70.4121 173.93 70.9771 173.762 71.5159L173.562 72.137L173.375 72.7463C173.239 73.1808 173.096 73.6134 172.941 74.0354L172.719 74.6331L172.508 75.2307C172.304 75.787 172.002 76.3031 171.629 76.7659L171.23 77.2698L170.82 77.7737C170.646 77.9898 170.514 78.2213 170.422 78.4651L169.977 79.6604C169.849 79.9998 169.736 80.3465 169.648 80.7034L169.344 81.9456C169.171 82.6532 168.8 83.2704 168.289 83.7737L167.797 84.2542L167.316 84.7346L167.375 85.426L167.434 86.1292C167.501 86.8859 167.358 87.6307 166.953 88.2971L166.613 88.8479L166.285 89.3987C166.116 89.6777 165.977 89.9693 165.875 90.2659L165.664 90.8635L165.465 91.4729C165.292 91.9729 165.061 92.4534 164.785 92.9143L164.445 93.4768L164.117 94.0393C163.926 94.3593 163.756 94.6902 163.613 95.0237L163.355 95.6213L163.098 96.2073C163.049 96.3204 163.03 96.459 163.062 96.6526L163.18 97.3323L163.285 98.0237C163.428 98.8902 163.224 99.7184 162.699 100.414L162.277 100.977L161.891 101.481L162.09 102.125L162.312 102.817C162.554 103.593 162.537 104.415 162.184 105.184L161.902 105.781L161.633 106.379C161.537 106.589 161.493 106.792 161.492 107L161.48 107.645V108.278C161.478 108.863 161.38 109.442 161.199 110L160.801 111.242C160.717 111.504 160.652 111.853 160.625 112.309L160.578 113.141V113.199H161.293C161.781 113.196 162.299 113.3 162.77 113.598C163.004 113.747 163.203 113.927 163.367 114.125L163.766 114.77L164.082 115.473L164.398 116.164C164.427 116.227 164.445 116.266 164.457 116.281H164.469L165.078 116.504L165.699 116.715C166.097 116.853 166.495 116.989 166.895 117.114L167.527 117.301L168.148 117.5C168.466 117.599 168.801 117.673 169.156 117.711L170.516 117.852C171.061 117.911 171.591 118.026 172.098 118.192L172.695 118.379L173.305 118.578C173.99 118.802 174.563 119.216 175.027 119.75L175.496 120.278L175.953 120.805C175.999 120.857 176.028 120.883 176.035 120.887C176.042 120.89 176.056 120.896 176.082 120.899L177.395 121.016C178.368 121.11 179.107 121.671 179.598 122.399L180.043 123.055L180.242 123.348L180.664 123.196L181.438 122.879C181.868 122.707 182.374 122.602 182.902 122.668C183.174 122.703 183.43 122.78 183.664 122.891L184.297 123.324L185.352 124.262C185.604 124.49 185.856 124.664 186.113 124.789L186.699 125.071L187.285 125.364C187.49 125.464 187.705 125.519 187.93 125.528L189.242 125.574C189.678 125.591 190.112 125.612 190.543 125.633L191.188 125.656L191.832 125.692C192.482 125.723 193.104 125.901 193.684 126.196L194.293 126.5L194.891 126.805C194.945 126.832 194.984 126.842 195.078 126.817L196.414 126.442C196.879 126.314 197.347 126.197 197.809 126.09L199.145 125.785C199.996 125.59 200.827 125.753 201.547 126.219L202.145 126.606L202.73 126.992C202.942 127.13 203.125 127.177 203.281 127.192L204.547 127.309C205.039 127.354 205.53 127.431 206.012 127.543L206.633 127.696L207.266 127.836C207.507 127.892 207.76 127.914 208.027 127.883L208.672 127.801L209.328 127.731C210.038 127.648 210.741 127.752 211.391 128.047L211.988 128.328L212.598 128.598C212.936 128.751 213.279 128.877 213.617 128.973L214.227 129.149L214.848 129.324C215.019 129.373 215.205 129.379 215.422 129.336L216.09 129.207L216.746 129.067C217.351 128.944 217.969 128.925 218.574 129.02L219.195 129.125L219.828 129.219C220.309 129.294 220.787 129.401 221.258 129.535L222.5 129.887C222.876 129.994 223.258 130.091 223.637 130.168L224.879 130.426C225.436 130.54 225.97 130.726 226.461 131L226.988 131.293L227.504 131.586C227.692 131.691 227.958 131.783 228.312 131.856L229.016 132.008L229.73 132.149C230.121 132.228 230.881 132.473 231.242 133.274C231.597 134.064 231.292 134.793 231.102 135.137L230.738 135.781L230.387 136.426C230.135 136.879 229.893 137.272 229.672 137.586L229.402 137.961L229.145 138.348C228.71 138.964 228.075 139.306 227.41 139.438L226.883 139.543L226.367 139.637C226.074 139.695 225.734 139.782 225.359 139.895L224.75 140.082L224.129 140.27C223.778 140.376 223.424 140.502 223.074 140.656L222.465 140.926L221.867 141.196C221.395 141.405 220.904 141.578 220.414 141.711L219.793 141.887L219.184 142.051C218.619 142.204 218.035 142.266 217.449 142.239L216.793 142.203L216.148 142.18C215.806 142.164 215.471 142.172 215.141 142.215L213.875 142.379C213.328 142.451 212.776 142.455 212.223 142.391L211.566 142.321L210.91 142.239C210.75 142.221 210.6 142.249 210.441 142.321L209.844 142.59L209.234 142.871C208.559 143.177 207.832 143.262 207.102 143.141L206.445 143.035L205.801 142.93C205.788 142.938 205.777 142.958 205.754 142.977L205.168 143.446L204.594 143.926C204.035 144.384 203.381 144.709 202.648 144.817L201.383 145.004C200.713 145.102 200.045 145.023 199.402 144.817L198.734 144.606L198.055 144.395C197.732 144.292 197.438 144.239 197.164 144.231L196.508 144.207L195.863 144.196H195.84C195.82 144.204 195.775 144.234 195.699 144.301L195.125 144.805L194.562 145.309C193.917 145.886 193.09 146.216 192.16 146.106L191.504 146.035L190.848 145.953C190.476 145.909 190.109 145.888 189.746 145.895L189.102 145.906L188.445 145.918C188.32 145.921 188.199 145.951 188.059 146.047L187.508 146.434L186.945 146.821C186.177 147.349 185.292 147.456 184.438 147.231L183.711 147.031L182.996 146.844C182.711 146.768 182.496 146.776 182.328 146.809L181.684 146.938L181.051 147.067C180.784 147.12 180.531 147.211 180.289 147.348L179.715 147.664L179.141 147.992C178.726 148.227 178.303 148.442 177.875 148.637L176.703 149.176C176.357 149.334 176.015 149.502 175.684 149.692L175.133 150.02L174.57 150.336C174.289 150.498 174.018 150.694 173.762 150.922L173.27 151.367L172.766 151.801C172.389 152.136 172 152.45 171.594 152.727L171.066 153.078L170.539 153.442C169.994 153.813 169.385 154.044 168.734 154.145L168.066 154.25L167.551 154.321L167.48 154.496C167.478 154.502 167.479 154.525 167.469 154.555C167.457 154.593 167.439 154.642 167.422 154.707C167.387 154.842 167.348 155.02 167.305 155.246L167.152 155.996L167.07 156.383L167.527 156.629L168.242 157.004C168.654 157.22 169.044 157.541 169.332 157.989C169.627 158.448 169.754 158.96 169.742 159.465L169.719 160.18L169.707 160.883C169.697 161.288 169.72 161.687 169.766 162.067L169.93 163.426L169.941 163.438L170.539 163.824L171.148 164.223C171.725 164.603 172.207 165.1 172.543 165.711L172.848 166.262L173.152 166.824C173.418 167.307 173.628 167.818 173.773 168.36L173.949 169.016L174.09 169.543L174.816 169.801L175.555 170.071C176.047 170.244 176.535 170.56 176.867 171.078C177.192 171.588 177.279 172.15 177.254 172.649L177.207 173.469L177.172 174.289C177.168 174.368 177.167 174.425 177.172 174.453L177.605 174.875L178.074 175.332C178.293 175.546 178.537 175.748 178.824 175.918L179.996 176.598C180.418 176.848 180.816 177.119 181.203 177.395L181.742 177.77L182.27 178.145C182.634 178.405 182.996 178.671 183.348 178.942L183.852 179.34L184.355 179.727C184.862 180.117 185.277 180.597 185.586 181.156L185.902 181.742L186.219 182.317C186.504 182.835 186.71 183.406 186.852 184.004L187.027 184.719L187.191 185.399L187.766 185.633L188.41 185.879C188.98 186.103 189.506 186.41 189.969 186.793L190.953 187.614C191.238 187.849 191.538 188.073 191.855 188.281L192.406 188.633L192.957 188.996C193.788 189.545 194.161 190.403 194.246 191.27L194.328 192.09L194.375 192.653L194.809 192.758L195.535 192.934C196.224 193.104 196.87 193.415 197.398 193.906L197.867 194.352L198.336 194.785C198.674 195.1 198.997 195.43 199.309 195.77L200.176 196.707C200.453 197.01 200.734 197.315 201.02 197.61L201.91 198.524C202.118 198.738 202.354 198.93 202.625 199.098L203.188 199.438L203.738 199.789C204.284 200.127 204.755 200.564 205.121 201.09L205.484 201.629L205.859 202.156C206.328 202.83 206.503 203.606 206.434 204.395L206.375 205.11L206.305 205.813C206.25 206.428 206.113 207.038 205.824 207.582L205.309 208.543C205.006 209.112 204.554 209.58 203.973 209.891L203.059 210.383C202.372 210.749 201.575 210.805 200.82 210.442L200.387 210.231L199.953 210.031C199.599 209.861 199.221 209.636 198.828 209.387L197.75 208.707C197.615 208.622 197.432 208.554 197.176 208.531L195.77 208.414C194.915 208.339 194.155 207.957 193.602 207.278L193.18 206.75L192.746 206.223C192.594 206.036 192.435 205.916 192.266 205.836L191.68 205.555L191.105 205.285C190.574 205.036 190.094 204.704 189.664 204.301L188.703 203.41C188.656 203.367 188.591 203.318 188.434 203.305L187.719 203.258L187.016 203.199C186.39 203.149 185.785 202.997 185.223 202.742L184.637 202.485L184.062 202.215C183.332 201.885 182.79 201.328 182.422 200.656L182.059 200L181.777 199.496L181.191 199.508H180.453C179.626 199.519 178.82 199.269 178.18 198.664L177.699 198.219L177.23 197.762C176.881 197.432 176.536 197.085 176.211 196.719L175.766 196.215L175.449 195.852L174.617 196.016L173.785 196.168C172.896 196.337 171.894 196.208 171.137 195.43L170.68 194.961L170.211 194.492C170.114 194.392 170.019 194.334 169.883 194.305L169.238 194.164L168.594 194.035C167.679 193.843 167.007 193.258 166.578 192.512L166.203 191.856L165.945 191.422L165.477 191.516L164.715 191.633C163.91 191.763 163.077 191.649 162.348 191.153L161.82 190.801L161.281 190.438C160.872 190.159 160.48 189.842 160.098 189.5L159.582 189.043L159.09 188.61H159.078L158.375 188.715L157.66 188.821C156.742 188.952 155.876 188.679 155.199 188.035L154.168 187.051C154.005 186.897 153.868 186.833 153.746 186.805L153.125 186.664L152.492 186.512C152.173 186.44 151.845 186.395 151.508 186.383L150.852 186.36L150.207 186.336C149.827 186.323 149.443 186.335 149.059 186.36L148.402 186.406L147.746 186.442C146.991 186.491 146.276 186.305 145.637 185.914L145.051 185.563L144.477 185.211C144.059 184.956 143.64 184.678 143.223 184.379L142.637 183.957L142.285 183.699L141.758 184.051L141.066 184.496C140.678 184.744 140.208 184.94 139.684 184.977C139.145 185.014 138.636 184.883 138.195 184.625L137.598 184.274L137.41 184.156L137.316 184.274C136.921 184.698 136.391 185.013 135.863 185.258L134.504 185.891C134.246 186.011 134.117 186.142 134.047 186.242L133.672 186.758L133.309 187.285C133.221 187.411 133.146 187.573 133.121 187.801L133.051 188.492L132.969 189.184C132.908 189.747 132.798 190.294 132.617 190.813L132.395 191.422L132.184 192.031C131.991 192.581 131.715 193.09 131.363 193.555L130.59 194.586C130.393 194.847 130.224 195.12 130.086 195.406L129.805 195.981L129.535 196.555C129.354 196.933 129.174 197.312 128.996 197.692L128.457 198.84C128.222 199.339 127.92 199.812 127.566 200.246L127.145 200.762L126.734 201.278C126.49 201.577 126.258 201.885 126.055 202.203L125.352 203.305C125.35 203.313 125.343 203.363 125.363 203.457L125.527 204.196L125.68 204.934C125.86 205.756 125.765 206.606 125.27 207.36L124.543 208.461C124.332 208.782 124.142 209.111 123.969 209.446L123.676 210.02L123.371 210.606C123.219 210.902 123.097 211.208 123.008 211.52L122.832 212.129L122.656 212.75C122.628 212.849 122.621 213 122.691 213.242L122.891 213.957L123.102 214.66C123.241 215.142 123.264 215.676 123.09 216.207C122.918 216.731 122.587 217.141 122.223 217.449L121.613 217.965L121.016 218.469H120.992L121.051 219.031L121.121 219.699C121.169 220.212 121.181 220.721 121.156 221.223L121.121 221.867L121.086 222.5C121.053 223.16 120.869 223.793 120.559 224.375L120.242 224.973L119.926 225.559C119.753 225.883 119.615 226.214 119.504 226.543L119.293 227.164L119.117 227.68C119.129 227.702 119.148 227.733 119.176 227.774L119.656 228.477L120.137 229.168C120.416 229.575 120.634 230.097 120.629 230.703C120.623 231.329 120.373 231.865 120.031 232.274L119.047 233.446H119.035L119.176 234.043L119.34 234.699C119.502 235.376 119.497 236.065 119.305 236.739L119.129 237.36L118.941 237.981C118.875 238.212 118.858 238.452 118.883 238.696L118.941 239.34L119.012 239.985C119.063 240.493 119.076 241.003 119.047 241.508L119.012 242.153L118.965 242.785C118.935 243.291 118.866 243.79 118.754 244.285L118.613 244.918L118.473 245.539C118.381 245.944 118.296 246.353 118.215 246.758L118.086 247.391L117.957 248.012C117.846 248.562 117.668 249.103 117.418 249.617L117.125 250.227L116.82 250.836C116.68 251.125 116.588 251.406 116.539 251.68L116.434 252.313L116.316 252.934C116.316 252.938 116.32 252.957 116.328 252.992C116.337 253.032 116.354 253.112 116.422 253.227L116.832 253.906L117.23 254.586C117.625 255.253 117.863 256.028 117.77 256.848L117.629 258.114C117.541 258.876 117.198 259.546 116.727 260.117L116.246 260.703L115.754 261.301C115.556 261.542 115.48 261.734 115.449 261.875L115.309 262.508L115.168 263.129C115.099 263.448 115.066 263.765 115.062 264.078V264.711L115.051 265.344C115.048 265.683 115.077 266.084 115.133 266.551L115.227 267.336L115.32 268.11C115.377 268.583 115.332 269.256 114.863 269.832C114.388 270.415 113.732 270.587 113.246 270.617L112.473 270.664L111.711 270.711C110.853 270.765 109.961 270.525 109.309 269.785L108.898 269.317L108.477 268.848C108.25 268.591 107.967 268.309 107.621 268.004L107.047 267.489L106.461 266.985C106.057 266.628 105.695 266.091 105.652 265.391C105.613 264.724 105.881 264.168 106.168 263.774L107.176 262.391C107.317 262.197 107.346 262.085 107.352 262.051L107.305 261.406L107.27 260.774C107.247 260.453 107.184 260.13 107.094 259.813L106.742 258.571C106.66 258.282 106.53 257.985 106.355 257.68L106.016 257.082L105.664 256.473C105.375 255.968 105.157 255.439 105.008 254.891L104.832 254.27L104.668 253.649C104.514 253.083 104.442 252.5 104.469 251.914L104.504 251.27L104.527 250.625C104.55 250.13 104.615 249.634 104.703 249.137L104.82 248.481L104.926 247.836C104.994 247.452 105.04 247.064 105.066 246.688L105.16 245.399C105.191 244.959 105.226 244.515 105.266 244.074L105.383 242.785C105.388 242.725 105.383 242.638 105.289 242.492L104.891 241.883L104.504 241.285C104.163 240.763 103.905 240.202 103.754 239.61L103.59 238.989L103.438 238.367C103.252 237.64 103.302 236.905 103.543 236.211L103.777 235.555L104.012 234.887C104.076 234.701 104.061 234.576 104.035 234.477L103.871 233.844L103.707 233.223C103.56 232.67 103.493 232.107 103.508 231.535L103.52 230.891L103.543 230.246C103.555 229.797 103.572 229.342 103.602 228.887L103.648 228.231L103.695 227.586C103.713 227.313 103.682 227.046 103.613 226.789L103.449 226.168L103.273 225.535C103.256 225.475 103.198 225.334 102.957 225.125L102.336 224.586L101.703 224.035C101.019 223.441 100.53 222.589 100.648 221.539L100.719 220.883L100.801 220.227C100.842 219.866 100.853 219.507 100.836 219.16L100.766 217.871C100.761 217.783 100.737 217.683 100.625 217.543L100.191 216.992L99.7578 216.453C99.1816 215.73 98.9915 214.851 99.1836 213.957L99.3242 213.254L99.4766 212.563C99.5468 212.238 99.5605 211.945 99.5352 211.684L99.4766 211.028L99.418 210.383C99.3733 209.93 99.3272 209.474 99.3008 209.012L99.2656 208.344L99.2305 207.852L99.207 207.84L98.457 207.418L97.707 207.008C96.9391 206.583 96.2465 205.879 96.1016 204.84L96.0195 204.196L95.9258 203.551C95.9025 203.389 95.8458 203.247 95.7383 203.106L95.3281 202.578L94.9297 202.063C94.5336 201.548 94.2545 200.961 94.1094 200.328L93.8281 199.086C93.6831 198.453 93.6798 197.795 93.7812 197.141L93.8984 196.379L93.957 195.934L93.5117 195.711L92.8086 195.348C92.1148 194.991 91.5011 194.451 91.1562 193.684L90.8984 193.098L90.6406 192.524C90.6343 192.51 90.6227 192.5 90.6172 192.489L90.5352 192.453L90.2656 192.711L89.7734 193.156C89.121 193.744 88.3137 193.989 87.4766 193.953L86.75 193.93L86.1992 193.895L85.918 194.422L85.543 195.09C85.187 195.726 84.6885 196.272 84.0312 196.637L83.4805 196.942L82.9297 197.258C82.5396 197.474 82.1353 197.68 81.7344 197.879L81.1719 198.16L80.5977 198.442C80.3568 198.561 80.1321 198.715 79.9297 198.91L79.4727 199.356L79.0039 199.813C78.5553 200.245 78.0342 200.575 77.457 200.809L76.2617 201.301C75.9279 201.436 75.6047 201.592 75.3008 201.77L74.75 202.086L74.1992 202.414C73.8201 202.636 73.4389 202.858 73.0508 203.071L72.4766 203.375L71.9141 203.68C71.7175 203.788 71.548 203.936 71.3984 204.125L70.9883 204.641L70.5898 205.156C70.0977 205.778 69.4311 206.175 68.6797 206.364L68 206.539L67.4375 206.668L67.2383 207.313L67.0039 208.028C66.8522 208.497 66.5815 208.948 66.1484 209.293C65.7155 209.637 65.2095 209.803 64.7305 209.856L63.957 209.938L63.582 209.973L63.5234 210.453L63.418 211.285C63.3588 211.762 63.193 212.275 62.832 212.715C62.4603 213.167 61.969 213.436 61.4609 213.559L60.0312 213.91C59.9927 213.92 59.9656 213.927 59.9492 213.934C59.9379 213.939 59.9285 213.944 59.9258 213.946L59.5977 214.52L59.2578 215.082C58.8981 215.701 58.3957 216.192 57.7695 216.535L57.1836 216.852L56.6328 217.156C56.6288 217.17 56.6256 217.192 56.6211 217.215L56.3398 218.715C56.1659 219.624 55.643 220.416 54.7344 220.836L53.4922 221.399C53.3939 221.444 53.3441 221.492 53.3047 221.574L53.0234 222.184L52.7305 222.793C52.312 223.675 51.5476 224.191 50.668 224.387L49.918 224.551L49.2969 224.692L49.1562 225.231L48.957 225.922C48.7644 226.594 48.4337 227.211 47.9375 227.715L47.4805 228.16L47.0352 228.617C46.7878 228.869 46.5563 229.138 46.3438 229.426L45.9688 229.953L45.582 230.469C45.0782 231.15 44.3647 231.544 43.5898 231.723L42.8516 231.899L42.1133 232.063C41.8608 232.121 41.7602 232.212 41.7148 232.262L41.2812 232.731L40.8594 233.199C40.6802 233.395 40.522 233.627 40.3906 233.903L39.8047 235.121C39.5309 235.699 39.1561 236.209 38.6797 236.633L38.2109 237.067L37.7305 237.489C37.4657 237.724 37.221 237.98 36.9922 238.25L36.5703 238.731L36.1602 239.223C35.6572 239.818 35.0011 240.192 34.2617 240.36L32.9023 240.664C32.8021 240.688 32.6802 240.747 32.5273 240.922L32.0117 241.508L31.5078 242.094C31.1598 242.494 30.6504 242.861 29.9844 242.938C29.3384 243.012 28.7761 242.791 28.3555 242.528L27.6406 242.082L26.9375 241.637C26.5108 241.37 26.0437 240.936 25.8477 240.278C25.6498 239.608 25.8087 238.985 26.0469 238.52L26.4102 237.805L26.7852 237.09C26.8898 236.884 26.9056 236.713 26.8789 236.539L26.7617 235.778L26.6445 235.028C26.526 234.261 26.6188 233.472 27.0195 232.754L27.3242 232.192L27.6406 231.641C27.9328 231.118 28.3038 230.647 28.7539 230.246L29.2578 229.813L29.75 229.367C30.0309 229.117 30.2902 228.855 30.5234 228.582L30.9336 228.09L31.3555 227.598C31.6592 227.242 31.9813 226.9 32.3164 226.567L32.7852 226.098L33.2539 225.641C33.5403 225.356 33.8102 225.06 34.0742 224.762L34.5078 224.281L34.9297 223.801C35.0295 223.688 35.112 223.545 35.1523 223.344L35.2812 222.676L35.4219 222.008C35.5834 221.203 36.0092 220.523 36.6641 220.028L37.7422 219.207C37.8193 219.149 37.8516 219.097 37.8711 219.008L38.0117 218.34L38.1641 217.684C38.3206 216.962 38.6705 216.314 39.207 215.797L40.1445 214.883C40.4001 214.636 40.634 214.382 40.8359 214.11L41.2109 213.594L41.5977 213.078C41.8778 212.7 42.1726 212.331 42.4883 211.977L43.3555 211.016L43.3438 211.028C43.3476 211.013 43.3512 210.96 43.3438 210.852L43.2852 210.055L43.2383 209.27C43.1843 208.529 43.2883 207.781 43.6484 207.102L43.9414 206.539L44.2461 205.965C44.5123 205.465 44.8467 205.004 45.2422 204.594L45.6992 204.137L46.1445 203.668C46.348 203.457 46.5084 203.223 46.6367 202.977L46.9297 202.414L47.2344 201.852C47.5671 201.215 48.0575 200.709 48.6523 200.328L49.8711 199.555C50.042 199.446 50.0989 199.348 50.1289 199.274L50.3633 198.676L50.6094 198.067C50.7072 197.819 50.7738 197.539 50.7969 197.223L50.8438 196.531L50.8906 195.852C50.9388 195.193 51.1197 194.554 51.4414 193.977L51.7461 193.426L52.0625 192.864C52.2226 192.575 52.3553 192.275 52.4609 191.961L52.6602 191.352L52.8711 190.754C53.0838 190.122 53.4369 189.565 53.9023 189.09L54.8633 188.106C55.1232 187.84 55.3465 187.56 55.543 187.274L55.918 186.735L56.2227 186.278C56.2183 186.262 56.2183 186.24 56.2109 186.219L55.9297 185.446L55.6484 184.66C55.3644 183.865 55.3058 182.947 55.7656 182.094L56.375 180.969C56.6946 180.376 57.1499 179.876 57.6875 179.457L58.3086 178.977L58.918 178.508C58.9336 178.496 58.9437 178.482 58.9531 178.473V177.207C58.9533 176.632 59.0209 176.067 59.1758 175.52L59.3516 174.899L59.5273 174.289C59.6277 173.936 59.7147 173.575 59.7734 173.211L59.8672 172.578L59.9727 171.946C60.0498 171.467 60.1576 170.994 60.2891 170.528L60.4648 169.906L60.6289 169.297C60.7819 168.754 61.0164 168.234 61.3086 167.739L61.6484 167.141L61.9297 166.66L61.6016 165.992L61.25 165.278C61.0371 164.843 60.9075 164.329 60.9688 163.778C61.0313 163.223 61.2714 162.749 61.5898 162.371L62.082 161.785L62.5742 161.211C62.7489 161.004 62.7952 160.852 62.8086 160.754L62.9023 160.121L62.9844 159.477C62.9852 159.468 62.9904 159.454 62.9844 159.43C62.9752 159.395 62.9469 159.323 62.8789 159.219L62.0117 157.906C61.8134 157.606 61.6266 157.434 61.4727 157.332L60.9336 156.981L60.4062 156.617C60.1027 156.417 59.7848 156.24 59.457 156.078L58.8711 155.797L58.2969 155.504C57.7971 155.258 57.3268 154.955 56.9023 154.59L56.4102 154.168L55.9414 153.758H55.8008L54.2539 153.946C53.7752 154.004 53.2531 153.959 52.7539 153.723C52.2509 153.485 51.8844 153.103 51.6289 152.68L51.2422 152.035L50.8438 151.391C50.751 151.239 50.6938 151.219 50.6797 151.215L50.0586 151.016L49.4492 150.828C49.0552 150.705 48.6506 150.586 48.2539 150.477L47.6328 150.301L47.0117 150.137C46.424 149.975 45.8796 149.708 45.3828 149.352L44.3047 148.578C43.9806 148.346 43.6485 148.127 43.3086 147.922L42.7461 147.582L42.2656 147.289C42.2484 147.295 42.2308 147.314 42.207 147.324L41.4336 147.664L40.6602 147.992C40.207 148.188 39.6543 148.308 39.0664 148.192C38.4637 148.072 37.9908 147.74 37.6484 147.336L37.1562 146.75L36.6523 146.164C36.4606 145.938 36.301 145.844 36.1836 145.801L34.9648 145.356C34.9243 145.342 34.8384 145.315 34.6484 145.379L33.9453 145.625L33.2422 145.86C32.7705 146.019 32.2419 146.072 31.707 145.93C31.1786 145.789 30.7484 145.491 30.418 145.145L29.8789 144.571L29.3633 144.031L28.8477 144.16L28.1797 144.313C27.6973 144.421 27.2126 144.511 26.7383 144.582L26.082 144.676L25.4258 144.781C24.7826 144.878 24.1408 144.833 23.5156 144.653L22.2734 144.301C22.0297 144.23 21.7832 144.203 21.5234 144.219L20.8672 144.254L20.2227 144.301C19.5128 144.347 18.8262 144.198 18.1953 143.879L17.5977 143.574L16.9883 143.27C16.6701 143.109 16.3541 142.986 16.0391 142.895L15.418 142.707L14.7969 142.531C14.5122 142.45 14.2231 142.407 13.9297 142.403L13.2852 142.391H12.6406C12.2828 142.386 11.9202 142.405 11.5508 142.449L10.8945 142.52L10.2383 142.602C9.76015 142.659 9.28345 142.693 8.80859 142.707L8.16406 142.731L7.51953 142.742C6.92303 142.76 6.33171 142.685 5.76172 142.508L5.14062 142.321L4.53125 142.121C4.31025 142.053 4.07983 142.029 3.83984 142.051L3.19531 142.11L2.53906 142.18C2.02953 142.227 1.51997 142.235 1.01562 142.203L0.382812 142.156L-0.261719 142.121C-0.856087 142.083 -1.4321 141.942 -1.98438 141.711L-3.20312 141.196C-3.64881 141.009 -4.08633 140.808 -4.50391 140.586L-5.07812 140.281L-5.64062 139.977C-6.13299 139.714 -6.58965 139.388 -7.01172 139.004L-7.52734 138.535L-8.03125 138.078C-8.74148 137.431 -9.04329 136.553 -8.94531 135.629L-8.86328 134.914L-8.79297 134.199C-8.70999 133.426 -8.40423 132.727 -7.9375 132.114L-6.97656 130.848C-6.40366 130.098 -5.5672 129.62 -4.55078 129.653L-3.14453 129.699C-2.47529 129.721 -1.81837 129.877 -1.19922 130.145L-0.519531 130.438L-0.109375 130.614L0.300781 130.192L0.863281 129.606C1.47641 128.969 2.31785 128.524 3.32422 128.633L3.98047 128.703L4.625 128.774C5.10139 128.825 5.58743 128.905 6.06641 128.996L6.72266 129.125L7.37891 129.242C7.46323 129.259 7.52851 129.261 7.625 129.207L8.82031 128.528C9.52444 128.133 10.3082 128.005 11.1055 128.164L11.7734 128.293L12.4297 128.434C12.6193 128.472 12.7731 128.45 12.9219 128.399L13.543 128.188L14.1523 127.977C14.5066 127.855 14.8658 127.712 15.2188 127.543L15.8164 127.262L16.4258 126.969C17.1587 126.62 17.9472 126.553 18.7227 126.758L19.3906 126.934L20.0586 127.121C20.311 127.188 20.5255 127.189 20.7148 127.156L21.3477 127.051L21.9688 126.946C22.3534 126.88 22.7474 126.793 23.1289 126.699L24.3711 126.395C24.8867 126.269 25.411 126.2 25.9414 126.184L26.5859 126.16L27.2305 126.149C27.4175 126.142 27.6046 126.09 27.8047 125.985L28.3906 125.68L28.9883 125.364C29.8767 124.896 30.8211 124.969 31.6367 125.352L32.3516 125.692L32.8086 125.914L33.6758 125.047C34.1854 124.534 34.8046 124.137 35.5273 123.957L36.7461 123.653C37.1788 123.545 37.6192 123.447 38.0586 123.36L38.6797 123.242L39.3008 123.114C39.9605 122.983 40.6356 123.017 41.293 123.172L42.0312 123.348L42.3477 123.418L42.6055 122.926L43.0039 122.153C43.3779 121.424 43.9653 120.741 44.8555 120.442L45.4531 120.242L46.0508 120.031C46.4614 119.893 46.8752 119.759 47.293 119.633L47.9023 119.457L48.5117 119.27C48.9259 119.145 49.3441 119.024 49.7656 118.906L51.0078 118.555C51.4616 118.428 51.9279 118.329 52.4023 118.239L53.7148 117.981H53.7266L53.7383 117.969C53.7478 117.959 53.7655 117.94 53.7852 117.91L54.1836 117.313L54.5703 116.703C54.8856 116.223 55.2975 115.839 55.7656 115.52C55.0319 115.023 54.507 114.268 54.4766 113.281L54.4648 112.602L54.4414 111.91C54.4403 111.909 54.436 111.89 54.418 111.875L53.8906 111.43L53.3516 110.985C52.8055 110.526 52.3892 109.948 52.1562 109.262L51.957 108.653L51.7461 108.055C51.605 107.64 51.4694 107.214 51.3359 106.789L51.1367 106.168L50.9492 105.547C50.8167 105.125 50.6782 104.701 50.5508 104.27L50.3633 103.637L50.1875 103.039C50.1755 103.033 50.1597 103.024 50.1406 103.016L49.4258 102.723L48.7227 102.43C48.2369 102.226 47.7782 101.874 47.4805 101.34C47.1903 100.818 47.1292 100.261 47.1758 99.7698L47.2578 98.9377L47.3281 98.176L46.9414 97.9299L46.3672 97.5549C46.0232 97.3342 45.6599 97.1236 45.2891 96.9338L44.0469 96.301C43.493 96.017 42.9969 95.6536 42.582 95.1995L42.1602 94.7307L41.7266 94.262C41.2506 93.739 40.9512 93.1106 40.7891 92.4338L40.6133 91.719L40.4492 91.0159C40.373 90.6971 40.2645 90.4443 40.1328 90.2424L39.7695 89.6917L39.418 89.1526C39.3031 88.9772 39.1582 88.8339 38.9727 88.719L38.4102 88.3674L37.8477 88.0276C37.5409 87.8389 37.2099 87.6651 36.8516 87.512L36.207 87.2424L35.5742 86.9729C35.034 86.742 34.5338 86.4436 34.0859 86.0823L33.5938 85.6838L33.0898 85.2737C32.4418 84.7502 32.0662 84.0392 31.9062 83.2698L31.6016 81.7932C31.5316 81.4573 31.4265 81.2122 31.3086 81.0315L30.9453 80.4807L30.5938 79.9417C30.3847 79.6227 30.1617 79.3174 29.9258 79.0276L29.5273 78.5354L29.1406 78.0549C29.1198 78.0452 29.0474 78.0222 28.9062 78.0081L28.0625 77.926L27.2305 77.844C26.7241 77.7945 26.1571 77.6184 25.6953 77.176C25.2261 76.725 25.0252 76.1513 24.9688 75.6292L24.875 74.8206L24.793 74.0237C24.791 74.0058 24.7834 73.9896 24.7812 73.9768L24.3008 73.7073L23.7266 73.3792C23.3219 73.1493 22.9208 72.91 22.5312 72.6643L21.4297 71.9612C20.7166 71.5116 20.248 70.8399 20.0234 70.0627L19.8242 69.3713L19.6602 68.7971L19.0273 68.6448L18.3008 68.4573C17.3862 68.2204 16.6847 67.6391 16.2383 66.8401L15.8398 66.1252L15.4531 65.4221C15.2063 64.9794 14.9822 64.3109 15.2305 63.5823C15.4753 62.8694 16.0438 62.4677 16.4844 62.2581L18.0078 61.5315C18.4302 61.3305 18.6283 61.1817 18.6992 61.1096L19.0742 60.7229L19.4375 60.3362C19.8936 59.862 20.4612 59.6129 21.0547 59.5627L21.6523 59.5862L22.8008 59.7268C23.4057 59.8041 23.976 60.0153 24.5 60.3245L25.0508 60.6409L25.6016 60.969C25.9039 61.1473 26.2204 61.3023 26.5508 61.4377L27.7461 61.9299C28.1534 62.0968 28.5626 62.27 28.9648 62.4456L30.1367 62.9612C30.8527 63.2737 31.4025 63.8014 31.7891 64.4495L32.1523 65.0706L32.5273 65.6917C32.6872 65.9596 32.8551 66.1439 33.0195 66.2659L33.5352 66.6409L34.0508 67.0276C34.117 67.0765 34.228 67.1258 34.4492 67.1331L35.9023 67.1799C36.6305 67.2039 37.3355 67.4026 37.9531 67.8245L39.0078 68.551C39.1817 68.6701 39.3872 68.7582 39.6406 68.8088L40.3086 68.9377L40.9648 69.0784C41.5465 69.1939 42.1032 69.3838 42.6172 69.6643L43.7422 70.2737C44.1225 70.4814 44.5024 70.6923 44.8789 70.9065L45.9805 71.5393C46.4975 71.8334 46.9632 72.2175 47.3633 72.6643L47.8086 73.1565L48.2539 73.6604C48.4578 73.8873 48.6792 74.0696 48.9102 74.2112L49.4492 74.5393L50 74.8792C50.471 75.1687 50.8991 75.5202 51.2891 75.9221L51.7578 76.3909L52.1797 76.8362C52.1927 76.8369 52.2116 76.838 52.2383 76.8362L52.9883 76.7893L53.7383 76.7307C54.5289 76.6737 55.3205 76.8492 56 77.3518L56.5156 77.7268L57.0312 78.1135C57.4927 78.4554 57.9067 78.8644 58.2734 79.3323L58.7188 79.8948L59.1523 80.4573C59.2517 80.5841 59.3192 80.6004 59.3633 80.6096L59.9961 80.7502L60.6406 80.8792C61.2328 81.0034 61.7888 81.231 62.3047 81.5471L62.8555 81.887L63.418 82.2268C63.5639 82.3153 63.7277 82.359 63.9219 82.3674L64.5781 82.4026L65.2461 82.426C65.6689 82.4444 66.092 82.4592 66.5117 82.4612H67.8359C68.8152 82.4657 69.6046 82.9565 70.1562 83.6448L71.1406 84.8635C71.3152 85.0807 71.4373 85.129 71.4922 85.1448L72.1016 85.3323L72.7227 85.5081C73.0677 85.6071 73.4213 85.6804 73.7773 85.7307L74.4219 85.8245L75.0547 85.9065C75.5763 85.98 76.0898 86.108 76.5898 86.2815L77.2109 86.4924L77.832 86.7151C78.0362 86.7851 78.248 86.806 78.4766 86.7854L79.7891 86.6682C80.1984 86.6313 80.6131 86.5776 81.0195 86.5159L82.332 86.3284C82.9644 86.2329 83.6005 86.2593 84.2188 86.4221L85.4609 86.7502C85.6895 86.8105 85.9503 86.8278 86.2461 86.7971L87.6289 86.6565C87.6505 86.6543 87.6657 86.6471 87.6758 86.6448ZM61.9531 178.543C61.9532 179.53 61.465 180.325 60.7578 180.875L60.1484 181.344L59.5391 181.824C59.263 182.039 59.0971 182.229 59.0117 182.387L58.707 182.961L58.4258 183.477C58.4289 183.505 58.4407 183.563 58.4727 183.653L58.7539 184.438L59.0352 185.211C59.3359 186.054 59.3572 187.033 58.7656 187.895L58.0156 188.973C57.7176 189.407 57.3836 189.82 57.0078 190.203L56.0469 191.188C55.8749 191.363 55.7653 191.531 55.707 191.703L55.3086 192.922C55.144 193.411 54.9264 193.879 54.6758 194.328L54.3711 194.879L54.0664 195.442C53.9755 195.605 53.9099 195.803 53.8906 196.063L53.832 196.754L53.7852 197.446C53.7411 198.047 53.6177 198.628 53.3984 199.18L53.1523 199.778L52.918 200.375C52.6299 201.1 52.1242 201.667 51.4883 202.074L50.8789 202.461L50.2695 202.86C50.06 202.994 49.9545 203.122 49.8945 203.235L49.5898 203.809L49.2969 204.371C49.0333 204.875 48.6978 205.331 48.3008 205.742L47.8555 206.211L47.3984 206.68C47.1941 206.892 47.0272 207.122 46.8945 207.371L46.6016 207.946L46.2969 208.508C46.2579 208.582 46.2042 208.737 46.2266 209.047L46.2852 209.844L46.3438 210.629C46.4043 211.462 46.2083 212.318 45.5938 213.008L44.7266 213.969C44.4712 214.256 44.2369 214.556 44.0117 214.86L43.625 215.375L43.25 215.891C42.9456 216.302 42.6039 216.691 42.2305 217.051L41.7617 217.508L41.2812 217.965C41.1899 218.054 41.1283 218.157 41.0938 218.317L40.9531 218.985L40.8008 219.641C40.6287 220.435 40.2053 221.108 39.5586 221.598L39.0195 222.008L38.4688 222.418C38.4016 222.469 38.3806 222.51 38.3633 222.594L38.2227 223.262L38.0938 223.93C37.9553 224.619 37.6497 225.25 37.1797 225.781L36.7461 226.274L36.3242 226.754C36.0179 227.1 35.6938 227.433 35.3633 227.762L34.9062 228.231L34.4375 228.688C34.1567 228.967 33.8928 229.26 33.6406 229.555L33.2188 230.035L32.7969 230.528C32.4724 230.907 32.122 231.268 31.7422 231.606L31.25 232.051L30.7578 232.485C30.5482 232.671 30.3764 232.875 30.2539 233.094L29.9492 233.656L29.6328 234.219C29.6167 234.25 29.5743 234.344 29.6094 234.571L29.7266 235.321L29.8438 236.082C29.9715 236.912 29.8358 237.72 29.457 238.461L29.082 239.176L28.9766 239.375L29.2344 239.539L29.5625 239.739L29.75 239.539L30.2656 238.953C30.7874 238.355 31.4494 237.915 32.2461 237.735L32.9258 237.582L33.5938 237.43C33.7542 237.394 33.8287 237.344 33.875 237.289L34.2852 236.797L34.6953 236.317C35.0161 235.937 35.367 235.581 35.7383 235.25L36.207 234.817L36.6875 234.395C36.8469 234.253 36.9869 234.077 37.0977 233.844L37.3906 233.235L37.6719 232.625C37.9246 232.092 38.2513 231.602 38.6445 231.172L39.0664 230.703L39.5 230.235C40.0284 229.657 40.7135 229.313 41.4453 229.145L42.1836 228.969L42.9219 228.805C43.1125 228.761 43.1577 228.702 43.168 228.688L43.5547 228.172L43.9297 227.645C44.2254 227.244 44.5549 226.873 44.9023 226.52L45.793 225.606C45.893 225.504 46.0008 225.346 46.0742 225.09L46.4727 223.707L46.7539 223.039C46.8808 222.825 47.0387 222.62 47.2344 222.442C47.6175 222.093 48.072 221.898 48.5234 221.797L49.2734 221.633L50.0117 221.457C50.0243 221.454 50.0379 221.448 50.0469 221.446L50.3047 220.906L50.5977 220.297C50.943 219.569 51.5106 219.016 52.2383 218.68L52.8477 218.387L53.3867 218.141L53.5391 217.403L53.6797 216.653C53.8454 215.785 54.3143 215.005 55.1562 214.543L55.7422 214.227L56.3281 213.899C56.48 213.815 56.5867 213.71 56.668 213.571L56.9961 213.008L57.3242 212.434C57.775 211.658 58.496 211.193 59.3164 210.992L60.043 210.817L60.4648 210.711L60.5469 210.09L60.6406 209.258C60.7027 208.762 60.899 208.218 61.332 207.77C61.7752 207.311 62.3327 207.101 62.8555 207.043L63.6289 206.961L64.2148 206.891L64.3789 206.387L64.6133 205.672L64.9062 205.028C65.2698 204.427 65.837 203.985 66.582 203.797L67.2734 203.621L67.9531 203.457C68.1123 203.417 68.1833 203.358 68.2344 203.293L68.6445 202.778L69.043 202.262C69.4359 201.765 69.9179 201.359 70.4727 201.055L71.0352 200.739L71.6094 200.434C71.972 200.235 72.3338 200.032 72.6875 199.824L73.2383 199.496L73.7891 199.18C74.2191 198.928 74.6713 198.7 75.1367 198.512L75.7344 198.278L76.332 198.031C76.5542 197.941 76.7451 197.811 76.918 197.645L77.8555 196.754C78.2741 196.351 78.7429 196.016 79.2617 195.758L79.8359 195.477L80.4102 195.184C80.7663 195.007 81.1187 194.825 81.4648 194.633L82.0273 194.317L82.5781 194.012C82.6589 193.967 82.781 193.869 82.918 193.625L83.293 192.957L83.668 192.301L84.0898 191.715C84.2597 191.534 84.4556 191.368 84.6875 191.235C85.1529 190.968 85.6577 190.874 86.1406 190.895L86.8672 190.93L87.6055 190.953C87.6839 190.957 87.7231 190.957 87.7344 190.953C87.7399 190.952 87.7519 190.946 87.7695 190.93L88.7539 190.039L89.1875 189.711C89.5229 189.498 89.952 189.308 90.4414 189.313L91.2148 189.477L91.5781 189.641L91.9531 189.793C92.7014 190.108 93.1268 190.751 93.3711 191.293L93.6289 191.879L93.8867 192.453C93.8874 192.455 93.93 192.548 94.1797 192.676L94.8828 193.039L95.5977 193.403C96.0351 193.628 96.4597 193.984 96.7344 194.504C97.011 195.03 97.0583 195.585 96.9805 196.086L96.8633 196.848L96.7461 197.598C96.6922 197.944 96.7014 198.208 96.7461 198.406L96.8984 199.039L97.0391 199.66C97.0848 199.86 97.1714 200.044 97.3086 200.223L97.707 200.75L98.1055 201.266C98.5294 201.816 98.8062 202.451 98.9023 203.141L98.9844 203.785L99.0547 204.313C99.0768 204.329 99.1115 204.356 99.1602 204.383L99.9102 204.793L100.66 205.215C101.261 205.548 101.806 206.05 102.066 206.75L102.23 207.512L102.266 208.18L102.301 208.836C102.325 209.258 102.354 209.679 102.395 210.09L102.465 210.735L102.523 211.379C102.583 211.98 102.548 212.593 102.418 213.196L102.266 213.887L102.113 214.59L102.535 215.129L102.98 215.668C103.449 216.257 103.728 216.961 103.766 217.731L103.801 218.375L103.824 219.02C103.849 219.529 103.835 220.041 103.777 220.555L103.707 221.223L103.637 221.739C103.646 221.748 103.658 221.762 103.672 221.774L104.914 222.852C105.495 223.354 105.972 223.985 106.18 224.762L106.344 225.395L106.508 226.016C106.662 226.593 106.723 227.188 106.684 227.785L106.637 228.43L106.602 229.086C106.574 229.502 106.554 229.919 106.543 230.328L106.52 230.973L106.508 231.617C106.501 231.899 106.529 232.176 106.602 232.449L106.777 233.082L106.941 233.703C107.135 234.434 107.078 235.173 106.836 235.871L106.613 236.528L106.379 237.196C106.312 237.388 106.317 237.524 106.344 237.629L106.508 238.25L106.66 238.871C106.721 239.11 106.833 239.369 107.012 239.645L107.41 240.254L107.797 240.852C108.22 241.501 108.441 242.245 108.371 243.043L108.312 243.699L108.254 244.344C108.216 244.765 108.177 245.189 108.148 245.61L108.113 246.254L108.066 246.899C108.033 247.383 107.965 247.866 107.879 248.352L107.773 249.008L107.656 249.664C107.59 250.037 107.544 250.404 107.527 250.766L107.504 251.41L107.469 252.055C107.457 252.328 107.49 252.599 107.562 252.864L107.727 253.485L107.902 254.106C107.979 254.388 108.093 254.684 108.266 254.985L108.617 255.582L108.957 256.192C109.244 256.692 109.471 257.21 109.625 257.75L109.977 258.992C110.122 259.505 110.22 260.035 110.258 260.563L110.352 261.828C110.415 262.711 110.074 263.499 109.602 264.149L109.098 264.84L108.887 265.121L109.027 265.239L109.602 265.742C110.022 266.113 110.401 266.487 110.727 266.856L111.137 267.336L111.488 267.723C111.498 267.723 111.511 267.724 111.523 267.723L112.238 267.676L112.156 266.914C112.088 266.346 112.046 265.805 112.051 265.309L112.062 264.688V264.055C112.068 263.532 112.127 263.011 112.238 262.496L112.379 261.875L112.508 261.242C112.658 260.549 112.998 259.933 113.445 259.391L113.926 258.793L114.418 258.207C114.592 257.996 114.631 257.855 114.641 257.774L114.711 257.141L114.793 256.508C114.796 256.484 114.797 256.366 114.652 256.121L114.254 255.442L113.844 254.75C113.439 254.065 113.213 253.268 113.363 252.418L113.48 251.785L113.586 251.153C113.686 250.59 113.871 250.046 114.125 249.524L114.418 248.914L114.723 248.305C114.868 248.006 114.958 247.712 115.016 247.426L115.145 246.793L115.273 246.172C115.36 245.743 115.446 245.311 115.543 244.883L115.684 244.25L115.836 243.629C115.912 243.292 115.957 242.951 115.977 242.61L116.012 241.977L116.047 241.332C116.067 240.99 116.059 240.643 116.023 240.289L115.965 239.645L115.895 238.989C115.833 238.37 115.888 237.757 116.059 237.16L116.234 236.539L116.422 235.918C116.466 235.765 116.469 235.599 116.422 235.403L116.258 234.746L116.105 234.078C115.874 233.112 116.164 232.223 116.75 231.524L117.242 230.938L117.488 230.621L117.184 230.176L116.703 229.473C116.203 228.746 115.916 227.822 116.246 226.836L116.445 226.215L116.656 225.594C116.822 225.101 117.028 224.619 117.277 224.153L117.605 223.555L117.922 222.957C118.033 222.748 118.088 222.553 118.098 222.36L118.121 221.715L118.156 221.071C118.174 220.719 118.167 220.355 118.133 219.981L118.074 219.313L118.004 218.645C117.909 217.617 118.383 216.775 119.082 216.184L119.68 215.668L120.148 215.258L120.008 214.789L119.809 214.074C119.607 213.376 119.569 212.648 119.773 211.93L119.949 211.309L120.125 210.699C120.27 210.193 120.468 209.694 120.711 209.223L121.297 208.074C121.52 207.642 121.777 207.219 122.047 206.809L122.41 206.258L122.762 205.707C122.763 205.696 122.767 205.657 122.75 205.578L122.598 204.84L122.434 204.102C122.255 203.288 122.34 202.44 122.82 201.688L123.184 201.137L123.535 200.586C123.801 200.171 124.088 199.765 124.402 199.379L125.246 198.348C125.453 198.095 125.613 197.83 125.738 197.563L126.277 196.414C126.459 196.027 126.643 195.639 126.828 195.254L127.109 194.68L127.379 194.117C127.606 193.645 127.881 193.191 128.199 192.77L128.586 192.254L128.973 191.75C129.138 191.532 129.27 191.291 129.359 191.035L129.57 190.426L129.781 189.828C129.881 189.543 129.953 189.223 129.992 188.867L130.062 188.176L130.145 187.485C130.22 186.793 130.444 186.137 130.848 185.563L131.223 185.035L131.586 184.508C132.008 183.909 132.587 183.475 133.238 183.172L134.598 182.539C134.777 182.456 134.917 182.376 135.008 182.317C135.08 182.269 135.117 182.243 135.125 182.235L135.734 181.578L136.062 181.285C136.411 181.044 136.828 180.922 137.258 180.934C137.759 180.948 138.188 181.139 138.5 181.321L139.109 181.684L139.52 181.918L140.141 181.531L140.844 181.086L141.5 180.758C141.742 180.675 142.006 180.623 142.285 180.617C142.859 180.606 143.374 180.796 143.797 181.098L144.969 181.942C145.331 182.2 145.695 182.429 146.047 182.645L146.621 183.008L147.195 183.36C147.325 183.439 147.432 183.46 147.547 183.453L148.859 183.36C149.345 183.328 149.829 183.331 150.312 183.348L150.957 183.371L151.613 183.395C152.137 183.414 152.653 183.479 153.16 183.594L153.781 183.735L154.414 183.875C155.118 184.037 155.729 184.393 156.242 184.883L156.758 185.375L157.25 185.832L157.941 185.739L158.645 185.645C159.529 185.516 160.394 185.745 161.082 186.36L161.586 186.805L162.09 187.262C162.38 187.521 162.673 187.752 162.969 187.953L163.508 188.317L164.035 188.68H164.234L164.996 188.551L165.746 188.434L166.508 188.41C166.767 188.439 167.035 188.511 167.293 188.633C167.809 188.879 168.173 189.274 168.418 189.699L168.805 190.356L169.18 191.024C169.199 191.057 169.215 191.08 169.227 191.094L169.859 191.235L170.492 191.364C171.213 191.515 171.854 191.867 172.367 192.395L172.824 192.864L173.164 193.227C173.18 193.225 173.2 193.231 173.223 193.227L174.055 193.063L174.887 192.91C175.575 192.78 176.328 192.834 176.973 193.227L177.57 193.731L178.016 194.235L178.461 194.727C178.728 195.029 179.009 195.314 179.293 195.582L179.762 196.039L180.242 196.485L180.254 196.496C180.265 196.5 180.312 196.509 180.406 196.508H181.156L181.906 196.496L182.621 196.567C182.86 196.624 183.097 196.716 183.324 196.848C183.554 196.981 183.753 197.147 183.922 197.328L184.344 197.914L184.695 198.571L185.047 199.215C185.153 199.408 185.244 199.463 185.293 199.485L185.879 199.742L186.465 200.012C186.681 200.11 186.945 200.174 187.262 200.199L188.668 200.317C189.444 200.379 190.167 200.672 190.754 201.219L191.715 202.11C191.92 202.302 192.142 202.453 192.383 202.567L192.957 202.848L193.543 203.117C194.144 203.401 194.66 203.81 195.078 204.324L195.5 204.852L195.934 205.379L195.957 205.403L195.969 205.414C195.979 205.417 195.999 205.423 196.027 205.426L196.742 205.485L197.445 205.543C198.126 205.603 198.774 205.807 199.355 206.176L200.434 206.856C200.759 207.062 201.031 207.217 201.254 207.324L201.688 207.535L201.863 207.617L202.109 207.489L202.566 207.242C202.592 207.228 202.623 207.206 202.66 207.137L203.176 206.176C203.228 206.077 203.287 205.886 203.316 205.555L203.387 204.84L203.445 204.137C203.459 203.981 203.427 203.92 203.398 203.879L202.648 202.801C202.519 202.616 202.364 202.466 202.168 202.344L201.043 201.641C200.571 201.348 200.137 201.005 199.754 200.61L198.863 199.696C198.559 199.381 198.257 199.057 197.961 198.735L197.539 198.266L197.105 197.797C196.845 197.513 196.568 197.24 196.285 196.977L195.816 196.543L195.359 196.11C195.265 196.022 195.103 195.922 194.82 195.852L194.094 195.676L193.355 195.489C192.855 195.364 192.358 195.103 191.984 194.645C191.62 194.197 191.469 193.674 191.422 193.192L191.34 192.371L191.258 191.563C191.253 191.512 191.24 191.479 191.234 191.457L190.754 191.141L190.215 190.789C189.807 190.521 189.414 190.23 189.043 189.922L188.059 189.102C187.864 188.94 187.618 188.797 187.32 188.68L186.008 188.164C185.086 187.801 184.492 187.061 184.273 186.137L184.109 185.41L183.934 184.684C183.848 184.322 183.732 184.021 183.594 183.77L183.277 183.184L182.961 182.61C182.845 182.399 182.697 182.236 182.527 182.106L182.023 181.719L181.508 181.321C181.185 181.072 180.859 180.822 180.523 180.582L179.469 179.832C179.153 179.607 178.813 179.396 178.461 179.188L177.887 178.836L177.301 178.496C176.815 178.209 176.374 177.866 175.977 177.477L175.508 177.02L175.039 176.574C174.343 175.893 174.128 174.991 174.172 174.137L174.219 173.317L174.23 172.778L173.82 172.637L173.082 172.379C172.214 172.072 171.487 171.436 171.219 170.446L171.055 169.789L170.879 169.145C170.792 168.821 170.671 168.526 170.527 168.266L170.223 167.715L169.918 167.153C169.846 167.021 169.719 166.878 169.496 166.731L168.898 166.332L168.289 165.934C167.544 165.441 167.052 164.703 166.941 163.789L166.859 163.11L166.777 162.418C166.714 161.891 166.694 161.355 166.707 160.813L166.719 160.098L166.73 159.594L166.133 159.289L165.418 158.914C164.982 158.685 164.541 158.334 164.27 157.801C163.994 157.259 163.974 156.69 164.07 156.184L164.352 154.684C164.449 154.177 164.57 153.681 164.727 153.313L164.855 153.008L164.984 152.692C165.204 152.176 165.604 151.861 165.945 151.684C166.276 151.512 166.63 151.427 166.941 151.379L167.609 151.285L168.277 151.18C168.512 151.144 168.696 151.063 168.852 150.957L169.379 150.606L169.906 150.242C170.201 150.042 170.49 149.815 170.773 149.563L171.277 149.117L171.77 148.684C172.174 148.324 172.607 148.001 173.07 147.735L173.633 147.418L174.195 147.09C174.607 146.854 175.03 146.642 175.461 146.446L176.633 145.906C176.982 145.747 177.334 145.572 177.676 145.379L178.238 145.063L178.812 144.735C179.327 144.444 179.875 144.242 180.453 144.125L181.098 143.996L181.73 143.867C182.411 143.73 183.101 143.772 183.77 143.949L185.199 144.324H185.258L185.797 143.961L186.359 143.574C186.963 143.16 187.658 142.931 188.398 142.918L189.688 142.895C190.189 142.886 190.696 142.917 191.199 142.977L191.855 143.047L192.477 143.117C192.488 143.111 192.529 143.108 192.57 143.071L193.695 142.063C194.305 141.518 195.077 141.171 195.957 141.196L196.602 141.207L197.246 141.231C197.83 141.247 198.411 141.352 198.98 141.535L199.648 141.746L200.316 141.969C200.57 142.05 200.779 142.053 200.949 142.028L201.582 141.946L202.215 141.852C202.321 141.836 202.474 141.777 202.684 141.606L203.27 141.125L203.844 140.656C204.348 140.243 204.947 139.973 205.602 139.93L206.281 139.965L206.938 140.071L207.594 140.188C207.739 140.212 207.859 140.189 207.992 140.129L209.211 139.59C209.86 139.297 210.553 139.18 211.262 139.262L211.918 139.332L212.562 139.414C212.88 139.451 213.193 139.453 213.488 139.414L214.121 139.321L214.754 139.239C215.261 139.172 215.774 139.156 216.289 139.18L216.945 139.215L217.59 139.239C217.864 139.251 218.127 139.226 218.387 139.156L219.008 138.981L219.629 138.817C219.967 138.725 220.311 138.603 220.648 138.453L221.258 138.184L221.855 137.914C222.315 137.711 222.789 137.541 223.262 137.399L223.883 137.211L224.492 137.024C224.942 136.888 225.375 136.776 225.781 136.696L226.309 136.59L226.754 136.508L226.953 136.239L227.223 135.864C227.357 135.673 227.536 135.38 227.762 134.973L227.832 134.821L227.715 134.797C227.12 134.676 226.547 134.483 226.039 134.199L225.523 133.906L224.996 133.625C224.792 133.511 224.557 133.424 224.281 133.367L223.66 133.239L223.027 133.11C222.575 133.017 222.127 132.897 221.68 132.77L220.438 132.418C220.083 132.317 219.718 132.24 219.359 132.184L218.738 132.09L218.105 131.985C217.872 131.948 217.62 131.953 217.344 132.008L216.676 132.149L216.02 132.278C215.358 132.411 214.691 132.391 214.039 132.207L212.797 131.856C212.309 131.718 211.826 131.542 211.355 131.328L210.746 131.059L210.148 130.778C209.99 130.706 209.84 130.689 209.68 130.707L209.023 130.778L208.367 130.86C207.766 130.929 207.162 130.891 206.574 130.754L205.332 130.473C204.984 130.392 204.632 130.329 204.277 130.297L203.012 130.18C202.322 130.117 201.678 129.885 201.102 129.512L200.504 129.125L199.918 128.739C199.892 128.722 199.869 128.719 199.859 128.715V128.703C199.856 128.703 199.832 128.711 199.812 128.715L199.156 128.867L198.488 129.02C198.066 129.117 197.638 129.219 197.211 129.336L195.875 129.711C195.082 129.928 194.274 129.854 193.531 129.477L192.934 129.172L192.324 128.867C192.105 128.756 191.899 128.702 191.691 128.692L191.047 128.656L190.402 128.633C189.979 128.613 189.554 128.591 189.125 128.574L187.812 128.528C187.17 128.502 186.55 128.341 185.973 128.059L185.387 127.778L184.801 127.485C184.273 127.227 183.781 126.89 183.336 126.489L182.82 126.02L182.457 125.703L181.789 125.973L181.016 126.289C180.548 126.477 179.963 126.581 179.352 126.406C178.731 126.229 178.286 125.822 177.992 125.387L177.559 124.731L177.113 124.074C177.087 124.036 177.068 124.007 177.055 123.992L176.457 123.946L175.789 123.875C174.945 123.792 174.232 123.396 173.691 122.774L173.223 122.246L172.766 121.719C172.618 121.549 172.484 121.476 172.367 121.438L171.77 121.239L171.16 121.039C170.864 120.943 170.54 120.878 170.188 120.84L169.52 120.758L168.84 120.688C168.298 120.629 167.769 120.519 167.258 120.36L166.625 120.172L166.004 119.973C165.574 119.839 165.143 119.7 164.715 119.551L164.094 119.328L163.473 119.117C162.607 118.816 162.018 118.177 161.668 117.406L161.352 116.703L161.117 116.199H160.543L159.77 116.211C159.261 116.215 158.57 116.078 158.059 115.496C157.57 114.94 157.503 114.269 157.531 113.797L157.625 112.133C157.663 111.486 157.771 110.867 157.953 110.305L158.152 109.696L158.352 109.074C158.438 108.808 158.479 108.537 158.48 108.266V107.621L158.492 106.989C158.495 106.341 158.632 105.713 158.902 105.125L159.172 104.528L159.453 103.93C159.466 103.901 159.486 103.85 159.441 103.707L159.23 103.016L159.008 102.336C158.725 101.431 158.873 100.506 159.453 99.7346L160.332 98.5627V98.5159L160.215 97.8245L160.098 97.1448C159.978 96.4275 160.053 95.7026 160.344 95.0237L160.602 94.4377L160.848 93.8401C161.044 93.3814 161.28 92.937 161.539 92.5042L161.879 91.9417L162.207 91.3792C162.381 91.0882 162.526 90.7873 162.629 90.4885L162.828 89.8909L163.039 89.2932C163.212 88.7913 163.441 88.3093 163.719 87.8518L164.059 87.2893L164.387 86.7385C164.43 86.6673 164.461 86.5754 164.445 86.3987L164.328 84.9924C164.248 84.0875 164.542 83.2452 165.195 82.6018L165.699 82.1213L166.191 81.6292C166.336 81.4854 166.396 81.3529 166.426 81.2307L166.73 79.9885C166.846 79.5151 166.993 79.0476 167.164 78.594L167.387 78.0081L167.609 77.4104C167.816 76.8632 168.109 76.3562 168.477 75.8987L168.887 75.3831L169.297 74.8792C169.468 74.6667 169.595 74.4411 169.684 74.1995L170.129 73.0042C170.266 72.6289 170.395 72.244 170.516 71.8557L170.703 71.2346L170.902 70.6252C170.991 70.3418 171.044 70.0171 171.066 69.6526L171.113 68.9377L171.148 68.2229C171.201 67.3424 171.589 66.5578 172.297 65.9963L172.836 65.5745L173.363 65.1526C173.643 64.9307 173.889 64.6935 174.09 64.4495L174.5 63.9456L174.91 63.4534C175.083 63.2426 175.216 63.0081 175.32 62.7502L175.566 62.1526L175.812 61.5432C175.973 61.1448 176.131 60.7455 176.293 60.3479L176.539 59.7385L176.785 59.1409C176.966 58.6975 177.162 58.2603 177.383 57.8401L177.688 57.2776L177.98 56.7151C178.208 56.2825 178.463 55.8617 178.742 55.4612L179.105 54.9338L179.469 54.4182C179.868 53.8447 180.403 53.4056 181.016 53.0823L181.672 52.7307L182.316 52.3909C182.621 52.2301 182.853 52.0534 183.02 51.8752L183.453 51.4065L183.898 50.926C184.05 50.7635 184.163 50.5799 184.238 50.3635L184.449 49.7424L184.672 49.1331C184.757 48.8899 184.806 48.5902 184.812 48.2307L184.824 47.4924L184.848 46.7424C184.861 46.0474 185.007 45.3671 185.34 44.7502L185.949 43.6252C186.232 43.1014 186.599 42.636 187.039 42.2307L187.531 41.7854L188.012 41.3284C188.203 41.1529 188.354 40.9652 188.457 40.7542L189.02 39.6057C189.416 38.7971 190.106 38.2865 190.871 38.0002L191.621 37.719L192.055 37.5432L192.031 37.0979L191.973 36.301C191.921 35.6286 191.972 34.9336 192.242 34.2971L192.688 33.2659C192.786 33.0352 192.854 32.7835 192.898 32.5159L192.945 32.2229L192.664 32.1643C192.584 32.1477 192.533 32.1398 192.512 32.1409L192.066 32.3167L191.633 32.4807C191.597 32.4948 191.484 32.5517 191.316 32.7268L190.906 33.1604L190.484 33.594C189.868 34.2385 189.049 34.4909 188.27 34.5549L186.582 34.6956C186.455 34.7059 186.384 34.7209 186.359 34.7307L185.996 35.2112L185.598 35.7034C185.52 35.8014 185.427 35.9782 185.375 36.2893L185.246 37.051L185.117 37.8245C184.996 38.5487 184.715 39.2357 184.215 39.8049L183.371 40.7659C183.02 41.1641 182.627 41.5253 182.199 41.844L181.168 42.6174C180.831 42.8683 180.49 43.1221 180.16 43.3792L179.656 43.7776L179.152 44.1643C178.94 44.3293 178.755 44.5241 178.602 44.7502L177.875 45.8284C177.494 46.3912 176.994 46.8406 176.398 47.1643L175.227 47.7971C174.902 47.9739 174.602 48.1713 174.324 48.3831L173.809 48.7698L173.293 49.1682C173.084 49.3281 172.903 49.5206 172.754 49.7424L172.402 50.2815L172.039 50.8088C171.741 51.2524 171.4 51.6693 171.02 52.0393L170.105 52.9299C169.686 53.337 169.203 53.6704 168.676 53.9377L168.078 54.2424L167.469 54.5471C167.41 54.5778 167.376 54.6085 167.34 54.6995L167.082 55.344L166.836 55.9885C166.562 56.6849 166.1 57.2788 165.465 57.6995L164.926 58.051L164.387 58.4143C164.004 58.6676 163.61 58.9069 163.215 59.1409L162.664 59.4807L162.184 59.7502C162.177 59.7729 162.167 59.8068 162.16 59.8557L161.949 61.5198C161.842 62.3702 161.469 63.2137 160.648 63.7581L159.57 64.4846C158.941 64.9012 158.221 65.0906 157.484 65.1292L156.688 65.1643L156.195 65.1877L156.09 65.6682L155.891 66.4417C155.697 67.2231 155.287 67.9588 154.566 68.4573L153.512 69.1838C153.061 69.4957 152.575 69.7565 152.059 69.9573L151.449 70.1917L150.828 70.4377C150.447 70.5859 150.075 70.7396 149.715 70.9065L148.543 71.4456C148.262 71.5757 148.005 71.7382 147.77 71.926L147.266 72.3245L146.773 72.7229C146.472 72.9636 146.171 73.2269 145.883 73.4963L145.414 73.9299L144.934 74.3752C144.403 74.8713 143.766 75.1882 143.059 75.3245L142.402 75.4534L141.758 75.5706C141.751 75.5801 141.746 75.5973 141.734 75.6174L141.008 76.9299C140.663 77.548 140.194 78.0808 139.59 78.4651L139.051 78.8049L138.5 79.1565C137.702 79.6629 136.805 79.6924 135.992 79.4963L135.184 79.2971L134.527 79.1448L134.27 79.5081L133.836 80.0823C133.298 80.816 132.539 81.2504 131.68 81.4065L130.895 81.5471L130.098 81.6877C129.66 81.7668 129.107 81.7836 128.562 81.5354C127.972 81.2652 127.603 80.7811 127.414 80.2698L127.191 79.6604L126.957 79.051C126.728 78.4282 126.646 77.7714 126.688 77.1057L126.734 76.3674L126.781 75.6409C126.804 75.2774 126.782 74.9662 126.723 74.7034L126.582 74.0706L126.441 73.4495C126.392 73.2301 126.305 73.026 126.172 72.8401L125.785 72.3127L125.41 71.7854C125.275 71.5981 125.072 71.3868 124.766 71.176L124.121 70.7424L123.488 70.3088C123.084 70.0307 122.724 69.6309 122.516 69.1018C122.308 68.5721 122.3 68.0355 122.41 67.5549L122.586 66.8167L122.75 66.0667C122.835 65.6963 122.865 65.3848 122.844 65.1292L122.785 64.4846L122.727 63.8284C122.718 63.74 122.689 63.6532 122.586 63.5354L122.129 63.0081L121.672 62.4924C121.125 61.8724 120.826 61.1076 120.852 60.2659L120.898 58.9299C120.903 58.7824 120.869 58.6654 120.793 58.5432L120.09 57.4182C119.851 57.0373 119.611 56.6459 119.375 56.2581L119.023 55.6838L118.672 55.1213C118.282 54.4818 118.1 53.7618 118.145 53.012L118.191 52.344L118.227 51.676C118.243 51.3993 118.213 51.1426 118.145 50.9026L117.969 50.2932L117.793 49.6721C117.618 49.0603 117.574 48.4294 117.652 47.7971L117.816 46.4846C117.851 46.2054 117.834 45.9422 117.781 45.6995L117.652 45.0784L117.512 44.4573C117.417 44.0226 117.331 43.583 117.254 43.1448L117.148 42.5237L117.031 41.8909C116.914 41.219 116.972 40.5463 117.172 39.8987L117.383 39.2424L117.5 38.8206L116.949 38.3167L116.316 37.7424C115.931 37.3903 115.575 36.8709 115.496 36.1956C115.418 35.5192 115.653 34.9397 115.953 34.5081L116.434 33.8167L116.75 33.3362L116.516 33.0315L116.059 32.4456C115.657 31.9351 115.344 31.3706 115.145 30.7698L114.934 30.1487L114.723 29.5393C114.403 28.5758 114.672 27.6571 115.156 26.926L115.613 26.2346L116.047 25.5784L115.824 25.1331L115.52 24.5354C115.305 24.1058 115.098 23.6684 114.91 23.2346L114.652 22.6252L114.383 22.0042C114.079 21.3023 114.015 20.5569 114.184 19.8127L114.324 19.1565L114.477 18.5002C114.514 18.333 114.502 18.1909 114.453 18.0549L114.23 17.4456L114.008 16.8245C113.784 16.1986 113.711 15.5399 113.785 14.8792L113.855 14.2346L113.938 13.5901C113.96 13.3949 113.937 13.2066 113.867 13.0159L113.633 12.3948L113.41 11.7737C113.224 11.2714 113.081 10.7611 113 10.2385L112.812 8.9729C112.691 8.18189 112.862 7.42346 113.211 6.74634L113.562 6.06665L113.914 5.39868C113.954 5.32172 113.965 5.26799 113.926 5.15259L113.668 4.41431L113.574 4.15649L113.305 4.21509L112.52 4.36743C111.761 4.51549 110.996 4.48768 110.258 4.26196L109.789 4.10962C109.91 4.21246 110.033 4.33402 110.129 4.49634C110.418 4.98562 110.344 5.46425 110.305 5.65649C110.225 6.03933 110.022 6.36585 109.918 6.52368L109.625 6.95728L109.379 7.32056C109.38 7.33511 109.386 7.35436 109.391 7.37915L109.52 8.0354L109.66 8.69165C109.799 9.3804 109.758 10.0746 109.531 10.7424L109.109 11.9846C108.963 12.4155 108.806 12.8454 108.641 13.2737L108.406 13.8831L108.16 14.5042C108.086 14.6967 108.07 14.8853 108.09 15.0784L108.148 15.7229L108.219 16.3674C108.296 17.1164 108.138 17.8361 107.785 18.4885L107.129 19.7073L107.117 19.7424C107.118 19.7486 107.121 19.7642 107.129 19.7893L107.352 20.4573L107.574 21.1135C107.858 21.9666 107.76 22.8459 107.305 23.6213L106.953 24.219L106.625 24.7698L106.918 25.4026L107.223 26.0823C107.491 26.6864 107.645 27.3259 107.656 27.9807L107.668 28.6135L107.68 29.2581C107.694 30.0648 107.411 30.7944 106.953 31.4143L106.52 32.012L106.215 32.4104L106.508 32.9377L106.895 33.6174C107.134 34.0418 107.297 34.5513 107.258 35.1174C107.218 35.6888 106.985 36.1812 106.672 36.5706L106.191 37.1565L105.723 37.7542C105.569 37.9457 105.539 38.0588 105.535 38.1174L105.5 38.762L105.465 39.3948C105.436 39.9068 105.36 40.4188 105.242 40.9182L105.102 41.5393L104.949 42.1604C104.903 42.3588 104.891 42.5765 104.938 42.8167L105.195 44.1292C105.267 44.5033 105.372 44.8886 105.5 45.2893L105.711 45.9807L105.934 46.6604C106.154 47.3515 106.196 48.0758 106.016 48.7932L105.863 49.4143L105.699 50.0471C105.505 50.8136 105.057 51.4401 104.492 51.9456L103.906 52.4846L103.309 53.012C103.219 53.0924 103.183 53.1504 103.168 53.176L103.156 53.1877L103.098 53.8323L103.039 54.4651C103.023 54.6431 103.048 54.8849 103.156 55.2034L103.648 56.6565C103.904 57.4028 103.952 58.2043 103.66 58.9885L103.438 59.5979L103.203 60.2073C102.908 60.9924 102.341 61.5773 101.68 62.0002L100.977 62.4456L100.66 62.6331L100.859 63.0432L101.223 63.8401C101.427 64.2791 101.573 64.8277 101.48 65.4221C101.381 66.0449 101.046 66.5344 100.625 66.887L100.062 67.3674L99.4883 67.8479C99.2312 68.0638 99.0661 68.2692 98.9609 68.4573L98.6445 69.0198L98.3398 69.5823C98.2097 69.8162 98.1119 70.0624 98.0586 70.3323L97.9297 70.9651L97.8125 71.6096C97.6753 72.3046 97.3566 72.9243 96.8867 73.4495L96.4414 73.9417L95.9961 74.4456C95.8095 74.6545 95.6768 74.8684 95.5859 75.0901L95.3398 75.676L95.1055 76.262C95.0481 76.4026 95.0018 76.6079 95.0234 76.9065L95.082 77.6565L95.1406 78.3948C95.2081 79.3081 94.9066 80.1796 94.1797 80.8206L93.6641 81.2659L93.1602 81.7229C93.028 81.8394 92.9621 81.9554 92.9258 82.0862L92.5742 83.3518C92.4461 83.8128 92.2947 84.2652 92.1289 84.7112L91.8945 85.3206L91.6719 85.9417C91.47 86.4833 91.1887 86.9826 90.8398 87.4417L90.0664 88.4729C89.5349 89.1716 88.78 89.5569 87.9453 89.6448L87.2422 89.7151L86.5508 89.7854C85.9245 89.85 85.3026 89.8153 84.6992 89.6565L84.0781 89.4807L83.4453 89.3167C83.2333 89.2615 83.0145 89.2572 82.7773 89.2932L82.1211 89.387L81.4648 89.4924C80.9994 89.5631 80.5274 89.6142 80.0586 89.6565L78.7461 89.7737C78.0977 89.8321 77.4509 89.7531 76.8359 89.5393L76.2266 89.3284L75.6055 89.1174C75.2869 89.007 74.96 88.9292 74.6328 88.8831L74 88.7893L73.3555 88.6956C72.8641 88.626 72.3791 88.5275 71.9023 88.3909L70.6602 88.0393C69.8896 87.8182 69.275 87.335 68.7969 86.7385L67.8125 85.5198C67.7883 85.4896 67.7666 85.4731 67.7539 85.4612H66.5C66.0404 85.459 65.5793 85.4462 65.1172 85.426L64.4492 85.4026L63.7812 85.3674C63.0919 85.3366 62.4382 85.1431 61.8477 84.7815L61.2969 84.4417L60.7344 84.1018C60.5125 83.9663 60.2754 83.8741 60.0195 83.8206L59.3867 83.6799L58.7422 83.551C57.9385 83.3816 57.2852 82.9319 56.7969 82.3088L56.3516 81.7463L55.918 81.1838C55.6972 80.9021 55.4717 80.68 55.25 80.5159L54.2188 79.7659C54.2134 79.7619 54.1641 79.7053 53.9609 79.719L52.4609 79.8362C51.5852 79.8993 50.7182 79.6371 50.0586 78.9573L49.6016 78.4885L49.1328 78.0081C48.9106 77.7794 48.6788 77.587 48.4297 77.4338L47.8789 77.094L47.3398 76.7659C46.8476 76.464 46.4053 76.0877 46.0156 75.6526L45.5703 75.1604L45.125 74.6565C44.9321 74.4414 44.7237 74.2782 44.5039 74.1526L43.9414 73.8362L43.3906 73.5198C43.0289 73.314 42.6661 73.11 42.3008 72.9104L41.1758 72.301C40.9446 72.1751 40.6792 72.0794 40.3789 72.0198L39.7227 71.8909L39.0547 71.7502C38.4272 71.625 37.8357 71.3845 37.3086 71.0237L36.7812 70.6721L36.2539 70.3088C36.17 70.2519 36.0428 70.1884 35.8086 70.1799L34.3555 70.1331C33.6091 70.1085 32.8894 69.8894 32.2695 69.4299L31.7539 69.0549L31.2383 68.6682C30.7164 68.281 30.2852 67.79 29.9492 67.2268L29.5859 66.6057L29.2109 65.9846C29.1025 65.8029 29.0101 65.7336 28.9414 65.7034L28.3438 65.4573L27.7578 65.1995C27.3767 65.0332 26.9954 64.8655 26.6094 64.7073L25.4141 64.2151C24.9525 64.0259 24.5053 63.8106 24.0781 63.5588L22.9766 62.9026C22.7697 62.7808 22.5875 62.7242 22.4258 62.7034L21.8516 62.6331L21.4414 62.5745L21.2305 62.7971L20.8672 63.1838C20.4445 63.624 19.8839 63.9709 19.2969 64.2502L18.5352 64.6135L18.4531 64.6487L18.4648 64.6604L18.8633 65.3752C18.9426 65.5168 18.993 65.536 19.0508 65.551L19.7773 65.7385L20.5156 65.926C21.2427 66.1148 21.8409 66.5372 22.2148 67.1565L22.5078 67.8479L22.9062 69.2307C22.949 69.3786 22.9966 69.413 23.0234 69.4299L23.5742 69.7815L24.1367 70.1213C24.4857 70.3414 24.8393 70.5591 25.2031 70.7659L25.7891 71.094L26.3633 71.4221C27.2597 71.9314 27.6836 72.7989 27.7812 73.6956L27.8633 74.5042L27.8984 74.8909L28.3555 74.9377L29.1875 75.0198C30.014 75.0993 30.8557 75.4156 31.4492 76.1448L31.8477 76.637L32.2578 77.1292C32.5602 77.5006 32.8365 77.8965 33.1016 78.301L33.4648 78.8401L33.8164 79.3792C34.1721 79.9219 34.4084 80.5364 34.543 81.1838L34.8477 82.6604C34.8925 82.8759 34.9591 82.9276 34.9766 82.9417L35.4688 83.3518L35.9727 83.7502C36.1907 83.9261 36.4514 84.0764 36.7578 84.2073L37.3906 84.4885L38.0234 84.7581C38.5113 84.9665 38.9787 85.2028 39.418 85.4729L39.9805 85.8127L40.543 86.1643C41.1011 86.5083 41.5665 86.9632 41.9258 87.512L42.2773 88.051L42.6406 88.6018C42.9822 89.1246 43.2197 89.706 43.3672 90.3245L43.5312 91.0276L43.707 91.7307C43.7693 91.9917 43.8653 92.1501 43.9531 92.2463L44.375 92.7034L44.7969 93.1721C44.9468 93.3365 45.1481 93.4909 45.418 93.6292L46.6602 94.262C47.1157 94.4951 47.5579 94.7501 47.9844 95.0237L48.5586 95.3987L49.1445 95.7737C50.1136 96.3975 50.4205 97.4201 50.3281 98.387L50.2461 99.219L50.1875 99.7815L50.5859 99.9573L51.3008 100.25C51.9104 100.506 52.4357 100.923 52.7773 101.504L53.0586 102.149L53.4336 103.414L53.9961 105.278L54.1953 105.887C54.3213 106.288 54.4491 106.691 54.582 107.082L55.0039 108.301C55.0457 108.423 55.1224 108.551 55.2852 108.688L55.8125 109.133L56.3516 109.578C57.0288 110.147 57.4133 110.927 57.4414 111.817L57.4531 112.508L57.4648 113.059L58.1328 113.469L58.8125 113.879C58.9946 113.99 59.2061 114.156 59.3984 114.371C59.5905 114.586 59.842 114.947 59.8789 115.449C59.9586 116.549 59.06 117.089 58.8008 117.231L57.5586 117.91C57.3671 118.015 57.2075 118.158 57.0781 118.356L56.6914 118.953L56.293 119.551C55.8272 120.262 55.1362 120.769 54.2656 120.934L53.6211 121.063L52.9648 121.18C52.5699 121.255 52.1866 121.346 51.8164 121.449L50.5742 121.801C50.1726 121.913 49.7729 122.022 49.3789 122.141L48.1602 122.516C47.7713 122.633 47.3814 122.751 47 122.879L45.8047 123.278C45.8405 123.266 45.8582 123.26 45.8398 123.278C45.8137 123.303 45.752 123.375 45.6758 123.524L44.8789 125.071C44.656 125.504 44.3045 125.956 43.7656 126.242C43.2009 126.542 42.5983 126.568 42.0664 126.442L41.3398 126.266L40.6016 126.09C40.2886 126.017 40.056 126.021 39.8867 126.055L39.2656 126.184L38.6445 126.301C38.252 126.379 37.8584 126.475 37.4727 126.571L36.8633 126.723L36.2422 126.875C36.1483 126.899 35.9943 126.957 35.7969 127.156L35.2695 127.696L34.7305 128.235C34.3759 128.592 33.9133 128.89 33.3359 128.985C32.7632 129.078 32.2323 128.946 31.7891 128.739L31.0742 128.41L30.3594 128.071C30.3411 128.062 30.325 128.052 30.3125 128.047L29.7969 128.328L29.1992 128.645C28.6124 128.953 27.9768 129.129 27.3125 129.149L26.6797 129.16L26.0352 129.184C25.7145 129.193 25.3978 129.237 25.0859 129.313L24.4531 129.465L23.832 129.617C23.3851 129.726 22.936 129.821 22.4844 129.899L21.2188 130.11C20.5719 130.22 19.9193 130.184 19.2852 130.016L18.6289 129.84L17.9609 129.664C17.8491 129.635 17.7863 129.642 17.7148 129.676L17.1055 129.969L16.5078 130.25C16.0547 130.466 15.5907 130.653 15.125 130.813L14.5156 131.024L13.8945 131.246C13.2265 131.475 12.532 131.513 11.8438 131.375L11.1758 131.235L10.5195 131.106C10.4371 131.089 10.3774 131.089 10.2852 131.141L9.08984 131.821C8.39001 132.213 7.61094 132.348 6.81641 132.196L6.16016 132.067L5.49219 131.938C5.09414 131.862 4.69942 131.804 4.30859 131.762L3.65234 131.692L3.06641 131.621C3.05206 131.634 3.04043 131.658 3.01953 131.68L1.89453 132.852C1.55955 133.199 1.11542 133.507 0.558594 133.637C-0.00851769 133.769 -0.551529 133.688 -1.02344 133.485L-1.71484 133.192L-2.39453 132.899C-2.6856 132.773 -2.96504 132.708 -3.23828 132.699L-3.94141 132.676L-4.59766 132.653V132.664L-5.07812 133.297L-5.54688 133.93C-5.71525 134.151 -5.7851 134.34 -5.80469 134.516L-5.88672 135.231L-5.95703 135.91L-5.5 136.321L-4.99609 136.789C-4.74667 137.016 -4.49079 137.191 -4.23438 137.328L-3.66016 137.633L-3.09766 137.938C-2.76487 138.115 -2.41678 138.278 -2.05469 138.43L-0.835938 138.946C-0.580701 139.052 -0.325267 139.105 -0.0742188 139.121L0.570312 139.168L1.20312 139.203C1.54729 139.225 1.90102 139.224 2.25781 139.192L2.91406 139.121L3.57031 139.063C4.19681 139.005 4.82126 139.075 5.42188 139.262L6.03125 139.449L6.65234 139.637C6.9057 139.716 7.16125 139.762 7.42578 139.754L8.71484 139.707C9.09986 139.696 9.49445 139.672 9.88672 139.625L10.5312 139.543L11.1875 139.461C11.6882 139.401 12.1908 139.384 12.6875 139.391H13.332L13.9648 139.403C14.526 139.411 15.0889 139.493 15.6289 139.649L16.2383 139.824L16.8594 140.012C17.3663 140.158 17.8665 140.343 18.3477 140.586L18.9453 140.891L19.5547 141.196C19.7266 141.282 19.8804 141.311 20.0352 141.301L20.6797 141.266L21.3242 141.219C21.9276 141.18 22.5253 141.25 23.1055 141.418L24.3477 141.77C24.5454 141.827 24.7515 141.851 24.9805 141.817L25.6367 141.711L26.293 141.617C26.6939 141.557 27.108 141.476 27.5234 141.383L28.1914 141.231L28.8711 141.078L29.6211 141.02C30.3545 141.061 30.9966 141.411 31.4961 141.934L32.0469 142.496L32.4805 142.942L32.9844 142.778L33.6875 142.543C34.4294 142.292 35.2232 142.251 35.9961 142.531L37.2148 142.977C37.9072 143.229 38.4822 143.678 38.9492 144.231L39.4414 144.817L39.6992 145.133L40.25 144.899L41.0234 144.571C41.6391 144.306 42.3439 144.184 43.0391 144.371L43.7305 144.664L44.8555 145.344C45.2656 145.591 45.6724 145.861 46.0625 146.141L46.5898 146.528L47.1289 146.914C47.3454 147.07 47.5707 147.177 47.8086 147.242L48.4297 147.406L49.0508 147.582C49.481 147.701 49.9129 147.823 50.3398 147.957L50.9609 148.156L51.582 148.344C52.397 148.601 53.0071 149.156 53.4219 149.844L53.8086 150.489L54.0781 150.946L54.6641 150.875L55.4375 150.781C56.073 150.704 56.727 150.783 57.3125 151.086L57.875 151.461L58.3672 151.883L58.8594 152.317C59.0951 152.519 59.3507 152.687 59.6211 152.821L60.1953 153.102L60.7812 153.383C61.222 153.6 61.6493 153.851 62.0586 154.121L62.5859 154.473L63.125 154.824C63.6839 155.193 64.1451 155.686 64.5195 156.254L65.3867 157.567C65.8274 158.237 66.0779 159.03 65.9609 159.887L65.8672 160.531L65.7852 161.164C65.6816 161.918 65.3363 162.58 64.8594 163.145L64.3789 163.731L64.0273 164.129L64.2852 164.656L64.6367 165.36C65.0523 166.202 65.1166 167.181 64.5898 168.078L64.2383 168.664L63.8867 169.262C63.7185 169.548 63.6016 169.83 63.5234 170.106L63.3477 170.727L63.1719 171.336C63.0716 171.692 62.9964 172.061 62.9375 172.426L62.7266 173.692C62.6494 174.169 62.5538 174.645 62.4219 175.11L62.2461 175.719L62.0703 176.34C61.9941 176.61 61.9533 176.896 61.9531 177.207V178.543Z" fill="white"/>
</svg>
