<svg width="38" height="48" viewBox="0 0 38 48" fill="none" xmlns="http://www.w3.org/2000/svg">
<path d="M18.5196 1.54524C18.5872 0.818253 19.4128 0.818253 19.4804 1.54524L20.0467 7.64402C20.778 15.5192 25.6372 21.7281 31.8003 22.6626L36.5732 23.3862C37.1423 23.4725 37.1423 24.5275 36.5732 24.6138L31.8003 25.3374C25.6372 26.2719 20.778 32.4808 20.0467 40.3559L19.4804 46.4547C19.4128 47.1818 18.5872 47.1818 18.5196 46.4547L17.9533 40.3559C17.222 32.4808 12.3628 26.2719 6.19967 25.3374L1.42671 24.6138C0.857763 24.5275 0.857763 23.4725 1.42671 23.3862L6.19967 22.6626C12.3628 21.7281 17.222 15.5192 17.9533 7.64402L18.5196 1.54524Z" fill="white"/>
<path d="M18.6484 0.554688C18.7295 0.554431 18.8526 0.557171 19 0.5625L19.8906 0.59375C20.0351 0.598981 20.2643 0.623875 20.4922 0.742188C20.7573 0.880363 20.9969 1.13901 21.0781 1.50781C21.1468 1.82491 21.0689 2.09912 21.0078 2.25C20.9427 2.40996 20.8553 2.55107 20.7734 2.66406L20.4297 3.13281L20.1719 3.47656L20.3438 3.71875L20.6328 4.125C20.8299 4.39825 20.9675 4.73242 20.9766 5.10938C20.9847 5.48151 20.8683 5.81656 20.7031 6.09375L20.4297 6.5625L20.3594 6.67188L20.6797 6.89062L21.2266 7.26562C21.4951 7.44784 21.7758 7.70132 21.9453 8.05469C22.1295 8.4393 22.145 8.85614 22.0156 9.24219L21.8594 9.69531L21.7109 10.1562C21.6096 10.4585 21.5004 10.7754 21.3906 11.1094L21.2266 11.6172L21.0859 12.0391L21.3516 12.3047L21.6953 12.6562C22.0784 13.0419 22.3219 13.5222 22.3828 14.0703L22.4375 14.5391L22.4844 15.0078C22.505 15.1934 22.5602 15.3542 22.6406 15.5L23.0781 16.2969C23.2232 16.5592 23.3725 16.8277 23.5234 17.0938L23.7578 17.4922L23.9844 17.8984C24.0005 17.9269 24.0303 17.9691 24.1484 18.0078L24.6328 18.1641L25.125 18.3281C25.4628 18.439 25.7808 18.5505 26.0781 18.6641L26.5078 18.8281L26.9297 18.9922C27.3727 19.1621 27.7547 19.4364 28.0547 19.8047L28.3359 20.1484L28.6172 20.5C28.7205 20.6268 28.8437 20.7218 28.9766 20.7891L29.7578 21.1797C29.7841 21.193 29.8205 21.2117 29.9219 21.1875L30.3906 21.0703L30.8594 20.9609L31.4375 20.9219C31.6287 20.9433 31.8195 21.0001 32 21.0938C32.3374 21.2694 32.5823 21.5428 32.7578 21.8125L33.1094 22.3516L33.2422 22.5625L33.3828 22.4688L33.875 22.125C34.2334 21.8767 34.668 21.6959 35.1406 21.6953L35.625 21.7578L36.4688 21.9922C36.6373 22.0379 36.9077 22.1173 37.1328 22.2969C37.2555 22.395 37.4282 22.5755 37.5156 22.8516C37.6111 23.154 37.5599 23.4427 37.4531 23.6641L37.2969 23.9922C37.1715 24.2496 36.979 24.4249 36.8516 24.5234C36.7081 24.6343 36.5393 24.7261 36.375 24.8125L35.9688 25.0312L35.5625 25.2422C35.4014 25.3269 35.2242 25.4638 35.0312 25.6641L34.6484 26.0547L34.2734 26.4531C33.9194 26.8205 33.4759 27.1079 32.9453 27.2109L32.5312 27.2891L32.1172 27.375C31.6059 27.4742 31.1018 27.3843 30.6406 27.1953L30.1406 26.9922L29.6484 26.7891C29.4945 26.7264 29.4182 26.7396 29.3828 26.75L28.9531 26.875L28.5156 27.0078C28.3721 27.05 28.251 27.1181 28.1406 27.2188L27.4688 27.8281C27.1328 28.1353 26.7388 28.3577 26.3047 28.5L25.8359 28.6562L25.6094 28.7266L25.625 29.2031L25.6328 29.8125C25.644 30.3453 25.5406 30.9161 25.1719 31.3828L24.6562 32.0391C24.3829 32.3845 24.0332 32.6568 23.6406 32.8672L23.1875 33.1094L22.7422 33.3438L22.6719 33.3984L22.5547 33.8281L22.4297 34.2578C22.4048 34.3478 22.3959 34.4781 22.4453 34.6641L22.5781 35.1641L22.7188 35.6641C22.8196 36.0432 22.7935 36.4626 22.5781 36.8516C22.3766 37.215 22.0614 37.4485 21.7656 37.6016L21.1953 37.8984L20.9219 38.0312L20.9766 38.1328L21.2266 38.625C21.4379 39.0412 21.58 39.4826 21.6094 39.9375L21.6328 40.375L21.6641 40.8047C21.6927 41.2486 21.6173 41.6886 21.4531 42.1016L21.2891 42.5156L21.1172 42.9375C21.0961 42.9905 21.0881 43.0438 21.1172 43.1328L21.2656 43.5859L21.4141 44.0312C21.6231 44.6701 21.4854 45.2955 21.1016 45.8047L20.7969 46.2109L20.4844 46.625C20.381 46.762 20.2856 46.8822 20.2109 46.9688C20.181 47.0034 20.1163 47.0753 20.0391 47.1406C20.0216 47.1558 19.8801 47.2797 19.6641 47.3438C19.5423 47.3795 19.2164 47.4547 18.875 47.2578C18.6487 47.1272 18.5364 46.9374 18.4688 46.7812C18.4188 46.7235 18.3492 46.6393 18.25 46.5312L17.875 46.125L17.5078 45.7266C17.0901 45.2718 16.8494 44.6652 17 43.9844L17.0938 43.5391L17.1953 43.0859C17.248 42.8482 17.2739 42.6167 17.2812 42.3906L17.3125 41.5156C17.3175 41.3612 17.2956 41.2053 17.2344 41.0469L17.0703 40.625L16.9062 40.2109C16.7968 39.9278 16.689 39.6423 16.5859 39.3672L16.4375 38.9609L16.2812 38.5547C16.168 38.2526 16.0725 37.9475 15.9922 37.6406L15.8828 37.2266L15.7734 36.8203C15.7323 36.6628 15.6685 36.5103 15.5703 36.3672L15.0703 35.6484C14.6791 35.0795 14.6967 34.4303 14.8672 33.875L15.0391 33.3203L15.1875 32.8281L14.9688 32.6484L14.6172 32.3438C14.4572 32.2076 14.2732 32.0925 14.0625 32L13.6172 31.8047L13.1641 31.6094C12.8545 31.4731 12.5788 31.2577 12.3828 30.9531C12.1906 30.6537 12.1054 30.3211 12.0859 30.0078L12.0547 29.4531L12.0234 29L11.7656 28.9062L11.3203 28.75C10.9097 28.6001 10.5376 28.3748 10.2188 28.0781L9.89844 27.7734L9.57812 27.4766C9.52913 27.431 9.47626 27.407 9.39062 27.3984L8.9375 27.3516L8.48438 27.3125C8.21503 27.2872 7.95741 27.2714 7.71094 27.2734L7.28906 27.2812H6.85938C6.17307 27.2857 5.64826 26.9126 5.28906 26.4688L4.92188 26.0156L4.6875 25.7188L4.45312 25.8359L3.97656 26.0547C3.64348 26.2097 3.24338 26.2768 2.82812 26.1562C2.43143 26.0403 2.13637 25.791 1.92969 25.5312L1.19531 24.5938C1.06787 24.4332 0.956356 24.294 0.875 24.1797C0.835455 24.1241 0.793444 24.0661 0.757812 24.0078C0.734412 23.9694 0.661554 23.8533 0.617188 23.7109L0.59375 23.6172L0.5625 23.5234C0.506032 23.3422 0.48947 23.1039 0.578125 22.8594C0.663182 22.6256 0.81075 22.4722 0.929688 22.3828C1.1374 22.2272 1.35604 22.185 1.42969 22.1719C1.61566 22.1388 1.81815 22.1407 1.97656 22.1484L2.86719 22.1953C3.25447 22.2145 3.64218 22.2864 4.02344 22.4062L4.48438 22.5469L4.84375 22.6562L5.17969 22.3438L5.5625 21.9844C5.96409 21.6034 6.47272 21.3481 7.0625 21.3359L7.51562 21.3281L7.96094 21.3203H7.97656C7.98064 21.3172 7.99477 21.3034 8.00781 21.2891L8.63281 20.6016C8.97888 20.2212 9.41663 19.969 9.92188 19.8594L10.3672 19.7578L10.8125 19.6641C10.9389 19.6367 11.0287 19.5842 11.1016 19.5156L11.4219 19.2109L11.7422 18.9141C11.9251 18.7407 12.0982 18.5592 12.2578 18.3672L12.5312 18.0312L12.8125 17.6953C12.9166 17.57 12.9974 17.4259 13.0547 17.2578L13.1953 16.8281L13.3438 16.4062L13.5859 15.9375C13.8832 15.53 14.328 15.2988 14.7656 15.1797L15.3672 15.0156L15.5391 14.9609L15.4922 14.8203L15.3047 14.2422C15.1384 13.7351 15.0744 13.1661 15.2734 12.6172L15.4141 12.2188L15.5625 11.8203C15.6278 11.6404 15.6643 11.4527 15.6797 11.2578L15.7188 10.8281L15.75 10.4062C15.7758 10.0763 15.827 9.74928 15.8984 9.42969L15.9844 9.01562L16.0781 8.60938C16.2015 8.05823 16.5429 7.6162 16.9375 7.27344L17.3906 6.88281L17.8359 6.49219C17.8842 6.45011 17.902 6.4147 17.9141 6.39844L17.8984 6.03125L17.875 5.59375C17.8679 5.4448 17.8276 5.26715 17.7344 5.0625L17.5312 4.60938L17.3203 4.15625C17.0653 3.59673 17.0516 2.97732 17.3438 2.40625L17.5625 1.99219L17.6406 1.82812C17.5991 1.68169 17.5767 1.51451 17.6172 1.33594C17.6706 1.10322 17.7987 0.943419 17.8906 0.851562C18.0508 0.691823 18.2204 0.630631 18.2578 0.617188C18.3196 0.594984 18.3712 0.583663 18.3984 0.578125C18.4869 0.56039 18.5702 0.555027 18.5781 0.554688C18.6038 0.553656 18.6284 0.554763 18.6484 0.554688ZM19.1484 43.5234L19.0469 43.9688L18.9531 44.3438C18.9585 44.3507 18.9677 44.3573 18.9766 44.3672L19.3516 44.7734L19.3594 44.7812L19.5 44.6094L19.3672 44.2031L19.2188 43.75C19.1893 43.6595 19.1669 43.5681 19.1484 43.4766C19.1452 43.4915 19.1518 43.5085 19.1484 43.5234ZM18.6953 8.39062L18.25 8.78125C18.1523 8.86596 18.0937 8.9382 18.0625 8.98438C18.0488 9.00507 18.0433 9.02176 18.0391 9.03125L18.0312 9.03906L17.9375 9.45312L17.8516 9.86719C17.8013 10.0925 17.7608 10.3254 17.7422 10.5625L17.7109 10.9844L17.6797 11.4141C17.6505 11.7864 17.5722 12.1497 17.4453 12.5L17.2969 12.8984L17.1562 13.2969C17.1555 13.2997 17.128 13.3872 17.2031 13.6172L17.3984 14.1953L17.5859 14.7656C17.6972 15.1046 17.7536 15.5823 17.5 16.0391C17.2497 16.4889 16.8215 16.69 16.4844 16.7812L15.8906 16.9453L15.2031 17.1328L15.0938 17.4688L14.9453 17.8984C14.812 18.291 14.6154 18.6504 14.3516 18.9688L14.0703 19.3047L13.7969 19.6406C13.5859 19.8945 13.3578 20.1392 13.1172 20.3672L12.7969 20.6641L12.4766 20.9688C12.1271 21.2989 11.7083 21.5157 11.2422 21.6172L10.7891 21.7109L10.3438 21.8125C10.2546 21.8322 10.1811 21.8664 10.1094 21.9453L9.79688 22.2891L9.48438 22.6406C9.09841 23.064 8.58538 23.3092 8 23.3203L7.55469 23.3281L7.10156 23.3359C7.0894 23.3359 7.04243 23.3384 6.94531 23.4297L6.5625 23.7969L6.17969 24.1562C6.14071 24.1932 6.08785 24.2165 6.04688 24.25L6.11719 24.3125L6.48438 24.7578L6.84375 25.2109C6.87252 25.2465 6.89825 25.2668 6.91406 25.2812H7.27344L7.69531 25.2734C8.01397 25.2709 8.33971 25.2891 8.67188 25.3203L9.125 25.3594L9.57812 25.4062C10.0903 25.4551 10.5571 25.6545 10.9375 26.0078L11.2578 26.3125L11.5859 26.6172C11.6973 26.7201 11.8346 26.804 12.0078 26.8672L12.4453 27.0312L12.8906 27.1875C13.217 27.307 13.5112 27.5235 13.7188 27.8359C13.8184 27.9868 13.8902 28.145 13.9375 28.3047L14.0156 28.7812L14.0547 29.3281L14.0781 29.8281L14.4141 29.9766L14.8594 30.1719C15.2428 30.3399 15.5989 30.5597 15.9141 30.8281L16.2656 31.125L16.625 31.4297C16.8995 31.6635 17.0993 31.9793 17.1797 32.3516C17.2561 32.7071 17.2085 33.0539 17.1172 33.3516L16.9453 33.9062L16.7812 34.4609C16.7669 34.5078 16.7529 34.5412 16.75 34.5625L16.9688 34.8672L17.2109 35.2266C17.44 35.5583 17.6092 35.9235 17.7109 36.3125L17.8203 36.7188L17.9297 37.1328C17.9923 37.372 18.0664 37.6118 18.1562 37.8516L18.3047 38.2578L18.4609 38.6719C18.561 38.9389 18.667 39.209 18.7734 39.4844L18.9375 39.9062L19.0938 40.3281C19.249 40.7297 19.3263 41.1483 19.3125 41.5781L19.2969 42.0156V42.1016L19.4297 41.7812L19.5938 41.3594C19.6527 41.211 19.6727 41.0735 19.6641 40.9375L19.6406 40.5L19.6094 40.0625C19.6008 39.9384 19.5563 39.7647 19.4375 39.5312L19.1875 39.0391L18.9453 38.5547C18.771 38.2121 18.6707 37.7485 18.8672 37.2734C19.0484 36.8363 19.4067 36.5753 19.7031 36.4219L20.2734 36.125L20.7031 35.8984L20.6484 35.6797L20.5156 35.1797C20.3886 34.7032 20.3742 34.2095 20.5078 33.7266L20.7422 32.8672C20.9042 32.2818 21.2955 31.8556 21.7969 31.5859L22.25 31.3438L22.6953 31.1016C22.8967 30.9935 23.015 30.8865 23.0859 30.7969L23.3438 30.4688L23.6016 30.1484C23.6103 30.1284 23.637 30.0457 23.6328 29.8516L23.625 29.2422L23.6094 28.6406C23.6024 28.3182 23.6584 27.9467 23.8594 27.6094C24.0722 27.2537 24.3927 27.0232 24.75 26.9062L25.2188 26.75L25.6797 26.6016C25.8665 26.5404 26.007 26.4523 26.1172 26.3516L26.7891 25.7422C27.1246 25.4355 27.517 25.2141 27.9531 25.0859L28.3906 24.9609L28.8203 24.8281C29.3652 24.6681 29.9135 24.7318 30.4141 24.9375L31.3984 25.3438C31.5924 25.4233 31.6936 25.4142 31.7344 25.4062L32.5625 25.25C32.585 25.2456 32.6761 25.2199 32.8281 25.0625L33.1094 24.7578C33.0025 24.7582 32.8879 24.7535 32.7734 24.7266C32.2859 24.6104 31.9709 24.2679 31.7812 23.9766L31.4297 23.4375L31.1094 22.9531L30.8672 23.0156L30.3984 23.1328C29.88 23.259 29.3459 23.2191 28.8516 22.9688L28.4609 22.7656L28.0703 22.5703C27.682 22.3736 27.3455 22.1031 27.0703 21.7656L26.7891 21.4141L26.5 21.0625C26.4223 20.9679 26.3292 20.9046 26.2109 20.8594L25.3672 20.5312C25.1026 20.4302 24.8127 20.3292 24.5 20.2266L24.0078 20.0703L23.5234 19.9062C22.9888 19.7308 22.5315 19.3927 22.2422 18.8828L22.0156 18.4844L21.7891 18.0781C21.6345 17.8058 21.4768 17.5346 21.3281 17.2656L20.8906 16.4688C20.6778 16.0836 20.5487 15.6652 20.5 15.2266L20.4453 14.7578L20.3984 14.2891C20.3898 14.2141 20.3595 14.15 20.2812 14.0703L19.9297 13.7188L19.5859 13.3672C19.3536 13.1333 19.1697 12.8367 19.0938 12.4844C19.0192 12.1353 19.0654 11.7924 19.1641 11.4922L19.3281 10.9922L19.4922 10.4844C19.603 10.1472 19.7099 9.82175 19.8125 9.51562L19.9688 9.0625L20.0312 8.86719L19.5547 8.54688L19.0078 8.17188C18.9975 8.16489 18.9869 8.1557 18.9766 8.14844L18.6953 8.39062Z" fill="black"/>
</svg>
