<svg width="53" height="66" viewBox="0 0 53 66" fill="none" xmlns="http://www.w3.org/2000/svg">
<path d="M26.3328 1.7586C26.4267 0.747134 27.5733 0.747134 27.6672 1.7586L28.4537 10.2439C29.4694 21.2006 36.2183 29.8392 44.7782 31.1392L51.4073 32.146C52.1976 32.2662 52.1976 33.7339 51.4073 33.854L44.7782 34.8608C36.2183 36.1608 29.4694 44.7994 28.4537 55.7561L27.6672 64.2413C27.5733 65.2529 26.4267 65.2529 26.3328 64.2413L25.5463 55.7561C24.5306 44.7994 17.7817 36.1608 9.22176 34.8608L2.59265 33.854C1.80245 33.7339 1.80245 32.2662 2.59265 32.146L9.22176 31.1392C17.7817 29.8392 24.5306 21.2006 25.5463 10.2439L26.3328 1.7586Z" fill="white"/>
<path d="M26.8438 0.578125C27.1192 0.556126 27.4061 0.636105 27.6484 0.820312C27.7766 0.918391 27.8736 1.03084 27.9453 1.14062L28.1016 1.44531L28.2031 1.71875L28.3125 2C28.383 2.18262 28.4661 2.40087 28.5625 2.64844L28.7109 3.01562L28.8516 3.39062C28.983 3.72816 29.0677 4.07853 29.0938 4.4375L29.1172 4.82031L29.1484 5.21094C29.1814 5.67733 29.0709 6.12167 28.8672 6.52344L28.6562 6.92969L28.4531 7.33594C28.444 7.35416 28.4329 7.3656 28.4297 7.375L28.5469 7.74219L28.6641 8.11719C28.7774 8.47927 28.8248 8.85564 28.8047 9.23438L28.7812 9.61719L28.7656 9.96094C28.772 9.97099 28.7814 9.9904 28.8047 10.0156L29.125 10.3672L29.4531 10.7188C29.7481 11.0382 29.9862 11.41 30.1094 11.8359L30.2109 12.2031L30.3203 12.5703C30.4787 13.1207 30.3566 13.6516 30.1328 14.1016L29.9141 14.5547L29.8125 14.75L29.9297 14.8516L30.2734 15.1562C30.551 15.3985 30.8016 15.659 31.0078 15.9375L31.2422 16.25L31.4766 16.5703C31.6758 16.8394 31.8452 17.1282 31.9766 17.4297L32.125 17.7656L32.2734 18.1094C32.505 18.6409 32.4435 19.2001 32.2891 19.6719L32.125 20.1719L31.9609 20.6797C31.9451 20.7286 31.9323 20.7611 31.9297 20.7812L32.1016 21.0938L32.2578 21.3906C32.2751 21.3978 32.3031 21.4119 32.3438 21.4219L32.8594 21.5469L33.3672 21.6719C33.6959 21.7528 34.074 21.9322 34.3281 22.3047C34.5807 22.6756 34.6127 23.0883 34.5703 23.4219L34.5 23.9531L34.4453 24.3594L34.6016 24.4531L34.9531 24.6719C35.2276 24.839 35.4879 25.0189 35.7266 25.2188L36.3203 25.7188C36.6367 25.9838 36.8824 26.3103 37.0625 26.6797L37.25 27.0625L37.2969 27.1641L37.6406 27.1172L38.1719 27.0391C38.5779 26.9776 39.0487 26.9995 39.4609 27.2344L39.8516 27.5469L40.1094 27.8281L40.375 28.1172C40.4695 28.2185 40.5757 28.2887 40.6875 28.3438L41.0234 28.5156L41.3594 28.6797C41.7476 28.8709 42.0686 29.1557 42.3281 29.4922L42.6094 29.8594L42.8672 30.2031L43.2109 30.2188L43.6172 30.2266C43.7669 30.2312 43.9277 30.2109 44.1016 30.1562L44.5156 30.0312L44.9297 29.8984C45.2931 29.7839 45.6644 29.7236 46.0391 29.7266H46.4297L46.8203 29.7344C47.1139 29.7369 47.4055 29.7549 47.6953 29.7891L48.0781 29.8359L48.4609 29.875C48.8994 29.9268 49.3023 30.0943 49.6562 30.3438L50.3594 30.8438C50.5071 30.9478 50.6379 31.0018 50.75 31.0312L51.1172 31.1328L51.4844 31.2266C51.7441 31.2938 52.0104 31.4237 52.2344 31.6484C52.3474 31.7619 52.4393 31.8844 52.5078 32.0156L52.6562 32.4219L52.7344 32.7734L52.8047 33.125C52.8735 33.4396 52.8508 33.7685 52.7109 34.0781C52.5765 34.3743 52.3603 34.5981 52.1484 34.7578L51.7969 35.0234L51.4375 35.2969C51.0976 35.5532 50.7127 35.7381 50.2891 35.8203L49.9062 35.8984L49.5312 35.9688C49.247 36.0236 48.9602 36.0669 48.6719 36.0938L48.2891 36.125L47.9062 36.1641C47.4017 36.211 46.9288 36.0669 46.5156 35.8359L46.0859 35.6016L45.8125 35.4453L45.6562 35.5781L45.3125 35.8516C45.027 36.0794 44.7271 36.2732 44.4062 36.4141L44.0547 36.5703L43.7109 36.7188C43.2183 36.9338 42.7023 36.9174 42.2344 36.7812L41.7891 36.6484L41.3359 36.5234C41.2022 36.4845 41.1487 36.502 41.1328 36.5078L40.3828 36.7734C40.3256 36.7945 40.2721 36.8342 40.2109 36.9141L39.6953 37.5859C39.3955 37.9788 38.9959 38.2577 38.5156 38.3906L37.7188 38.6094C37.5494 38.6561 37.3985 38.7255 37.2656 38.8125L36.9297 39.0312L36.6797 39.1953V39.2109L36.6484 39.7266L36.6172 40.2344C36.5823 40.8015 36.3487 41.409 35.7422 41.7578L35.3984 41.9531L35.0547 42.1562C34.7783 42.3152 34.4759 42.4583 34.1562 42.5859L33.7344 42.75L33.3203 42.9141L33.2109 43.25L33.0859 43.6328C33.0149 43.8485 32.9557 44.0735 32.9141 44.2969L32.8438 44.6953L32.7656 45.0938C32.6927 45.485 32.5479 45.8549 32.3281 46.1875L31.9062 46.8281C31.7402 47.0794 31.5547 47.3267 31.3516 47.5625L31.0781 47.875L30.8125 48.1875C30.6824 48.3387 30.5733 48.498 30.4844 48.6641L30.1094 49.3672C30.0882 49.4075 30.0752 49.4566 30.0859 49.5469L30.1328 49.9688L30.1875 50.3906C30.243 50.8585 30.1674 51.3243 29.9453 51.75L29.7578 52.1016L29.5703 52.4609C29.4866 52.6219 29.4286 52.7857 29.3906 52.9531L29.2188 53.7188C29.1608 53.975 29.0987 54.2344 29.0391 54.4922L28.9531 54.875L28.875 55.1719C28.8828 55.1852 28.8959 55.2026 28.9141 55.2266L29.2266 55.6484L29.5469 56.0625C29.8697 56.487 30.0971 57.0497 29.9609 57.6797L29.8828 58.0547L29.8047 58.4375C29.7569 58.6585 29.7136 58.8793 29.6875 59.1016L29.6484 59.4844L29.6016 59.8672C29.5366 60.4227 29.2369 60.8689 28.875 61.2109L28.5 61.5625L28.3281 61.7266L28.4062 61.8594L28.6484 62.2656C28.8832 62.6713 29.018 63.1167 29.0391 63.5859L29.0547 64.0391L29.0781 64.4922C29.0878 64.71 29.0735 65.2473 28.625 65.6172C28.1439 66.0122 27.5911 65.8815 27.3672 65.8047L26.9688 65.6641L26.5625 65.5234C26.2937 65.4308 25.9816 65.2537 25.7656 64.9297C25.5436 64.5944 25.5037 64.2242 25.5469 63.9141L25.6016 63.5312L25.6562 63.1641C25.6536 63.1576 25.6436 63.1434 25.625 63.1172L25.3672 62.75L25.1094 62.3906C24.8868 62.0774 24.711 61.7392 24.5938 61.3828L24.4766 61.0078L24.3516 60.6328C24.1985 60.1677 24.2033 59.6892 24.3516 59.2344L24.6172 58.4375C24.7166 58.1329 24.8368 57.8255 24.9766 57.5234L25.1641 57.125L25.2031 57.0312L24.9531 56.8359L24.5156 56.4922C24.2548 56.288 23.9658 55.9653 23.8906 55.5C23.814 55.0246 23.9916 54.6229 24.1953 54.3438L24.8203 53.4844C24.8598 53.4303 24.8823 53.3943 24.8906 53.375L24.8359 53.0234L24.7734 52.6328C24.7644 52.5749 24.7375 52.5016 24.6562 52.4062L24.375 52.0703L24.0938 51.7422C23.7312 51.3174 23.5602 50.7917 23.625 50.2266L23.6719 49.8047L23.7031 49.4922L23.4375 49.2656L23.0938 48.9766C22.6601 48.6083 22.4063 48.1003 22.4062 47.5078V46.6641L22.3438 46.3984L22.1484 46.0547L21.9609 45.7188C21.8591 45.5374 21.7389 45.3594 21.6094 45.1953L21.125 44.5859C20.9789 44.4009 20.8293 44.2189 20.6719 44.0469L20.4062 43.7578L20.1484 43.4688C19.8257 43.1162 19.6383 42.6887 19.5625 42.2344L19.4922 41.8047L19.4609 41.6641L19.1953 41.6328L18.6875 41.5625C18.3829 41.524 18.0506 41.4184 17.7656 41.1797C17.4721 40.9331 17.3005 40.6091 17.2266 40.2812L17.125 39.8359L17.0312 39.3906C17.0178 39.3312 16.9991 39.3006 16.9922 39.2891C16.9867 39.28 16.9793 39.2756 16.9766 39.2734L16.6719 39.0391L16.3594 38.7969C16.2747 38.7312 16.1737 38.6796 16.0391 38.6484L15.6328 38.5547L15.2344 38.4609C14.8237 38.366 14.4438 38.1867 14.1172 37.9141L13.5234 37.4141C13.4163 37.3248 13.2992 37.2637 13.1719 37.2188L12.8125 37.0859L12.4453 36.9609C12.2117 36.8785 11.9754 36.7956 11.7422 36.7188L11.0234 36.4844C10.7371 36.3901 10.4563 36.2684 10.1797 36.1328L9.82031 35.9609L9.46875 35.7891C9.28605 35.6995 9.09568 35.6308 8.90625 35.5781L8.53125 35.4688L8.15625 35.3672C7.92499 35.3029 7.69307 35.2466 7.46094 35.1953L6.71094 35.0234H6.70312C6.68761 35.026 6.64261 35.0371 6.57812 35.0703L5.73438 35.5078C5.46187 35.6479 5.13418 35.7407 4.77344 35.7031C4.40697 35.6642 4.09968 35.4979 3.85938 35.2891L3.17188 34.6953C3.16237 34.6871 3.14827 34.6845 3.13281 34.6797C3.11409 34.674 3.07049 34.6604 2.99219 34.6641L1.92969 34.7109C1.82204 34.716 1.69692 34.7218 1.57812 34.7109C1.51894 34.7055 1.4298 34.6977 1.33594 34.6719C1.25909 34.6507 1.07942 34.5898 0.90625 34.4375C0.683554 34.2406 0.513874 33.9053 0.570312 33.5156C0.614862 33.2164 0.772098 33.0227 0.835938 32.9531C0.973499 32.8034 1.14053 32.7108 1.21094 32.6719L1.55469 32.4844L1.89844 32.2891C2.05754 32.2009 2.22416 32.0834 2.39844 31.9297L2.73438 31.6406L3.07031 31.3438L3.41406 31.0938C3.78267 30.8863 4.21126 30.8059 4.66406 30.8984L5.07031 30.9844L5.46875 31.0703C5.49323 31.0754 5.50952 31.071 5.51562 31.0703C5.52028 31.0696 5.53888 31.0674 5.5625 31.0547L5.92188 30.8594L6.28125 30.6719C6.54011 30.5329 6.79905 30.3998 7.0625 30.2812L7.79688 29.9531C8.20192 29.7713 8.63618 29.7002 9.07812 29.75L9.46875 29.7969L9.86719 29.8438C9.91662 29.8491 9.94293 29.8396 9.97656 29.8203L10.3203 29.625L10.6562 29.4219C10.9343 29.2588 11.2239 29.1266 11.5234 29.0234L11.8828 28.8984L12.2344 28.7812C12.4275 28.7149 12.6136 28.6308 12.7969 28.5391L13.1328 28.375L13.4688 28.2031C13.7513 28.0618 14.0485 27.9462 14.3594 27.8594L14.7422 27.7578L15.0938 27.6484L15.2891 27.2969L15.4844 26.9297C15.6735 26.5802 15.9278 26.2703 16.2422 26.0234L16.8203 25.5703C16.9614 25.4596 17.0947 25.3332 17.2109 25.1953L17.4531 24.9062L17.6875 24.625C17.9654 24.2953 18.321 24.0591 18.7109 23.8984L19.1094 23.7344L19.375 23.6172L19.4297 23.3359L19.4922 22.9141C19.5589 22.4957 19.7101 22.0966 19.9688 21.75L20.1953 21.4531L20.4219 21.1484C20.6325 20.8666 20.8859 20.6171 21.1719 20.3984L21.5 20.1484L21.8359 19.8906C21.954 19.8 22.0317 19.7053 22.0859 19.6094L22.2812 19.2656L22.4688 18.9297C22.6246 18.6507 22.8089 18.3794 23.0156 18.125L23.2734 17.8125L23.4844 17.5391L23.4062 17.1172L23.3203 16.6797C23.2543 16.3445 23.2173 16.0156 23.2031 15.6953L23.1797 15.2969L23.1641 14.8984C23.1446 14.4542 23.2406 14.0246 23.4531 13.6328L23.6406 13.2891L23.8359 12.9375C23.8582 12.8954 23.8655 12.862 23.8594 12.8125L23.8047 12.4141L23.75 12.0234C23.6987 11.6346 23.7239 11.2459 23.8281 10.8672L23.9297 10.5L24.0312 10.125C24.0713 9.97929 24.0919 9.82897 24.0859 9.67188L24.0703 9.28906L24.0547 8.89844C24.043 8.59278 24.054 8.2872 24.0859 7.98438L24.1641 7.21875C24.209 6.79384 24.361 6.39615 24.5859 6.03906L24.8125 5.67969L25.0469 5.3125C25.0708 5.27456 25.0766 5.24856 25.0781 5.24219V5.22656L25.0234 4.82812L24.9688 4.4375C24.931 4.16212 24.8999 3.88399 24.875 3.60938L24.8438 3.21875L24.8047 2.83594C24.7765 2.52521 24.7736 1.94899 25.1875 1.51562L25.4688 1.21875L25.8047 0.9375C25.9285 0.858621 26.0647 0.796373 26.2109 0.75L26.3984 0.6875L26.5781 0.632812L26.8438 0.578125ZM26.9531 4.16406L27.0078 4.5625L27.0625 4.95312C27.1013 5.23866 27.0641 5.51178 26.9922 5.77344L27.0781 5.61719C27.1481 5.47926 27.1594 5.39614 27.1562 5.35156L27.0938 4.58594C27.0828 4.43385 27.054 4.27622 26.9922 4.11719L26.9219 3.95312C26.9306 4.02353 26.9434 4.09353 26.9531 4.16406ZM24.4062 47.4609L24.7266 47.7422L25.0703 48.0312C25.5336 48.4256 25.7755 48.9856 25.7031 49.6172L25.6094 50.4453L25.8984 50.7734L26.1797 51.1094C26.4739 51.4549 26.6779 51.8606 26.75 52.3203L26.875 53.1016L26.8906 53.5391C26.8549 53.9647 26.6698 54.3459 26.4375 54.6641L26.125 55.0938L26.0625 55.1719L26.1797 55.2578L26.625 55.6016C26.8636 55.7885 27.1093 56.0595 27.2344 56.4297C27.3686 56.8284 27.3187 57.2282 27.1641 57.5625L26.9766 57.9609L26.7891 58.3672C26.6802 58.6026 26.5893 58.8366 26.5156 59.0625L26.3906 59.4609L26.2578 59.8594C26.2336 59.9347 26.2386 59.973 26.25 60.0078L26.5 60.7578V60.7656C26.5791 60.6516 26.6666 60.5471 26.7578 60.4609L27.1328 60.1094L27.5 59.7578C27.5663 59.6952 27.5977 59.6531 27.6094 59.6328H27.6172L27.6562 59.25L27.7031 58.875C27.7367 58.5884 27.7825 58.299 27.8438 58.0156L27.9297 57.6328L27.9844 57.3281C27.9762 57.3151 27.9679 57.2929 27.9531 57.2734L27.6406 56.8594L27.3203 56.4375C26.9925 56.0058 26.7674 55.4384 26.9141 54.8047L27 54.4219L27.0938 54.0391L27.3516 52.8906L27.4375 52.5156C27.5146 52.1748 27.6343 51.8428 27.7969 51.5312L27.9844 51.1797L28.1719 50.8203C28.1959 50.7734 28.2063 50.7169 28.1953 50.625L28.1484 50.2031L28.0938 49.7812C28.0383 49.3126 28.1164 48.8476 28.3438 48.4219L28.7188 47.7188C28.8795 47.4184 29.0722 47.1355 29.2969 46.875L29.5703 46.5703L29.8359 46.2578C29.9871 46.0825 30.1175 45.9034 30.2344 45.7266L30.4531 45.4062L30.6641 45.0859C30.7283 44.9887 30.778 44.8698 30.8047 44.7266L30.875 44.3281L30.9531 43.9297C31.0111 43.6185 31.0885 43.3084 31.1875 43.0078L31.3125 42.625L31.4453 42.2344L31.625 41.8359C31.8471 41.4757 32.1809 41.218 32.5703 41.0625L32.9922 40.8906L33.4141 40.7266C33.6573 40.6295 33.8714 40.5272 34.0547 40.4219L34.3984 40.2188L34.625 40.0859L34.6562 39.6016L34.6875 39.0859C34.7218 38.5298 34.9407 37.9459 35.5 37.5781L36.1719 37.1406C36.4843 36.936 36.8255 36.7796 37.1875 36.6797L37.9844 36.4609C38.033 36.4471 38.069 36.428 38.1094 36.375L38.3594 36.0391L38.6172 35.7031C38.8965 35.3366 39.2625 35.0586 39.7031 34.8984L40.0781 34.7578L40.4531 34.625C40.935 34.4505 41.4328 34.4661 41.8984 34.6016L42.3438 34.7344L42.7969 34.8594L42.9141 34.8828L43.6016 34.5859C43.7399 34.5254 43.8978 34.4268 44.0703 34.2891L44.7578 33.7422L45.1875 33.4922C45.3438 33.4296 45.513 33.3838 45.6953 33.375C45.8746 33.3665 46.0457 33.3947 46.2031 33.4375L46.6406 33.6172L47.0625 33.8516L47.4922 34.0938C47.6441 34.1783 47.7121 34.1725 47.7188 34.1719L48.1016 34.1328L48.4844 34.1016C48.7067 34.0809 48.9294 34.05 49.1484 34.0078L49.5312 33.9297L49.9062 33.8594C49.9861 33.844 50.0974 33.7985 50.2344 33.6953L50.5938 33.4297L50.7891 33.2656L50.7812 33.2031L50.7578 33.1016L50.6172 33.0625L50.25 32.9688C49.8745 32.8713 49.5225 32.7018 49.2031 32.4766L48.8516 32.2266L48.5 31.9844C48.3855 31.9038 48.2976 31.8756 48.2266 31.8672L47.4609 31.7734C47.2431 31.7478 47.0194 31.7362 46.7969 31.7344L46.4141 31.7266H46.0234C45.8801 31.7254 45.7167 31.7463 45.5312 31.8047L45.1172 31.9375L44.7031 32.0625C44.3288 32.1804 43.9438 32.2387 43.5547 32.2266L43.1484 32.2188L42.75 32.2031C42.1398 32.1841 41.647 31.8814 41.3047 31.4375L41.0234 31.0781L40.7422 30.7109C40.6311 30.5675 40.537 30.5068 40.4766 30.4766L40.1406 30.3047L39.8047 30.1406C39.4684 29.9751 39.1695 29.751 38.9141 29.4766L38.6484 29.1953L38.4766 29.0078L38.4688 29.0156L37.9375 29.0938L37.4062 29.1797C37.1134 29.2239 36.7637 29.2218 36.4219 29.0781C36.0573 28.9246 35.7984 28.6439 35.6406 28.3203L35.2656 27.5547C35.1967 27.4135 35.1192 27.3173 35.0391 27.25L34.7422 27L34.4375 26.75C34.2807 26.619 34.1074 26.4927 33.9141 26.375L33.5625 26.1641L33.2109 25.9453C32.9124 25.7636 32.677 25.4945 32.5469 25.1562C32.4244 24.8361 32.4169 24.5122 32.4531 24.2266L32.5156 23.6953L32.5312 23.5234L32.375 23.4844L31.8672 23.3594C31.3472 23.2313 30.8223 22.9422 30.5234 22.3828L30.3359 22.0391L30.1484 21.6875C29.8572 21.1413 29.898 20.5575 30.0625 20.0547L30.2266 19.5469L30.3906 19.0469C30.4187 18.9611 30.4204 18.9076 30.4219 18.8828L30.2891 18.5703L30.1406 18.2266C30.0731 18.0716 29.9818 17.9126 29.8672 17.7578L29.6328 17.4453L29.3984 17.125C29.291 16.98 29.147 16.8266 28.9609 16.6641L28.6094 16.3594L28.2656 16.0547C28.0143 15.8353 27.8015 15.5241 27.7344 15.125C27.6694 14.736 27.7595 14.3805 27.8984 14.1016L28.125 13.6562L28.3438 13.2109L28.3906 13.0938L28.2891 12.7578L28.1875 12.3906C28.1698 12.3298 28.1192 12.2246 27.9844 12.0781L27.6562 11.7266L27.3359 11.375C26.9818 10.9915 26.7355 10.4927 26.7656 9.90625L26.7891 9.51562L26.8047 9.125C26.812 8.98659 26.8011 8.84867 26.7578 8.71094L26.6328 8.33594L26.5156 7.96094C26.3646 7.47852 26.4273 7.00582 26.6094 6.57812L26.5078 6.74219L26.2812 7.10938C26.1995 7.23926 26.1653 7.34412 26.1562 7.42969L26.0781 8.19531C26.0564 8.40184 26.0467 8.60982 26.0547 8.82031L26.0703 9.21094L26.0859 9.59375C26.0996 9.95287 26.0561 10.3104 25.9609 10.6562L25.8594 11.0312L25.7578 11.3984C25.7269 11.511 25.7168 11.6328 25.7344 11.7656L25.7891 12.1562L25.8359 12.5469C25.8981 13.0157 25.8187 13.4741 25.5938 13.8906L25.3984 14.2422L25.2109 14.5859C25.1729 14.656 25.1603 14.7271 25.1641 14.8125L25.1953 15.6094C25.2047 15.8181 25.2323 16.0485 25.2812 16.2969L25.375 16.7344L25.4609 17.1719C25.5699 17.7254 25.4561 18.2846 25.0781 18.75L24.5625 19.3906C24.4251 19.5599 24.3071 19.734 24.2109 19.9062L23.8359 20.5781C23.6384 20.9319 23.3679 21.2309 23.0469 21.4766L22.7188 21.7344L22.3828 21.9844C22.2279 22.1029 22.1121 22.2253 22.0234 22.3438L21.7969 22.6484L21.5703 22.9453C21.5297 22.9997 21.4914 23.0858 21.4688 23.2266L21.3984 23.6484L21.3359 24.0703C21.2356 24.6962 20.8488 25.182 20.2656 25.4219L19.8672 25.5781L19.4688 25.7422C19.333 25.7984 19.2608 25.8642 19.2188 25.9141L18.9766 26.1953L18.7422 26.4844C18.5384 26.7262 18.3109 26.9454 18.0625 27.1406L17.7656 27.3672L17.4766 27.6016C17.4013 27.6606 17.3166 27.7451 17.2422 27.8828L16.8516 28.6172C16.5987 29.085 16.1929 29.4297 15.6641 29.5781L15.2812 29.6797L14.8984 29.7891C14.7034 29.8436 14.5219 29.9108 14.3594 29.9922L14.0312 30.1641L13.6953 30.3281C13.4325 30.4597 13.1605 30.5765 12.8828 30.6719L12.5312 30.7891L12.1797 30.9141C12.0102 30.9723 11.8341 31.0486 11.6641 31.1484L11.3281 31.3438L10.9922 31.5469C10.5781 31.7896 10.1145 31.8815 9.64062 31.8281L9.25 31.7812L8.85156 31.7422C8.76819 31.7329 8.69746 31.7452 8.61719 31.7812L8.25 31.9453L7.88281 32.1016C7.66285 32.2005 7.44522 32.3124 7.22656 32.4297L6.50781 32.8203C6.06083 33.0602 5.56604 33.1253 5.07031 33.0234L4.66406 32.9453L4.35156 32.875L4.21094 32.9922C4.30265 33.0494 4.39133 33.1135 4.47656 33.1875L4.82812 33.4844L5 33.6328L5.24219 33.5156L5.66406 33.2969C6.10356 33.0703 6.61223 32.9535 7.14062 33.0703L7.89062 33.2422C8.15904 33.3015 8.42879 33.3634 8.69531 33.4375L9.07031 33.5469L9.44531 33.6484C9.75546 33.7347 10.0603 33.8494 10.3516 33.9922L10.7031 34.1641L11.0625 34.3438C11.2585 34.4396 11.4541 34.5219 11.6484 34.5859L12.0078 34.7031L12.375 34.8203C12.6217 34.9016 12.8704 34.9832 13.1172 35.0703L13.4766 35.2031L13.8359 35.3281C14.1905 35.4533 14.516 35.6417 14.8047 35.8828L15.1016 36.1328L15.3984 36.375C15.4681 36.4332 15.5612 36.4864 15.6875 36.5156L16.0859 36.6016L16.4922 36.6953C16.8935 36.7883 17.2672 36.9646 17.5938 37.2188L17.8984 37.4609L18.2109 37.6953C18.6288 38.0208 18.8677 38.4701 18.9766 38.9531L19.0781 39.3984L19.125 39.6016L19.4453 39.6484L19.9453 39.7109C20.2454 39.7489 20.5872 39.8531 20.875 40.1016C21.0252 40.2313 21.1426 40.3796 21.2266 40.5391L21.3906 41.0391L21.4609 41.4766L21.5312 41.9062C21.5516 42.0282 21.5905 42.0869 21.6172 42.1172L22.1484 42.6953C22.3388 42.9034 22.5195 43.121 22.6953 43.3438L22.9375 43.6484L23.1797 43.9609C23.3733 44.2062 23.5503 44.4623 23.7031 44.7344L23.8984 45.0781L24.0859 45.4141C24.3039 45.8022 24.407 46.2333 24.4062 46.6719V47.4609Z" fill="black"/>
</svg>
