<svg width="78" height="100" viewBox="0 0 78 100" fill="none" xmlns="http://www.w3.org/2000/svg">
<path d="M37.9859 2.14975C38.1286 0.61675 39.8715 0.61675 40.0141 2.14975L41.2097 15.0102C42.7535 31.6165 53.0118 44.7094 66.0228 46.6798L76.0991 48.2057C77.3003 48.3878 77.3003 50.6123 76.0991 50.7943L66.0228 52.3202C53.0118 54.2907 42.7535 67.3835 41.2097 83.9897L40.0141 96.8501C39.8715 98.3833 38.1286 98.3833 37.9859 96.8501L36.7903 83.9897C35.2465 67.3835 24.9882 54.2907 11.9771 52.3202L1.90083 50.7943C0.699722 50.6123 0.699722 48.3878 1.90083 48.2057L11.9771 46.6798C24.9882 44.7094 35.2465 31.6165 36.7903 15.0102L37.9859 2.14975Z" fill="black"/>
<path d="M39.4844 0.367188C39.9326 0.483565 40.2647 0.770259 40.4688 1.09375C40.7928 1.6093 40.7661 2.17399 40.75 2.39453L40.7031 2.95703L40.668 3.39062C40.6838 3.41665 40.7091 3.47301 40.7734 3.54297L41.3242 4.12891L41.8633 4.71484C42.3611 5.25612 42.7377 5.89865 42.8945 6.63672L43.0352 7.26953L43.1641 7.90234C43.3666 8.87098 43.0273 9.7422 42.5195 10.4219L42.0039 11.1133L41.6055 11.6172L41.8281 11.9453L42.25 12.543C42.7021 13.2019 42.9375 13.9736 42.8477 14.8047L42.7773 15.4492L42.707 16.1055C42.6914 16.2534 42.7058 16.3889 42.7773 16.5391L43.0703 17.1367L43.3516 17.7344C43.6099 18.2731 43.7828 18.8453 43.8555 19.4336L43.9375 20.0547L44.0078 20.6875C44.0373 20.9266 44.1141 21.1555 44.2305 21.3789L44.5234 21.9531L44.8281 22.5156C45.1288 23.0928 45.2905 23.7176 45.3203 24.3672L45.3438 25.0234L45.3789 25.6797C45.3876 25.8707 45.4335 26.0289 45.5195 26.1719L45.8594 26.7227L46.1875 27.2734C46.4694 27.7376 46.7007 28.2335 46.8672 28.75L47.0547 29.3477L47.2539 29.957C47.3483 30.2497 47.4708 30.5304 47.6289 30.7891L47.9688 31.3281L48.2969 31.8672C48.4874 32.1787 48.6938 32.4823 48.918 32.7695L49.3047 33.2734L49.7031 33.7656C49.8694 33.9786 50.0647 34.1735 50.3008 34.3398L50.8398 34.7148L51.3672 35.0898C51.963 35.5089 52.4063 36.0718 52.6797 36.7422L52.9258 37.3633L53.1836 37.9727C53.2713 38.1877 53.3857 38.3518 53.5234 38.4766L54.4609 39.3203C54.7574 39.5888 55.0547 39.8612 55.3633 40.1172L55.8555 40.5156L56.3477 40.9258C56.5403 41.0852 56.7605 41.2112 57.0039 41.3008L58.1992 41.7461C58.8549 41.9873 59.4201 42.3838 59.875 42.9062L60.3203 43.4219L60.6836 43.832L61.3047 43.75L62.0078 43.6445C62.6654 43.5465 63.3379 43.5783 63.9766 43.7734L65.1484 44.125C65.4725 44.2239 65.8081 44.3032 66.1562 44.3594L66.7773 44.4648L67.3984 44.5586C68.2331 44.6932 68.9096 45.1562 69.4375 45.7305L69.9883 46.3398L70.4102 46.7852L70.832 46.6328L71.5234 46.375C72.1949 46.1236 72.9116 46.0313 73.6328 46.1641L74.2539 46.2812L74.8867 46.3984C75.3555 46.4851 75.9441 46.6918 76.3867 47.1602L76.7734 47.7109L77.125 48.4609C77.4122 49.0648 77.4664 49.7692 77.1602 50.4414L76.9961 50.7812L76.8438 51.1328C76.4709 51.9433 75.6949 52.2976 75.1562 52.4688L74.5469 52.668L73.9258 52.8555C73.1687 53.0954 72.3983 53.0519 71.6758 52.7969L70.9961 52.5625L70.4219 52.3516L69.9297 52.7617L69.3555 53.2188C68.8563 53.622 68.3094 53.943 67.7148 54.1445L67.1055 54.3555L66.4961 54.5547C65.7008 54.8227 64.8986 54.7503 64.1641 54.4727L63.4375 54.2031L63.0742 54.0625L62.8633 54.3789L62.418 55.0117C62.0001 55.6046 61.4496 56.1124 60.7539 56.4062L60.1914 56.6406L59.6172 56.8867C59.3955 56.981 59.1929 57.1073 59.0078 57.2734L58.5391 57.6836L58.082 58.1055C57.7405 58.4119 57.3901 58.7028 57.0273 58.9727L56.043 59.6992C55.5556 60.0613 55.0057 60.3243 54.4141 60.4961L53.7461 60.6836L53.0781 60.8828C52.8868 60.9382 52.784 61.0132 52.7148 61.0938L52.293 61.5742L51.8828 62.0547C51.6522 62.3236 51.4402 62.6119 51.25 62.9102L50.5703 63.9883C50.4152 64.2319 50.2873 64.4944 50.1953 64.7852L49.7969 66.0273C49.4968 66.9774 48.7799 67.5727 47.9688 67.8906L47.207 68.1836L46.832 68.3242L46.8906 68.6875L47.0195 69.4609C47.1757 70.3777 46.9766 71.3192 46.2461 72.0391L45.2617 73C45.1078 73.1522 45.0337 73.3016 44.9922 73.4453L44.8164 74.0547L44.6289 74.6641C44.5319 74.9996 44.4628 75.3471 44.418 75.6953L44.2539 76.9609C44.1583 77.7033 43.8425 78.3689 43.375 78.9297L42.918 79.4805L42.6484 79.7852L42.9531 80.3008L43.3633 81.0156C43.8085 81.784 44.006 82.7204 43.6094 83.6641L43.3516 84.2734L43.0938 84.8711C43.0446 84.988 43.0402 85.1058 43.0703 85.2461L43.2109 85.8906L43.3516 86.5469C43.4847 87.1684 43.4939 87.7985 43.375 88.4219L43.2461 89.0547L43.1289 89.6875C42.9807 90.4558 42.5819 91.1128 42.0625 91.6562L41.5 92.2422L41.0898 92.6523L41.3008 93.0508L41.6406 93.7188C41.9765 94.3843 42.1443 95.1057 42.1211 95.8516L42.0977 96.5781L42.0742 97.3164C42.0564 97.888 41.8215 98.6614 41.0312 99.0859C40.3831 99.4334 39.6958 99.3472 39.2734 99.25L38.3359 99.0273L37.3867 98.8164C36.9381 98.7126 36.4431 98.5213 36.0273 98.1602C35.5717 97.763 35.2948 97.222 35.2422 96.6133L35.1836 95.957L35.125 95.3125C35.0791 94.7783 35.0872 94.2386 35.1484 93.707L35.2188 93.0625L35.3008 92.418C35.3758 91.7667 35.5924 91.1429 35.9102 90.5547L36.2734 89.875L36.5664 89.3125L36.2734 88.8555L35.875 88.2578C35.4938 87.6763 35.2456 87.0248 35.1836 86.3242L35.125 85.6914L35.0781 85.0586C35.029 84.5031 35.0434 83.9403 35.1367 83.3828L35.2539 82.7266L35.3594 82.0703C35.3676 82.0202 35.366 81.9893 35.3125 81.9062L34.9375 81.3203L34.5625 80.7461C34.2029 80.1919 33.9609 79.574 33.8711 78.918L33.7891 78.2969L33.707 77.6641C33.6738 77.4242 33.5905 77.1954 33.4727 76.9727L33.1797 76.4102L32.875 75.8477C32.5328 75.2012 32.4005 74.491 32.4531 73.7734L32.5117 73.082L32.5586 72.3906C32.583 72.0538 32.5673 71.7314 32.5117 71.4297L32.3945 70.7852L32.2773 70.1289C32.2614 70.0442 32.226 69.9717 32.125 69.8828L31.5977 69.4258L31.082 68.9805C30.5595 68.5239 30.1534 67.9596 29.9102 67.3047L29.4648 66.0859C29.4505 66.0474 29.4223 66.0001 29.3008 65.9336L28.6914 65.5938L28.0703 65.2656C27.4109 64.9046 26.8805 64.3677 26.5469 63.6719L26.2656 63.0977L25.9961 62.5117C25.8566 62.2209 25.6849 61.9538 25.4922 61.7031L25.0938 61.1992L24.707 60.6836C24.4409 60.3383 24.1752 59.98 23.9102 59.6172L23.1367 58.5625C23.0029 58.3794 22.8434 58.2349 22.6562 58.1289L22.082 57.8125L21.5195 57.4961C21.1266 57.2746 20.7407 57.0381 20.3594 56.8047L19.8086 56.4766L19.2578 56.1367C19.1411 56.0658 18.9956 56.0214 18.7891 56.0195L18.1094 56.0078H17.418C16.5238 55.9998 15.737 55.629 15.1445 54.9883L14.6523 54.4492L14.3008 54.0625L13.7969 54.2031L13.1055 54.3906C12.4495 54.5686 11.7719 54.6074 11.1016 54.4727L9.85938 54.2148C9.53668 54.15 9.19918 54.1244 8.86328 54.1211L8.21875 54.1094H7.58594C6.85328 54.1022 6.1664 53.8756 5.55859 53.4883L4.97266 53.1133L4.375 52.7383C4.18718 52.6191 4.0342 52.5688 3.89453 52.5625L3.25 52.5391L2.61719 52.5156C2.21962 52.4983 1.7524 52.3988 1.32812 52.1172C0.88131 51.8196 0.594562 51.3921 0.449219 50.9336L0.285156 50.4297L0.132812 49.9258C-0.181376 48.9337 0.194459 48.0549 0.742188 47.4531L1.65625 46.4453C2.15447 45.8992 2.78508 45.5196 3.51953 45.3555L4.14062 45.2148L4.77344 45.0742C5.33507 44.9496 5.90767 44.9131 6.48438 44.957L7.14062 45.0039L7.78516 45.0625C8.12043 45.0881 8.45209 45.0795 8.76953 45.0391L10.0352 44.875C10.7277 44.7864 11.4114 44.8858 12.0625 45.1211L12.7656 45.3789L13.1406 45.5078L13.457 45.1211L13.9375 44.5117C14.4986 43.8039 15.3101 43.3168 16.3047 43.3281L16.9727 43.3398L17.6523 43.3516C17.8337 43.3536 17.9586 43.3097 18.0625 43.2461L18.6133 42.9062L19.1523 42.5664C19.3912 42.4179 19.6132 42.2439 19.8086 42.0273L20.2422 41.5352L20.6758 41.0547C21.2223 40.4503 21.9322 40.1129 22.7031 39.9883L23.4297 39.8711L24.1445 39.7539C24.4476 39.705 24.6958 39.6073 24.8945 39.4844L25.457 39.1328L26.0312 38.7812C26.2014 38.676 26.3308 38.5428 26.4297 38.3711L26.7578 37.7969L27.0977 37.2109C27.371 36.7363 27.6859 36.291 28.0469 35.8867L28.4805 35.4062L28.9258 34.9141C29.1743 34.6355 29.4039 34.3417 29.6172 34.0352L30.3672 32.957C30.5326 32.7189 30.6603 32.4547 30.7539 32.1719L30.9648 31.5508L31.1641 30.918C31.2258 30.7313 31.2578 30.4946 31.2227 30.1914L31.0586 28.7148C30.9818 28.0504 31.0163 27.3808 31.2227 26.7461L31.4102 26.1602L31.6094 25.5742C31.8585 24.8081 32.3686 24.2124 32.9805 23.7695L33.6133 23.3125L34.2109 22.8672L34.1875 22.3516L34.1406 21.6836C34.0927 20.8475 34.3667 20.0774 34.8672 19.4336L35.3008 18.8711L35.7461 18.2969C35.7816 18.2507 35.793 18.2267 35.793 18.2266L35.7812 18.2031L35.6875 17.5352L35.582 16.8789C35.5063 16.3724 35.473 15.8646 35.4648 15.3672L35.4414 14.0781C35.4307 13.4051 35.5855 12.7613 35.875 12.1562L36.168 11.5352L36.4258 10.9961L36.0625 10.3164L35.6992 9.64844C35.2912 8.88319 35.1669 7.99811 35.5 7.11719L35.9688 5.875C36.1131 5.4931 36.2492 5.10953 36.3672 4.72656L36.7422 3.48438C36.7643 3.41275 36.7792 3.35299 36.7891 3.30859V3.29688L36.7539 3.20312L36.6602 2.91016C36.5392 2.54651 36.4791 1.98387 36.8008 1.43359C37.098 0.929018 37.5572 0.707109 37.8438 0.613281L38.5 0.402344L38.9219 0.320312C39.0873 0.3068 39.2819 0.315412 39.4844 0.367188ZM38.125 94.0586C38.0875 94.3879 38.0846 94.7217 38.1133 95.0547L38.1719 95.6992L38.1836 95.9102L39.0039 96.1094L39.0977 96.1328L39.1211 95.7578C39.1282 95.5279 39.083 95.3064 38.9688 95.0781L38.6289 94.3984L38.2891 93.7305C38.2467 93.6466 38.2297 93.5502 38.1953 93.4609L38.125 94.0586ZM38.5703 13.4453C38.4693 13.6562 38.4384 13.8484 38.4414 14.0312L38.4648 15.3203C38.4708 15.6788 38.5016 16.0521 38.5586 16.4336L38.6523 17.1016L38.7578 17.7695C38.8872 18.6453 38.638 19.4602 38.1133 20.1367L37.668 20.7109L37.2344 21.2734C37.1476 21.3851 37.1374 21.4484 37.1406 21.5078L37.1758 22.1758L37.2227 22.8555C37.2819 23.9025 36.7613 24.7328 36.0039 25.2812L35.3711 25.7383L34.7383 26.207C34.5076 26.3745 34.4636 26.4797 34.457 26.5L34.2695 27.0859L34.082 27.6836C34.0334 27.8346 33.9982 28.0558 34.0352 28.375L34.1172 29.1133L34.2109 29.8516C34.2899 30.534 34.227 31.2168 34.0117 31.8672L33.8125 32.4883L33.6016 33.1211C33.4184 33.6741 33.1597 34.1909 32.8281 34.668L32.0781 35.7461C31.7947 36.1534 31.4828 36.5479 31.1523 36.918L30.7188 37.3984L30.2852 37.8906C30.0656 38.1367 29.8717 38.4114 29.6992 38.7109L29.3594 39.2852L29.0312 39.8711C28.6839 40.4742 28.205 40.9699 27.6133 41.3359L26.4648 42.0391C25.9022 42.3867 25.283 42.6125 24.625 42.7188L23.8984 42.8359L23.1836 42.9414C22.9946 42.9719 22.9338 43.0355 22.9023 43.0703L22.0352 44.0312C21.6527 44.4554 21.2179 44.8211 20.7344 45.1211L20.1953 45.4609L19.6445 45.7891C19.0259 46.1727 18.3354 46.3598 17.6172 46.3516L16.9492 46.3398L16.3281 46.3281C16.3183 46.3385 16.3074 46.3569 16.293 46.375L15.8008 46.9844L15.3203 47.6055C15.0199 47.9843 14.5984 48.3364 14.043 48.5078C13.4765 48.6815 12.9144 48.6222 12.4375 48.4492L11.7461 48.1914L11.043 47.9453C10.7688 47.8461 10.5699 47.8334 10.4219 47.8516L9.15625 48.0156C8.63111 48.0828 8.09613 48.0915 7.5625 48.0508L6.90625 48.0039L6.26172 47.9453C5.97088 47.9231 5.68588 47.9442 5.41797 48.0039L4.17578 48.2852C4.08033 48.3064 3.98125 48.3518 3.87109 48.4727L3.41406 48.9766L3.07422 49.3281L3.14453 49.5273L3.37891 49.5391L4.02344 49.5742C4.73597 49.6054 5.39854 49.8287 5.99219 50.207L7.16406 50.957C7.33969 51.0691 7.4844 51.1082 7.60938 51.1094H8.25391L8.89844 51.1211C9.41989 51.1263 9.93657 51.1713 10.4453 51.2734L11.0664 51.4023L11.6992 51.5312C11.8599 51.5628 12.061 51.5665 12.3203 51.4961L13.0117 51.3086L13.6914 51.1211L14.4062 51.0156C14.6484 51.0128 14.895 51.0487 15.1445 51.1211C15.3931 51.1934 15.6219 51.2948 15.8242 51.4258L16.375 51.8828L16.8555 52.4219L17.3477 52.9492C17.3698 52.9732 17.3856 52.9895 17.3945 52.9961H17.4062C17.4087 52.9966 17.4223 53.0076 17.4414 53.0078H18.1328L18.8242 53.0195C19.5339 53.0266 20.215 53.2067 20.8281 53.582L21.3789 53.9102L21.9297 54.25C22.2789 54.4637 22.6353 54.6794 22.9961 54.8828L24.1211 55.5156C24.6875 55.835 25.1673 56.268 25.5508 56.793L25.9492 57.3203L26.3359 57.8477C26.5872 58.1916 26.8351 58.5301 27.0859 58.8555L27.8594 59.8633C28.1834 60.2835 28.461 60.7422 28.6914 61.2227L28.9727 61.7969L29.2539 62.3828C29.2912 62.459 29.354 62.5422 29.5117 62.6289L30.1328 62.9688L30.7422 63.3086C31.4416 63.6915 31.9903 64.27 32.2773 65.043L32.7227 66.2617C32.7808 66.4183 32.8801 66.5695 33.0508 66.7188L33.5781 67.1758L34.0938 67.6211C34.6835 68.1365 35.0747 68.8077 35.2188 69.5898L35.3477 70.2344L35.4648 70.8906C35.5689 71.4559 35.5895 72.0316 35.5469 72.6133L35.4531 73.9961C35.4385 74.1981 35.4781 74.3337 35.5352 74.4414L35.8281 75.0039L36.1328 75.5664C36.4137 76.097 36.5905 76.6716 36.6719 77.2656L36.7656 77.8867L36.8477 78.5195C36.8728 78.697 36.9416 78.8888 37.082 79.1055L37.457 79.6914L37.832 80.2656C38.2783 80.9533 38.4621 81.7511 38.3242 82.5742L38.207 83.2188L38.1016 83.875C38.0486 84.1915 38.0409 84.4986 38.0664 84.7891L38.1133 85.4219L38.1719 86.0664C38.1853 86.2107 38.2403 86.3867 38.3828 86.6055L38.7812 87.2148L39.1797 87.8125C39.4437 88.2152 39.611 88.6934 39.625 89.2188C39.6312 89.471 39.6015 89.717 39.543 89.9453L39.8945 89.582C40.1166 89.3494 40.173 89.1951 40.1875 89.125L40.4219 87.8594C40.4625 87.6471 40.4625 87.4257 40.4102 87.1797L40.1289 85.8672C39.9731 85.1375 40.0377 84.4019 40.3281 83.7109L40.5859 83.1016L40.7969 82.5859C40.7888 82.5687 40.7885 82.5416 40.7734 82.5156L40.3633 81.8125L39.9414 81.0977C39.7035 80.6865 39.5314 80.177 39.5547 79.6094C39.5794 79.0255 39.8084 78.5208 40.1406 78.1211L40.6094 77.5586L41.0664 77.0078C41.2156 76.8289 41.2632 76.6911 41.2773 76.5859L41.3594 75.9531L41.4414 75.3086C41.5058 74.8095 41.6066 74.3147 41.7461 73.832L41.9336 73.2227L42.1094 72.6133C42.3043 71.9389 42.6686 71.343 43.1641 70.8555L43.6445 70.375L44.0664 69.9648L43.9375 69.1914L43.7969 68.4062C43.711 67.8976 43.7548 67.2977 44.0781 66.7422C44.3984 66.1953 44.8883 65.8705 45.3555 65.6875L46.1172 65.3945L46.8672 65.1016C46.9114 65.0843 46.9412 65.0541 46.9609 65.043L47.1367 64.5039L47.3359 63.8828C47.5053 63.3469 47.7389 62.8417 48.0391 62.3711L48.7188 61.293C48.9847 60.876 49.2872 60.4851 49.6094 60.1094L50.0195 59.6172L50.4297 59.1367C50.9125 58.5737 51.5373 58.2029 52.2344 58L52.9023 57.8008L53.5703 57.6133C53.8674 57.5272 54.0864 57.4068 54.25 57.2852L55.2344 56.5586C55.5216 56.3449 55.8038 56.1133 56.0781 55.8672L56.5469 55.457L57.0039 55.0352C57.4349 54.6488 57.9245 54.346 58.457 54.1211L59.0195 53.875L59.5938 53.6406C59.6557 53.6137 59.7845 53.5322 59.957 53.2891L60.4023 52.6445L60.8594 52.0117L61.3867 51.4375C61.601 51.2681 61.8561 51.1297 62.1484 51.0391C62.4445 50.9479 62.7403 50.9249 63.0156 50.9453L63.7773 51.1211L64.5039 51.3906L65.2188 51.6602C65.4233 51.7376 65.5134 51.7256 65.5352 51.7188L66.1445 51.5078L66.7539 51.3086C66.9662 51.2366 67.203 51.1014 67.4688 50.8867L68.043 50.4297L68.6172 49.9609C68.8027 49.8111 68.999 49.684 69.2031 49.5859C68.8644 49.4184 68.5658 49.2152 68.3359 48.9648L67.7852 48.3672L67.2344 47.7578C67.1327 47.6471 67.0505 47.5896 67 47.5586C66.953 47.5305 66.9217 47.524 66.918 47.5234L66.2969 47.4297L65.6758 47.3242C65.1961 47.2468 64.7275 47.136 64.2695 46.9961L63.6836 46.8203L63.0977 46.6328C62.9532 46.5887 62.7445 46.5659 62.4531 46.6094L61.7383 46.7148L61.0352 46.832C60.0825 46.9741 59.1709 46.6692 58.5156 45.918L58.0586 45.3906L57.6133 44.875C57.4652 44.7049 57.3163 44.6132 57.168 44.5586L56.5703 44.3359L55.9609 44.1133C55.4016 43.9073 54.8839 43.6143 54.4258 43.2344L53.9453 42.8242L53.4531 42.4258C53.1106 42.1417 52.7746 41.8451 52.4453 41.5469L51.5078 40.7031C51.0195 40.2609 50.6545 39.7177 50.4062 39.1094L50.1484 38.4883L49.9023 37.8789C49.8399 37.7259 49.7577 37.6187 49.6445 37.5391L49.1055 37.1641L48.5781 36.7891C48.1068 36.4573 47.6887 36.0689 47.3359 35.6172L46.9492 35.1133L46.5508 34.6211C46.2564 34.2442 45.9921 33.8458 45.7422 33.4375L45.4023 32.8984L45.0742 32.3594C44.791 31.8964 44.5614 31.4005 44.3945 30.8828L44.207 30.2734L44.0078 29.6641C43.9133 29.3712 43.7816 29.0963 43.6211 28.832L43.293 28.2812L42.9531 27.7305C42.5993 27.1465 42.4099 26.5002 42.3789 25.8203L42.3555 25.1641L42.3203 24.5078C42.3102 24.2842 42.2505 24.0917 42.1562 23.9102L41.5703 22.7617C41.2911 22.2254 41.1052 21.6501 41.0312 21.0508L40.9609 20.4297L40.8789 19.7969C40.848 19.5474 40.7798 19.2936 40.6562 19.0352L40.3633 18.4375L40.082 17.8398C39.7721 17.1935 39.6412 16.4927 39.7188 15.7773L39.7891 15.1328L39.8594 14.4766C39.8628 14.4421 39.8694 14.377 39.7773 14.2422L39.3555 13.6445L38.9453 13.0352C38.9079 12.9805 38.8851 12.9169 38.8516 12.8594L38.5703 13.4453ZM72.5781 49.1875L71.8867 49.4453L71.5469 49.5625L71.9922 49.7266L72.6836 49.9727C72.8658 50.0363 72.9617 50.0157 73.0234 49.9961L73.6328 49.8086L74.2305 49.6094L74.2656 49.5391L74.2891 49.4805L74.2422 49.375L74.2188 49.3281L73.7148 49.2344L73.082 49.1172C72.9696 49.0972 72.812 49.1002 72.5781 49.1875ZM38.7695 6.94141L38.5352 7.5625L38.3125 8.13672C38.3153 8.14816 38.3208 8.17955 38.3477 8.23047L38.7109 8.91016L39.0742 9.57812C39.1215 9.66688 39.1408 9.76788 39.1797 9.85938L39.6016 9.30859L40.1172 8.62891C40.2002 8.51795 40.2057 8.44556 40.2109 8.42969L40.0938 7.89062L39.9648 7.25781C39.9439 7.16079 39.8705 6.99542 39.6484 6.75391L39.1094 6.15625L39.0508 6.09766C38.9574 6.37732 38.8747 6.66339 38.7695 6.94141Z" fill="white"/>
</svg>
