<svg width="282" height="221" viewBox="0 0 282 221" fill="none" xmlns="http://www.w3.org/2000/svg">
<path d="M141 2C217.215 2 279 46.1 279 100.5C279 154.9 217.215 199 141 199C116.76 199 93.9807 194.537 74.1836 186.703L27.0693 219.322L25.7021 217.897L55.8311 178.008C23.6634 159.975 3 131.96 3 100.5C3 46.1 64.7847 2 141 2Z" fill="white"/>
<path d="M138.316 0.078125C138.891 0.0870976 139.431 0.268476 139.91 0.558594L140.32 0.804688C140.393 0.760366 140.448 0.702866 140.508 0.675781C140.824 0.531832 141.157 0.479214 141.41 0.453125L141.973 0.394531L142.547 0.335938C143.113 0.278247 143.675 0.323274 144.223 0.476562L144.785 0.640625L145.348 0.792969C145.604 0.865119 145.856 0.904888 146.098 0.910156L146.648 0.921875L147.211 0.933594C147.506 0.940035 147.809 0.926481 148.113 0.886719L148.676 0.816406L149.25 0.734375C149.829 0.659262 150.411 0.706032 150.973 0.863281L152.074 1.16797C152.185 1.19896 152.295 1.20105 152.426 1.16797L153.574 0.886719C154.216 0.723521 154.871 0.726213 155.508 0.921875L156.059 1.09766L156.609 1.26172C156.911 1.35448 157.213 1.42561 157.512 1.47266L158.074 1.56641L158.625 1.64844C158.953 1.69999 159.281 1.74228 159.609 1.76562L160.172 1.80078L160.734 1.84766C161.133 1.87595 161.532 1.91342 161.93 1.96484L163.055 2.10547C163.322 2.13977 163.595 2.14907 163.875 2.12891L164.449 2.08203L165.023 2.04688C165.376 2.02122 165.733 1.9879 166.09 1.94141L166.664 1.85938L167.238 1.78906C167.909 1.70176 168.573 1.80878 169.184 2.09375L169.711 2.33984L170.25 2.58594C170.607 2.75251 170.962 2.92164 171.316 3.08984L171.855 3.34766L172.383 3.59375C172.474 3.6365 172.553 3.65263 172.652 3.64062L173.238 3.55859L173.824 3.48828C174.242 3.43489 174.66 3.39548 175.078 3.37109L175.664 3.33594L176.238 3.30078C176.831 3.26636 177.416 3.36041 177.973 3.57031L179.051 3.96875C179.402 4.10155 179.756 4.23929 180.105 4.36719L180.633 4.55469L181.16 4.75391C181.283 4.79901 181.43 4.82116 181.605 4.80078L182.191 4.73047L182.789 4.66016C183.642 4.56118 184.416 4.84291 185.027 5.38672L185.508 5.82031L185.988 6.24219C186.186 6.41817 186.364 6.51413 186.516 6.57031L187.57 6.96875C187.739 7.03073 187.924 7.05392 188.133 7.05078H188.719L189.305 7.03906C189.871 7.02955 190.425 7.11477 190.957 7.30859L191.484 7.50781L192.012 7.69531C192.34 7.81509 192.677 7.92155 193.008 8.02344L193.547 8.19922L194.074 8.36328C194.316 8.43754 194.575 8.4851 194.848 8.50391L195.434 8.53906L196.008 8.57422C196.582 8.61337 197.131 8.76643 197.648 9.01953L198.164 9.26562L198.68 9.52344C198.741 9.55242 198.826 9.57442 198.973 9.55859L199.594 9.48828L200.203 9.41797C200.812 9.35035 201.423 9.40419 202.008 9.60547L203.086 9.98047C203.716 10.1987 204.248 10.5836 204.68 11.0703L205.102 11.5508L205.523 12.0195C205.738 12.261 205.959 12.4587 206.168 12.6055L207.105 13.2617C207.19 13.3213 207.282 13.3582 207.41 13.3672L207.996 13.4141L208.594 13.4492C209.114 13.4859 209.619 13.5923 210.105 13.7656L210.633 13.9531L211.172 14.1406C211.605 14.2953 212.025 14.4883 212.426 14.7148L212.918 14.9961L213.398 15.2656C213.557 15.3551 213.74 15.4226 213.949 15.4531L214.535 15.5352L215.109 15.6172C215.573 15.6842 216.029 15.7946 216.469 15.9336L217.02 16.0977L217.559 16.2734C218.165 16.4659 218.699 16.8082 219.141 17.2578L219.551 17.6797L219.973 18.1133C220.243 18.3888 220.521 18.6585 220.793 18.9219L221.637 19.7422L221.648 19.7539H221.66C221.661 19.7544 221.678 19.7623 221.719 19.7656L222.328 19.8125L222.938 19.8477C223.458 19.8837 223.972 19.9817 224.461 20.1406L225 20.3164L225.551 20.5039C226.221 20.7221 226.771 21.1294 227.191 21.6758L227.941 22.6367C228.082 22.8193 228.224 22.9429 228.363 23.0234L228.844 23.3047L229.336 23.5859C229.664 23.7763 229.994 23.9756 230.32 24.1719L230.801 24.4531L231.281 24.7461C231.515 24.8868 231.763 25.0136 232.031 25.1094L232.57 25.2969L233.121 25.4844C233.735 25.704 234.261 26.0791 234.68 26.5742L235.43 27.4648C235.47 27.5125 235.519 27.5498 235.605 27.5703L236.18 27.7109L236.766 27.8398C237.209 27.9451 237.646 28.0746 238.066 28.2266L239.168 28.625C239.711 28.822 240.204 29.1158 240.633 29.5039L241.477 30.2773C241.795 30.5663 242.101 30.8721 242.391 31.1914L243.164 32.0352C243.455 32.3566 243.725 32.7007 243.984 33.0547L244.336 33.5234L244.676 34.0039C244.722 34.0666 244.777 34.1099 244.875 34.1445L246 34.543C246.716 34.7959 247.289 35.275 247.664 35.9375L247.969 36.4531L248.262 36.9688C248.311 37.056 248.354 37.1089 248.426 37.1445L248.953 37.3906L249.48 37.6484C250.147 37.9746 250.656 38.4993 250.969 39.1602L251.484 40.2617L252.059 40.4727L252.621 40.6836C253.223 40.9105 253.759 41.2721 254.18 41.7734L254.543 42.207L254.906 42.6523C255.011 42.7762 255.147 42.8884 255.328 42.9805L255.855 43.25L256.395 43.5195C257.088 43.8726 257.587 44.4418 257.859 45.1602L258.082 45.7344L258.293 46.3086C258.382 46.5446 258.499 46.7259 258.621 46.8711L258.973 47.3047L259.336 47.7266C259.666 48.1197 259.941 48.557 260.156 49.0273L260.402 49.5547L260.637 50.082C260.706 50.2337 260.802 50.3495 260.918 50.4453L261.352 50.8086L261.797 51.1719C262.076 51.403 262.359 51.6372 262.652 51.8633L263.109 52.2148L263.578 52.5781C263.902 52.8282 264.226 53.0861 264.539 53.3516L265.43 54.1016C265.815 54.4284 266.156 54.7968 266.449 55.2031L266.777 55.6719L267.105 56.1289C267.41 56.5507 267.655 57.008 267.832 57.5L268.23 58.6016C268.352 58.9387 268.479 59.2683 268.617 59.5859L268.84 60.1133L269.062 60.6289C269.192 60.927 269.338 61.2172 269.496 61.4961L270.059 62.4805C270.284 62.8779 270.476 63.2921 270.633 63.7227L270.832 64.2617L271.02 64.7891C271.045 64.8591 271.094 64.9477 271.219 65.0469L271.711 65.4336L272.191 65.8203L272.637 66.2422C273.028 66.7123 273.245 67.2898 273.27 67.9297L273.293 68.5508L273.316 69.1602C273.329 69.501 273.366 69.823 273.422 70.1211L273.527 70.6836L273.621 71.1875C273.63 71.1944 273.642 71.2012 273.656 71.2109L274.23 71.5977L274.793 71.9727C275.148 72.2111 275.485 72.5427 275.707 72.9805C275.931 73.4246 275.994 73.8988 275.953 74.3516L275.906 74.9727L275.848 75.5938C275.828 75.8108 275.851 75.9694 275.895 76.0859L276.094 76.6133L276.293 77.1289C276.365 77.3217 276.473 77.5241 276.633 77.7266L277.008 78.1953L277.383 78.6758C277.854 79.2725 278.081 79.9848 278.039 80.75L278.016 81.3477L277.98 81.9453C277.971 82.1288 277.997 82.2786 278.051 82.4141L278.473 83.4688C278.623 83.8424 278.763 84.2244 278.895 84.6055L279.27 85.6836C279.454 86.2198 279.538 86.781 279.516 87.3477L279.469 88.4961C279.461 88.6886 279.488 88.8686 279.551 89.0469L279.75 89.5977L279.938 90.1367C280.143 90.7161 280.21 91.3198 280.137 91.9297L279.996 93.0781C279.982 93.1938 279.999 93.3104 280.055 93.4414L280.289 93.9805L280.523 94.5312C280.806 95.1981 280.859 95.9144 280.676 96.6172L280.523 97.1797L280.371 97.7539C280.3 98.0257 280.271 98.2882 280.266 98.5391L280.242 99.6641C280.236 99.982 280.247 100.305 280.277 100.625L280.324 101.188L280.383 101.75C280.407 102.012 280.457 102.286 280.547 102.57L280.734 103.145L280.91 103.719C281.208 104.657 280.95 105.545 280.395 106.227L279.961 106.754L279.668 107.094L279.832 107.445L280.102 108.043C280.352 108.6 280.503 109.189 280.512 109.801V110.375L280.523 110.949C280.534 111.708 280.273 112.392 279.832 112.965L279.059 113.973C278.956 114.106 278.932 114.188 278.93 114.23L278.859 115.355C278.827 115.866 278.734 116.372 278.566 116.855L278.379 117.383L278.191 117.922C278.032 118.382 277.827 118.826 277.57 119.246L276.961 120.23C276.888 120.35 276.851 120.467 276.844 120.594L276.82 121.168L276.785 121.742C276.762 122.2 276.704 122.656 276.609 123.102L276.492 123.664L276.375 124.215C276.281 124.659 276.151 125.093 275.988 125.516L275.789 126.043L275.578 126.559C275.398 127.025 275.166 127.472 274.875 127.883L274.535 128.352L274.207 128.82C274.194 128.839 274.168 128.873 274.172 128.984L274.195 129.605L274.23 130.238C274.254 130.827 274.172 131.407 273.973 131.961L273.773 132.5L273.586 133.027C273.358 133.659 272.969 134.192 272.461 134.609L271.98 134.996L271.582 135.324L271.594 135.898V136.543C271.598 137.025 271.476 137.527 271.16 137.973C270.851 138.408 270.433 138.681 270.023 138.852L269.367 139.133L268.711 139.402H268.676L268.547 139.848L268.371 140.387C268.228 140.829 268.047 141.255 267.832 141.664L267.562 142.168L267.305 142.66C267.034 143.174 266.663 143.627 266.215 143.996L265.77 144.359L265.324 144.734C265.193 144.842 265.106 144.962 265.043 145.098L264.797 145.613L264.562 146.129C264.356 146.572 264.099 146.986 263.801 147.371L263.449 147.816L263.109 148.262C263.043 148.347 262.975 148.475 262.934 148.684L262.816 149.305L262.688 149.938C262.56 150.593 262.276 151.202 261.809 151.707L261.422 152.129L261.035 152.539C260.779 152.816 260.527 153.096 260.273 153.371L259.898 153.781L259.512 154.203C259.184 154.56 258.821 154.882 258.422 155.164L257.953 155.492L257.473 155.832C257.282 155.968 257.125 156.126 256.992 156.301L256.652 156.746L256.312 157.203C256.094 157.493 255.87 157.784 255.656 158.082L255.328 158.551L254.988 159.02C254.648 159.495 254.222 159.887 253.723 160.191L252.738 160.801C252.62 160.873 252.521 160.965 252.445 161.094L252.152 161.598L251.848 162.102C251.479 162.724 250.94 163.187 250.277 163.461L249.727 163.684L249.164 163.918C248.948 164.008 248.774 164.12 248.637 164.246L248.227 164.621L247.816 165.008C247.382 165.407 246.87 165.702 246.316 165.898L245.754 166.098L245.262 166.262L245.027 166.848L244.781 167.445C244.448 168.252 243.803 168.853 242.918 169.074L242.332 169.215L241.734 169.367C241.715 169.372 241.703 169.377 241.699 169.379L241.688 169.391L241.348 169.895L241.02 170.387C240.594 171.017 239.984 171.455 239.25 171.652L238.676 171.805L238.09 171.957C237.767 172.044 237.461 172.154 237.176 172.273L236.648 172.496L236.18 172.684C236.173 172.696 236.177 172.719 236.168 172.742L235.91 173.387L235.664 174.031C235.411 174.677 234.999 175.267 234.387 175.684L233.449 176.316C233.129 176.534 232.804 176.751 232.477 176.961L231.996 177.266L231.527 177.57C230.891 177.979 230.17 178.118 229.465 178.074L228.785 178.027L228.223 177.98L227.965 178.32L227.59 178.801C227.206 179.297 226.725 179.695 226.148 179.961L225.633 180.207L225.117 180.441C224.838 180.57 224.566 180.712 224.309 180.875L223.348 181.484C222.828 181.814 222.255 182.013 221.648 182.082L221.051 182.152L220.453 182.211C220.172 182.243 219.92 182.312 219.691 182.398L218.637 182.797C218.333 182.912 218.031 183.04 217.746 183.184L217.254 183.43L216.75 183.676C216.446 183.828 216.146 183.995 215.848 184.168L215.367 184.449L214.875 184.742C214.68 184.856 214.482 185.001 214.289 185.199L213.867 185.645L213.434 186.078C213.022 186.502 212.539 186.845 211.992 187.074L211.477 187.285L210.961 187.508C210.431 187.729 209.871 187.834 209.297 187.848L208.688 187.871L208.09 187.883C207.764 187.89 207.454 187.923 207.164 187.977L206.602 188.082L206.051 188.188C206.038 188.199 206.02 188.223 205.992 188.258L205.172 189.289C204.726 189.86 204.133 190.308 203.379 190.484L202.816 190.613L202.266 190.742C202.057 190.791 201.859 190.871 201.668 190.988L201.176 191.293L200.684 191.586C200.086 191.953 199.416 192.113 198.727 192.078L198.117 192.055L197.52 192.02C197.494 192.018 197.478 192.018 197.473 192.02C197.473 192.02 197.454 192.022 197.426 192.043L196.945 192.418L196.477 192.781C195.931 193.201 195.288 193.455 194.59 193.496L193.441 193.566C193.161 193.583 192.889 193.624 192.633 193.695L191.555 194C191.046 194.142 190.516 194.209 189.984 194.199L188.812 194.176C188.45 194.169 188.095 194.174 187.746 194.188L187.172 194.199L186.598 194.223C186.404 194.231 186.223 194.275 186.047 194.352L185.531 194.574L185.004 194.809C184.654 194.961 184.303 195.115 183.949 195.266L182.895 195.711C182.536 195.864 182.175 196.01 181.816 196.156L181.289 196.379L180.762 196.59C180.255 196.796 179.726 196.912 179.18 196.941L178.605 196.977L178.043 197C177.784 197.014 177.528 197.066 177.281 197.141L176.742 197.305L176.191 197.469C175.654 197.63 175.099 197.683 174.539 197.645L173.391 197.574C173.062 197.552 172.737 197.537 172.418 197.551L171.855 197.586L171.281 197.609C171.167 197.615 171.036 197.637 170.883 197.727L170.367 198.043L169.84 198.348C169.357 198.629 168.838 198.827 168.293 198.934L167.742 199.039L167.191 199.156C166.888 199.216 166.582 199.289 166.277 199.391L165.738 199.578L165.188 199.754C164.416 200.011 163.64 199.923 162.949 199.613L161.754 199.074C161.503 198.962 161.302 198.93 161.145 198.922L160.57 198.887L160.008 198.863C159.941 198.861 159.849 198.881 159.715 198.957L159.188 199.262L158.648 199.566C157.907 199.99 157.07 200.057 156.27 199.766L155.684 199.555L155.262 199.391L154.84 199.707L154.301 200.094C153.943 200.351 153.511 200.544 153.012 200.586C152.508 200.628 152.04 200.507 151.641 200.305L151.055 200.012L150.715 199.836L150.375 200.105L149.836 200.516C149.127 201.045 148.226 201.262 147.305 200.926L146.73 200.715L146.168 200.504H146.098L145.535 200.727L144.984 200.949C144.06 201.312 143.156 201.093 142.441 200.586L141.867 200.188L141.387 199.836L141 199.977L140.438 200.188C139.798 200.423 139.118 200.476 138.445 200.316L137.883 200.176L137.332 200.047C137.204 200.016 137.075 200.022 136.934 200.059L136.359 200.199L135.797 200.352C135.196 200.51 134.578 200.531 133.969 200.398L133.418 200.27L132.855 200.152C132.435 200.061 132.016 199.946 131.602 199.812L130.5 199.461C130.49 199.464 130.473 199.475 130.453 199.484L129.879 199.742L129.293 200.012C128.46 200.396 127.563 200.352 126.773 199.871L126.234 199.543L125.824 199.285L125.367 199.496L124.781 199.754C124.259 199.983 123.713 200.127 123.152 200.176L122.004 200.27C121.212 200.338 120.495 200.089 119.895 199.648L119.367 199.273L118.898 198.934L118.453 199.074L117.867 199.238C117.153 199.447 116.406 199.416 115.711 199.109L115.184 198.875L114.645 198.641C114.526 198.588 114.414 198.569 114.293 198.582L113.719 198.641L113.145 198.711C112.563 198.775 111.982 198.717 111.422 198.547L110.871 198.383L110.332 198.219C110.195 198.177 110.042 198.168 109.863 198.195L109.277 198.289L108.691 198.371C107.734 198.52 106.908 198.143 106.312 197.527L105.832 197.035L105.352 196.531C105.276 196.453 105.216 196.418 105.188 196.402L105.164 196.391L104.602 196.297L104.051 196.215C103.724 196.163 103.389 196.122 103.055 196.098L102.492 196.062L101.93 196.016C101.649 195.995 101.357 196.006 101.051 196.039L100.453 196.098L99.8672 196.168C99.194 196.24 98.5309 196.124 97.9219 195.816L97.4062 195.547L96.8906 195.289C96.5243 195.104 96.1592 194.908 95.8008 194.703L95.2969 194.41L94.8516 194.152L94.8633 194.164L94.2305 194.387L93.5977 194.598C92.8162 194.863 91.9556 194.833 91.1836 194.352L90.6797 194.047L90.1875 193.73C90.0626 193.653 89.9417 193.622 89.8125 193.613L89.2266 193.578L88.6523 193.543C88.2395 193.516 87.83 193.466 87.4219 193.414L86.8477 193.344L86.2852 193.273C85.6247 193.19 85.0215 192.928 84.5039 192.523L84.0352 192.16L83.5547 191.785C83.5235 191.761 83.5034 191.752 83.4961 191.75C83.4874 191.747 83.4703 191.738 83.4375 191.738L82.2422 191.762C81.569 191.773 80.9238 191.602 80.3438 191.246L79.8516 190.953L79.3594 190.648C79.1722 190.534 78.9772 190.459 78.7734 190.414L78.2227 190.285L77.6602 190.168C77.1137 190.049 76.5961 189.837 76.125 189.535L75.6445 189.219L75.1641 188.914C74.9785 188.795 74.778 188.709 74.5664 188.656L74.0039 188.516L73.4531 188.375C73.42 188.367 73.3968 188.363 73.3945 188.363C73.3887 188.364 73.3798 188.378 73.3594 188.387L72.832 188.621L72.3164 188.855C72.1514 188.931 72.0104 189.035 71.8828 189.172L71.4844 189.594L71.0977 190.016C70.7192 190.423 70.2796 190.758 69.7852 191.012L68.7773 191.527C68.6883 191.573 68.5973 191.649 68.5078 191.785L68.1797 192.289L67.8398 192.793C67.4979 193.315 67.0527 193.746 66.5039 194.059L65.5195 194.621C65.1174 194.85 64.6947 195.047 64.2539 195.207L63.7148 195.406L63.1641 195.605C63.0233 195.657 62.9086 195.724 62.8125 195.828L62.4258 196.262L62.0391 196.684C61.7828 196.961 61.5194 197.234 61.2656 197.516L60.4922 198.383C60.1173 198.798 59.6761 199.133 59.1797 199.391L58.6758 199.66L58.1719 199.918C57.8689 200.075 57.5693 200.245 57.2812 200.422L56.3203 201.008C56.071 201.162 55.8407 201.342 55.6172 201.535L55.1836 201.898L54.75 202.273C54.2463 202.707 53.6549 202.976 53.0156 203.094L52.4062 203.199L51.8672 203.293L51.6094 203.773L51.3047 204.324C51.004 204.856 50.6005 205.313 50.0977 205.672L49.1836 206.328C48.9519 206.493 48.7342 206.682 48.5273 206.891L48.1172 207.301L47.7188 207.711C47.1618 208.275 46.4544 208.557 45.7148 208.613L45.0586 208.66L44.4141 208.707C44.2846 208.717 44.2379 208.745 44.2266 208.754L43.8047 209.129L43.3828 209.516C43.0099 209.848 42.5944 210.126 42.1523 210.359L41.6484 210.629L41.1562 210.887C40.9536 210.994 40.7605 211.132 40.5938 211.297L40.1953 211.695L39.7852 212.094C39.4727 212.402 39.1457 212.695 38.8008 212.961L38.3555 213.312L37.8984 213.652C37.6755 213.825 37.4643 214.02 37.2656 214.238L36.8789 214.672L36.4922 215.094C36.1838 215.434 35.8481 215.757 35.4961 216.043L35.0625 216.395L34.6172 216.746C34.1375 217.136 33.5844 217.403 32.9883 217.543L32.4023 217.684L31.8164 217.812C31.6333 217.856 31.5067 217.93 31.4062 218.012L30.9727 218.375L30.5273 218.727C30.1566 219.032 29.7582 219.301 29.332 219.523L28.8281 219.781L28.3242 220.051C27.9997 220.22 27.5919 220.355 27.1289 220.344C26.6412 220.331 26.1968 220.154 25.8398 219.875L25.1133 219.312C24.7905 219.059 24.2006 218.401 24.457 217.449C24.6484 216.741 25.2165 216.375 25.4414 216.242L25.9688 215.938L26.2617 215.75V214.496C26.2586 214.064 26.3434 213.59 26.5898 213.148C26.842 212.697 27.2099 212.367 27.6328 212.152L28.1953 211.871L28.6758 211.613L28.8047 211.098L28.9453 210.5C29.1795 209.502 29.9098 208.867 30.7852 208.602L31.4531 208.402L32.1094 208.203C32.2159 208.171 32.2804 208.14 32.3086 208.121L32.332 208.098L32.6719 207.641L33 207.184C33.0509 207.113 33.1129 206.997 33.1406 206.785L33.3047 205.496C33.4043 204.741 33.7447 204.042 34.3711 203.527L34.8164 203.164L35.2734 202.789C35.441 202.651 35.5678 202.492 35.6719 202.32L36.2578 201.359C36.5204 200.926 36.8419 200.529 37.207 200.176L37.6172 199.777L38.0273 199.391C38.2953 199.132 38.5593 198.867 38.8242 198.605L39.2344 198.207L39.6328 197.797C39.64 197.79 39.6831 197.762 39.7031 197.621L39.7969 196.988L39.8789 196.355L40.043 195.734C40.2619 195.146 40.6634 194.649 41.25 194.316L41.7891 194.012L42.2695 193.73L42.4102 193.18L42.5508 192.582C42.7131 191.878 43.0758 191.257 43.6523 190.789L44.0977 190.426L44.5547 190.051C44.7727 189.874 44.9624 189.682 45.1289 189.477L45.4922 189.043L45.8438 188.598C46.1922 188.168 46.6132 187.813 47.0859 187.52L47.6016 187.191L47.9531 186.957L48 186.395L48.0352 185.727L48.1641 185.047C48.2354 184.823 48.3353 184.6 48.4805 184.391C48.776 183.966 49.183 183.675 49.6055 183.5L50.2031 183.254L50.8125 183.008C50.968 182.943 51.002 182.883 51.0117 182.867L51.3047 182.387L51.6094 181.906C51.8201 181.568 52.04 181.237 52.2656 180.91L52.582 180.441L52.9102 179.984C53.1736 179.603 53.462 179.237 53.7891 178.906L54.0703 178.613L53.7305 178.18H53.1797L52.5352 178.168C51.7594 178.147 51.0213 177.857 50.4492 177.266L50.0508 176.855L49.6406 176.434C49.3953 176.18 49.1465 175.935 48.8906 175.707L48.457 175.332L48.0352 174.945C47.8714 174.8 47.6853 174.693 47.4844 174.605L46.9688 174.371L46.4414 174.148C46.1398 174.017 45.8203 173.89 45.4922 173.785L44.9414 173.609L44.3789 173.434C43.491 173.149 42.9201 172.481 42.6328 171.699L42.3984 171.055L42.2461 170.645L41.8828 170.621L41.2383 170.562C40.4204 170.487 39.6627 170.112 39.1523 169.391L38.4727 168.43C38.2224 168.076 37.9823 167.705 37.7578 167.328L37.1484 166.297C37.0761 166.176 36.9955 166.118 36.9141 166.074L35.9062 165.535C35.3974 165.262 34.9581 164.894 34.5938 164.445L34.2305 164L33.8789 163.566C33.8727 163.559 33.8664 163.55 33.8555 163.543C33.8413 163.535 33.8014 163.513 33.7266 163.496L33.1055 163.355L32.4727 163.215C31.9191 163.09 31.3946 162.89 30.9141 162.605L30.4219 162.312L29.918 162.02C29.2625 161.632 28.8106 161.044 28.5586 160.355L28.3477 159.77L28.125 159.184C28.0336 158.934 27.9278 158.742 27.8086 158.598L27.4453 158.164L27.0938 157.73C26.8233 157.404 26.5592 157.064 26.3203 156.711L25.6875 155.773C25.5176 155.523 25.3357 155.287 25.1367 155.07L24.75 154.66L24.375 154.25C24.2381 154.101 24.064 153.961 23.8477 153.84L23.332 153.547L22.8164 153.266C22.3921 153.029 21.989 152.751 21.6211 152.445L21.1875 152.082L20.7422 151.719C20.1585 151.233 19.808 150.579 19.6641 149.867L19.5352 149.258L19.418 148.637C19.3722 148.41 19.2941 148.259 19.2188 148.156L18.8906 147.711L18.5625 147.254C18.507 147.179 18.4039 147.09 18.2109 146.996L17.0625 146.434C16.4062 146.116 15.8624 145.618 15.5391 144.922L15.293 144.406L15.0586 143.879C14.9906 143.733 14.8932 143.601 14.7539 143.48L13.8633 142.707C13.2344 142.164 12.9046 141.434 12.8555 140.645L12.8203 140.012L12.7734 139.379C12.7636 139.22 12.7249 139.16 12.7031 139.133L12 138.242C11.664 137.816 11.406 137.337 11.2266 136.824L11.0391 136.297L10.8516 135.758C10.7911 135.585 10.7006 135.427 10.5703 135.277L10.1836 134.844L9.80859 134.398C9.37114 133.897 9.0853 133.307 8.97656 132.652L8.78906 131.504C8.76228 131.342 8.70954 131.203 8.625 131.082L8.28516 130.613L7.95703 130.145C7.61184 129.656 7.38583 129.104 7.27734 128.516L7.06641 127.391C7.0077 127.073 6.93553 126.763 6.84375 126.465L6.67969 125.938L6.51562 125.398C6.39739 125.015 6.28345 124.628 6.1875 124.238L6.05859 123.699L5.92969 123.148C5.91934 123.109 5.88464 123.026 5.75391 122.902L5.27344 122.457L4.80469 122.012C4.36598 121.599 4.00905 121.12 3.76172 120.57L3.52734 120.043L3.28125 119.527C3.05269 119.019 2.92486 118.477 2.88281 117.922L2.78906 116.773C2.76316 116.433 2.72277 116.097 2.67188 115.766L2.50781 114.641C2.46374 114.354 2.39194 114.066 2.29688 113.785L2.10938 113.246L1.93359 112.707C1.79262 112.29 1.67353 111.858 1.58203 111.43L1.46484 110.879L1.33594 110.316C1.21826 109.762 1.214 109.201 1.30078 108.641L1.38281 108.055L1.47656 107.48C1.54544 107.037 1.63653 106.594 1.75781 106.156L1.92188 105.582L2.07422 105.066L1.72266 104.539L1.37109 103.988C0.998747 103.401 0.786549 102.724 0.820312 101.996L0.84375 101.434L0.878906 100.859C0.895342 100.504 0.902579 100.148 0.902344 99.793V98.6562C0.902029 98.1819 0.942139 97.7049 1.03125 97.2383L1.13672 96.6875L1.24219 96.125C1.32184 95.7079 1.42992 95.2932 1.54688 94.8828L1.69922 94.3203L1.85156 93.7695C1.93793 93.4664 2.00854 93.1669 2.05078 92.8672L2.13281 92.3164L2.20312 91.7539C2.24707 91.4417 2.27762 91.1241 2.28516 90.8047L2.30859 89.6797C2.31569 89.3789 2.30055 89.0639 2.26172 88.7422L2.19141 88.1562L2.12109 87.5586C2.04187 86.8981 2.13402 86.2443 2.41406 85.6367L2.90625 84.582C3.093 84.1771 3.30387 83.7823 3.53906 83.3984L3.84375 82.8945L4.16016 82.3906C4.29063 82.1774 4.37742 81.9642 4.42969 81.7578L4.57031 81.2188L4.69922 80.6797C4.76837 80.4067 4.81761 80.1205 4.83984 79.8242L4.88672 79.25L4.92188 78.6758C4.95522 78.2257 5.02645 77.7781 5.12109 77.3398L5.23828 76.7773L5.35547 76.2266C5.48651 75.6206 5.75586 75.0672 6.14062 74.5859L6.51562 74.1289L6.87891 73.6602C7.02405 73.4781 7.13059 73.2938 7.19531 73.1094L7.38281 72.582L7.55859 72.0547C7.69679 71.6608 7.85576 71.2744 8.02734 70.8945L8.26172 70.3789L8.48438 69.875C8.60471 69.6086 8.70965 69.3234 8.78906 69.0312L9.09375 67.9297C9.27489 67.2683 9.63285 66.7015 10.1367 66.2539L10.5938 65.8555L11.0391 65.457C11.1953 65.3183 11.2938 65.1817 11.3555 65.0469L11.5898 64.543L11.8242 64.0273C11.8653 63.9351 11.9016 63.7822 11.8945 63.5352L11.8711 62.8672L11.8594 62.1992C11.8326 61.3171 12.1716 60.4871 12.9375 59.9258L13.9219 59.1992C14.2338 58.9711 14.5422 58.7398 14.8359 58.5078L15.293 58.1445L15.7148 57.8047L15.7969 57.1602L15.8555 56.5273C15.9194 55.9185 16.1031 55.336 16.418 54.8047L17.0039 53.8203C17.2518 53.4038 17.5403 53.0144 17.8711 52.6602L18.2578 52.25L18.6445 51.8281C19.0271 51.4189 19.4806 51.093 19.9805 50.832L20.5195 50.5391L21.0117 50.2812L21.1758 49.7188L21.3398 49.1211C21.5049 48.5136 21.7959 47.9507 22.2305 47.4805L22.6172 47.0703L22.9922 46.6602C23.238 46.3944 23.4901 46.1137 23.7305 45.8398L24.1055 45.418L24.4688 44.9961C24.7165 44.7138 24.9726 44.434 25.2188 44.1523L25.582 43.7188L25.957 43.2969C26.1762 43.0461 26.3878 42.785 26.5898 42.5117L26.9297 42.043L27.2695 41.5859C27.7174 40.9798 28.3367 40.5961 29.0273 40.4023L29.6484 40.2266L30.2344 40.0625L30.5039 39.582L30.7734 39.0547C31.0842 38.4538 31.551 37.9648 32.1445 37.625L32.6367 37.332L33.1406 37.0508C33.3722 36.9182 33.5813 36.7655 33.7617 36.5938L34.1602 36.1953L34.5703 35.8086C34.9225 35.473 35.3106 35.1795 35.7305 34.9297L36.2227 34.6367L36.7148 34.3555C37.0488 34.157 37.3858 33.9611 37.7227 33.7695L38.707 33.207L38.7188 33.1953C38.7293 33.1812 38.7513 33.1457 38.7773 33.0781L39.2461 31.8359C39.5545 31.0294 40.1701 30.3985 41.0625 30.1484L41.6484 29.9844L42.2227 29.8203C42.5196 29.7372 42.7926 29.6381 43.0312 29.5156L44.0391 29C44.3807 28.8244 44.7256 28.6433 45.0703 28.4727L45.5742 28.2266L46.0781 27.9688C46.3416 27.8383 46.5926 27.6927 46.8281 27.5234L47.7422 26.8672C48.0943 26.6137 48.465 26.3849 48.8438 26.1758L49.3242 25.9062L49.8164 25.6367C50.0612 25.5016 50.2966 25.3381 50.5195 25.1562L50.9648 24.793L51.3984 24.4414C51.6716 24.2183 51.9423 23.9778 52.207 23.7383L52.6289 23.3633L53.0625 22.9766C53.5174 22.5653 54.0437 22.2655 54.6328 22.0977L55.1836 21.9453L55.7461 21.7812H55.7578C55.7627 21.7775 55.7808 21.7523 55.8164 21.6992L56.1797 21.1719L56.5312 20.6445C56.8713 20.1381 57.2976 19.7028 57.8203 19.3789L58.3008 19.0859L58.7812 18.7812C59.141 18.5587 59.5147 18.3602 59.8945 18.1719L60.3984 17.9141L60.9023 17.668C61.4083 17.4171 61.9565 17.26 62.5195 17.1992L63.1172 17.1406L63.7148 17.0703C63.9903 17.0402 64.2342 16.9789 64.4531 16.8945L65.5078 16.4961C65.9255 16.3353 66.3556 16.1976 66.7969 16.0977L67.3594 15.9688L67.9102 15.8516C68.204 15.785 68.4874 15.691 68.7539 15.582L69.2695 15.3711L69.7969 15.1602C70.1805 15.0033 70.5727 14.8627 70.9688 14.7383L71.4961 14.5625L72.0352 14.3984C72.2573 14.3287 72.4727 14.2295 72.6797 14.0938L73.6406 13.4609C73.8337 13.334 74.0291 13.16 74.2266 12.9336L74.6484 12.4531L75.0586 11.9844C75.5226 11.4524 76.1308 11.0533 76.8516 10.8945L77.4023 10.7773L77.9648 10.6484C78.3765 10.558 78.7965 10.4929 79.2188 10.4375L79.793 10.3555L80.3672 10.2852C80.7183 10.239 81.061 10.1746 81.3984 10.1094L81.9609 10.0039L82.5117 9.89844C82.5667 9.88763 82.6426 9.85619 82.7578 9.74609L83.6719 8.87891C84.1892 8.38342 84.8319 8.0581 85.5703 7.97656L86.1445 7.90625L86.7188 7.84766C87.0568 7.81019 87.3916 7.75987 87.7148 7.69531L88.2656 7.57812L88.8164 7.47266C89.327 7.37074 89.8493 7.33861 90.375 7.37891L91.5703 7.47266C91.6062 7.47508 91.623 7.47426 91.6289 7.47266C91.6354 7.47087 91.6565 7.47072 91.6875 7.44922L92.1797 7.09766L92.6719 6.75781C93.0869 6.4697 93.5234 6.22732 93.9844 6.04297L95.0391 5.62109C95.6425 5.38013 96.2786 5.31573 96.9141 5.39844L97.5117 5.48047L98.1094 5.55078C98.4332 5.59291 98.749 5.6063 99.0469 5.59766L99.6094 5.58594L100.184 5.57422C100.287 5.57123 100.391 5.54401 100.512 5.46875L101.52 4.83594C102.03 4.51625 102.594 4.30292 103.195 4.22656L103.758 4.15625L104.309 4.08594C104.427 4.07084 104.567 4.02057 104.73 3.91016L105.234 3.57031L105.75 3.21875L106.324 2.92578C106.721 2.77377 107.136 2.71861 107.555 2.76172L108.176 2.90234L108.785 3.10156L109.359 3.28906L109.863 3.04297L110.391 2.76172C110.955 2.46123 111.573 2.30485 112.219 2.31641L113.367 2.33984C113.78 2.34781 114.197 2.36467 114.609 2.39844L115.172 2.44531L115.746 2.49219C116.09 2.52034 116.439 2.53727 116.777 2.53906H117.902C118.002 2.53959 118.118 2.51597 118.266 2.43359L118.805 2.14062L119.332 1.84766C119.881 1.54236 120.488 1.36003 121.125 1.34375L122.25 1.32031C122.689 1.30933 123.133 1.32175 123.574 1.36719L124.137 1.42578L124.711 1.48438C124.88 1.50153 125.044 1.49285 125.215 1.4375L125.766 1.25L126.316 1.07422C126.68 0.956249 127.043 0.832521 127.406 0.710938L127.957 0.535156L128.508 0.347656C129.19 0.119319 129.896 0.119651 130.57 0.335938L131.719 0.710938C131.976 0.793264 132.218 0.832761 132.445 0.839844L133.008 0.851562L133.57 0.875C133.827 0.882984 134.089 0.858521 134.344 0.804688L134.895 0.6875L135.457 0.570312C135.839 0.489758 136.221 0.407937 136.605 0.335938L137.73 0.125L138.316 0.078125ZM52.5703 175.156C52.5782 175.158 52.5938 175.167 52.6172 175.168L53.9062 175.191L54.5391 175.285C55.1527 175.437 55.6846 175.788 56.0859 176.316L56.4727 176.832L56.8594 177.336C57.1101 177.667 57.3696 178.147 57.3633 178.742C57.3551 179.371 57.055 179.867 56.7188 180.207L56.3203 180.617L55.9219 181.016C55.7172 181.223 55.5341 181.447 55.3711 181.684L55.0547 182.152L54.7383 182.609C54.5383 182.899 54.3393 183.2 54.1523 183.5L53.8594 183.969L53.5547 184.449C53.1661 185.072 52.6038 185.506 51.9609 185.773L51.3516 186.02L51.0117 186.16L50.9883 186.582L50.9531 187.25C50.9001 188.117 50.4964 188.928 49.6875 189.43L49.1836 189.746L48.668 190.062C48.46 190.192 48.2988 190.333 48.1758 190.484L47.8242 190.93L47.4609 191.363C47.1583 191.737 46.8185 192.077 46.4414 192.383L45.9961 192.746L45.5391 193.121C45.5169 193.139 45.4898 193.161 45.4688 193.25L45.3281 193.859L45.1875 194.457C45.0006 195.263 44.5156 195.911 43.793 196.32L43.2656 196.625L42.832 196.859L42.7617 197.41L42.668 198.043C42.5676 198.748 42.2759 199.415 41.7422 199.941L41.3438 200.34L40.9336 200.738C40.6606 201.008 40.3893 201.28 40.1133 201.547L39.7031 201.934L39.293 202.332C39.1127 202.506 38.9519 202.696 38.8242 202.906L38.5312 203.398L38.2383 203.879C37.9535 204.349 37.597 204.76 37.1719 205.109L36.7266 205.484L36.2812 205.836C36.2784 205.847 36.2843 205.871 36.2812 205.895L36.1992 206.527L36.1172 207.172C36.0336 207.812 35.8169 208.43 35.4258 208.965L35.0859 209.41L34.7578 209.867C34.3036 210.489 33.667 210.868 32.9883 211.074L32.3203 211.273L31.8164 211.414L31.7344 211.789L31.5938 212.387C31.3964 213.225 30.8638 213.878 30.1055 214.262L29.5547 214.543L29.2617 214.684V215.867L29.4961 215.691C29.9748 215.298 30.5279 215.036 31.125 214.895L31.7227 214.754L32.3086 214.625C32.4946 214.581 32.6272 214.509 32.7305 214.426L33.1641 214.062L33.6094 213.711C33.8404 213.523 34.0572 213.308 34.2656 213.078L34.6523 212.656L35.0391 212.223C35.3556 211.874 35.7014 211.558 36.0703 211.273L36.5156 210.934L36.9609 210.582C37.2087 210.391 37.4482 210.186 37.6758 209.961L38.0859 209.562L38.4844 209.164C38.8583 208.795 39.2857 208.483 39.75 208.238L40.2539 207.969L40.7578 207.711C40.9829 207.592 41.1887 207.447 41.3789 207.277L41.8008 206.891L42.2227 206.516C42.785 206.014 43.4712 205.773 44.1797 205.719L44.8359 205.672L45.4805 205.613L45.5859 205.602L45.9844 205.191L46.3828 204.793C46.7104 204.461 47.0726 204.159 47.4492 203.891L48.3633 203.234C48.4704 203.158 48.583 203.039 48.6914 202.848L48.9961 202.297L49.3008 201.758C49.7212 201.013 50.4093 200.519 51.2578 200.363L51.8672 200.258L52.4648 200.141C52.6311 200.11 52.7277 200.056 52.793 200L53.2266 199.637L53.6484 199.262C53.9939 198.964 54.3622 198.692 54.75 198.453L55.7109 197.867C56.061 197.652 56.4223 197.448 56.7891 197.258L57.293 196.988L57.7969 196.73C57.9696 196.641 58.1259 196.522 58.2656 196.367L58.6523 195.945L59.0391 195.512C59.3003 195.222 59.5603 194.931 59.8242 194.645L60.2227 194.223L60.6094 193.801C61.0343 193.34 61.5565 192.994 62.1445 192.781L62.6836 192.582L63.2344 192.383C63.5208 192.279 63.7923 192.162 64.043 192.02L65.0273 191.457C65.131 191.397 65.2321 191.305 65.332 191.152L65.6602 190.648L66 190.133C66.3538 189.594 66.8231 189.154 67.4062 188.855L68.4141 188.34C68.5912 188.249 68.7513 188.13 68.8945 187.977L69.293 187.555L69.6797 187.133C70.0747 186.708 70.5461 186.366 71.0742 186.125L71.5898 185.891L72.1172 185.656C72.7736 185.358 73.4818 185.295 74.1797 185.469L74.7305 185.598L75.293 185.738C75.8225 185.871 76.3215 186.088 76.7812 186.383L77.2617 186.699L77.7539 187.004C77.9287 187.116 78.1111 187.196 78.3047 187.238L78.8555 187.355L79.418 187.473C79.954 187.59 80.4613 187.795 80.9297 188.082L81.9141 188.691C81.9902 188.738 82.0732 188.764 82.1953 188.762L83.3906 188.738C84.1324 188.727 84.8234 188.963 85.4062 189.418L85.875 189.793L86.3555 190.168C86.4677 190.255 86.5649 190.284 86.6602 190.297L87.2344 190.367L87.7969 190.449C88.1444 190.493 88.4989 190.52 88.8516 190.543L90 190.613C90.6352 190.654 91.2314 190.853 91.7695 191.188L92.2734 191.504L92.6602 191.738L93.2695 191.539L93.9023 191.328C94.6634 191.07 95.5012 191.078 96.2695 191.516L96.7852 191.809L97.2891 192.102C97.6014 192.28 97.9199 192.444 98.2383 192.605L98.7656 192.875L99.2812 193.133C99.3597 193.172 99.4397 193.192 99.5508 193.18L100.137 193.121L100.723 193.051C101.201 192.999 101.682 192.993 102.152 193.027L102.715 193.062L103.277 193.109C103.694 193.14 104.109 193.185 104.52 193.25L105.07 193.344L105.621 193.426C106.381 193.545 107.015 193.936 107.508 194.445L107.988 194.949L108.41 195.371L108.82 195.324L109.406 195.23C110.009 195.137 110.612 195.17 111.199 195.348L111.75 195.512L112.289 195.676C112.453 195.726 112.629 195.743 112.816 195.723L113.965 195.605C114.614 195.534 115.255 195.624 115.852 195.887L116.391 196.133L116.93 196.367L116.953 196.379C116.955 196.379 116.979 196.38 117.023 196.367L118.195 196.016C118.85 195.824 119.495 195.887 120.07 196.145L120.621 196.461L121.137 196.848L121.664 197.234C121.7 197.261 121.732 197.263 121.746 197.27L122.32 197.234L122.895 197.188C123.093 197.17 123.319 197.112 123.574 197L124.746 196.484L125.379 196.297C125.804 196.219 126.231 196.246 126.645 196.379L127.254 196.648L127.793 196.977L128.18 197.223L128.613 197.023L129.199 196.754C129.719 196.514 130.281 196.406 130.852 196.473L131.414 196.602L131.977 196.777L132.527 196.953C132.85 197.057 133.177 197.152 133.5 197.223L134.051 197.34L134.613 197.469C134.747 197.497 134.883 197.497 135.035 197.457L136.16 197.152C136.772 196.991 137.406 196.982 138.023 197.129L138.574 197.258L139.137 197.398C139.209 197.416 139.286 197.414 139.395 197.375L140.52 196.953C141.209 196.699 141.884 196.766 142.477 197.023L143.039 197.34L143.613 197.738L144.082 198.066L144.445 197.938L145.008 197.715C145.724 197.435 146.481 197.429 147.199 197.691L147.762 197.902L148.125 198.031L148.582 197.703L149.133 197.293L149.73 196.953C149.946 196.863 150.182 196.803 150.434 196.777C150.69 196.751 150.937 196.764 151.172 196.812L151.828 197.047L152.414 197.34L152.754 197.504L153.094 197.27L153.621 196.895L154.195 196.566C154.794 196.313 155.462 196.278 156.129 196.52L156.715 196.73L157.23 196.918L157.699 196.648L158.227 196.344C158.805 196.014 159.453 195.846 160.137 195.875L160.711 195.898L161.273 195.922C161.866 195.948 162.441 196.1 162.984 196.344L164.18 196.883C164.224 196.902 164.251 196.904 164.262 196.906H164.25L164.238 196.918L164.789 196.73L165.328 196.543C165.751 196.402 166.185 196.288 166.617 196.203L167.719 195.992C167.909 195.955 168.113 195.884 168.328 195.758L168.855 195.453L169.371 195.137C169.914 194.819 170.516 194.637 171.152 194.609L171.727 194.586L172.289 194.562C172.72 194.544 173.154 194.544 173.59 194.574L174.176 194.621L174.75 194.656C174.953 194.67 175.141 194.641 175.324 194.586L175.875 194.422L176.414 194.27C176.891 194.126 177.382 194.038 177.879 194.012L178.453 193.977L179.016 193.941C179.226 193.93 179.43 193.892 179.625 193.812L180.152 193.602L180.68 193.379C181.023 193.239 181.368 193.092 181.711 192.945L182.766 192.5C183.114 192.351 183.464 192.204 183.809 192.055L184.336 191.832L184.852 191.598C185.369 191.373 185.917 191.245 186.48 191.223L187.055 191.211L187.629 191.188C188.038 191.172 188.452 191.168 188.871 191.176L190.043 191.199C190.295 191.204 190.531 191.166 190.746 191.105L191.824 190.801C192.291 190.67 192.778 190.595 193.266 190.566L194.414 190.496C194.484 190.492 194.556 190.473 194.648 190.402L195.117 190.039L195.598 189.676C196.199 189.213 196.914 188.981 197.672 189.02L198.27 189.055L198.879 189.09C198.99 189.095 199.056 189.066 199.113 189.031L199.605 188.738L200.098 188.434C200.561 188.149 201.057 187.935 201.586 187.812L202.137 187.684L202.699 187.555H202.711C202.724 187.546 202.765 187.515 202.816 187.449L203.215 186.934L203.625 186.406C204.083 185.82 204.711 185.381 205.5 185.234L206.062 185.129L206.613 185.023C207.07 184.939 207.543 184.894 208.02 184.883L208.617 184.871L209.227 184.859C209.453 184.854 209.64 184.809 209.801 184.742L210.316 184.52L210.844 184.309C210.987 184.248 211.137 184.149 211.289 183.992L211.711 183.559L212.133 183.113C212.503 182.732 212.912 182.403 213.363 182.141L213.855 181.859L214.336 181.578C214.687 181.374 215.054 181.185 215.414 181.004L215.906 180.746L216.41 180.5C216.787 180.311 217.172 180.135 217.57 179.984L218.098 179.785L218.637 179.586C219.109 179.408 219.603 179.293 220.113 179.234L221.309 179.094C221.493 179.072 221.63 179.024 221.742 178.953L222.223 178.648L222.691 178.344C223.066 178.105 223.458 177.897 223.863 177.711L224.895 177.242C225.002 177.193 225.113 177.114 225.223 176.973L225.586 176.492L225.961 176.012L226.453 175.52C226.986 175.113 227.633 174.951 228.293 174.992L228.973 175.039L229.652 175.074C229.755 175.081 229.818 175.07 229.852 175.062C229.876 175.057 229.891 175.055 229.898 175.051L230.379 174.746L230.859 174.43C231.165 174.233 231.475 174.035 231.773 173.832L232.23 173.516L232.699 173.199C232.708 173.193 232.78 173.141 232.863 172.93L233.121 172.285L233.367 171.652C233.649 170.933 234.163 170.29 234.961 169.953L236.016 169.508C236.431 169.333 236.869 169.183 237.316 169.062L238.465 168.758C238.48 168.754 238.495 168.748 238.5 168.746C238.503 168.743 238.515 168.724 238.523 168.711L238.863 168.219L239.203 167.715C239.638 167.072 240.263 166.647 241.008 166.461L241.594 166.309L242.039 166.191L242.25 165.699L242.496 165.102C242.808 164.346 243.383 163.748 244.195 163.461L245.32 163.062C245.517 162.993 245.671 162.901 245.789 162.793L246.199 162.418L246.609 162.031C247.022 161.652 247.496 161.356 248.016 161.141L248.578 160.918L249.129 160.684C249.206 160.652 249.239 160.618 249.27 160.566L249.562 160.062L249.867 159.559C250.19 159.015 250.627 158.565 251.168 158.234L251.66 157.941L252.164 157.637C252.325 157.539 252.448 157.417 252.551 157.273L252.879 156.805L253.219 156.348C253.447 156.029 253.676 155.709 253.91 155.398L254.262 154.941L254.602 154.484C254.923 154.06 255.303 153.692 255.738 153.383L256.219 153.043L256.688 152.715C256.916 152.553 257.117 152.371 257.297 152.176L257.684 151.754L258.07 151.344C258.326 151.066 258.585 150.78 258.844 150.5L259.23 150.09L259.617 149.668C259.664 149.617 259.713 149.531 259.746 149.363L259.863 148.742L259.992 148.121C260.111 147.506 260.351 146.926 260.742 146.422L261.082 145.977L261.434 145.531C261.591 145.328 261.72 145.104 261.832 144.863L262.078 144.348L262.312 143.832C262.569 143.281 262.946 142.8 263.414 142.414L263.859 142.051L264.316 141.676C264.465 141.553 264.566 141.415 264.645 141.266L264.914 140.773L265.172 140.27C265.306 140.014 265.42 139.744 265.512 139.461L265.688 138.922L265.863 138.371C266.148 137.494 266.817 136.943 267.551 136.637L268.207 136.355L268.594 136.191V135.922L268.582 135.289C268.573 134.428 268.915 133.637 269.602 133.074L270.082 132.676L270.551 132.289C270.676 132.186 270.733 132.098 270.762 132.02L270.961 131.48L271.148 130.941C271.204 130.785 271.24 130.594 271.23 130.355L271.207 129.734L271.172 129.113C271.142 128.396 271.328 127.693 271.758 127.086L272.086 126.617L272.426 126.148C272.577 125.934 272.7 125.71 272.789 125.48L272.988 124.965L273.188 124.438C273.293 124.165 273.372 123.882 273.434 123.594L273.551 123.031L273.668 122.48C273.729 122.191 273.77 121.894 273.785 121.59L273.82 121.016L273.844 120.441C273.877 119.809 274.066 119.211 274.395 118.672L274.699 118.18L275.004 117.676C275.152 117.434 275.268 117.188 275.355 116.938L275.543 116.41L275.73 115.871C275.809 115.644 275.856 115.41 275.871 115.168L275.941 114.043C275.987 113.332 276.263 112.687 276.68 112.145L277.453 111.137C277.532 111.035 277.524 110.991 277.523 110.984V110.41L277.512 109.836C277.509 109.686 277.473 109.501 277.371 109.273L276.832 108.078C276.644 107.659 276.547 107.18 276.621 106.672C276.696 106.167 276.927 105.738 277.207 105.395L277.641 104.867L277.98 104.422L277.875 104.059L277.688 103.484C277.536 103.007 277.44 102.519 277.395 102.031L277.336 101.469L277.289 100.906C277.248 100.474 277.234 100.037 277.242 99.6055L277.266 98.4805C277.275 97.9844 277.338 97.4908 277.465 97.0039L277.77 95.8555C277.784 95.7985 277.783 95.764 277.758 95.7031L277.523 95.1523L277.289 94.6133C277.036 94.016 276.943 93.3749 277.02 92.7266L277.16 91.5781C277.178 91.4254 277.162 91.2838 277.113 91.1445L276.914 90.5938L276.727 90.0547C276.535 89.5142 276.447 88.9521 276.469 88.3789L276.516 87.2305C276.523 87.0291 276.496 86.8361 276.434 86.6562L276.246 86.1172L276.059 85.5898C275.944 85.2565 275.827 84.9205 275.695 84.5938L275.484 84.0664L275.262 83.5391C275.035 82.9747 274.947 82.3737 274.98 81.7695L275.016 81.1836L275.051 80.5859V80.5625C275.049 80.559 275.037 80.5521 275.027 80.5391L274.652 80.0586L274.277 79.5898C273.938 79.1614 273.67 78.6905 273.48 78.1836L273.082 77.1289C272.866 76.5471 272.805 75.9349 272.859 75.3242L272.918 74.7031L272.941 74.3398L271.992 73.707C271.348 73.2756 270.837 72.64 270.68 71.7969L270.469 70.6719C270.384 70.2198 270.334 69.754 270.316 69.2773L270.293 68.6562L270.281 68.1172L269.848 67.7891L269.367 67.4023C268.846 66.9906 268.441 66.4598 268.207 65.8203L268.008 65.2812L267.82 64.7539C267.719 64.4765 267.589 64.2105 267.445 63.957L267.164 63.4648L266.895 62.9727C266.683 62.6008 266.491 62.2186 266.32 61.8242L266.086 61.2969L265.863 60.7812C265.7 60.4042 265.548 60.0158 265.406 59.6211L265.008 58.5195C264.923 58.2838 264.814 58.0741 264.68 57.8867L264.34 57.418L264.012 56.9609C263.865 56.758 263.689 56.5725 263.484 56.3984L263.039 56.0117L262.594 55.6367C262.315 55.4006 262.027 55.1675 261.738 54.9453L260.824 54.2422C260.503 53.9949 260.182 53.7464 259.875 53.4922L259.441 53.1289L258.996 52.7656C258.526 52.376 258.16 51.8898 257.906 51.3359L257.672 50.8086L257.426 50.2812C257.318 50.0463 257.189 49.8391 257.039 49.6602L256.676 49.2266L256.324 48.8047C255.966 48.3779 255.69 47.8882 255.492 47.3633L255.27 46.7891L255.059 46.2266C255.052 46.2091 255.049 46.1946 255.047 46.1914H255.035L254.508 45.9219L253.969 45.6523C253.445 45.3865 252.988 45.0254 252.609 44.5742L251.883 43.707C251.82 43.6314 251.724 43.5559 251.566 43.4961L250.992 43.2852L250.418 43.0625C249.679 42.7825 249.105 42.2577 248.766 41.5391L248.508 40.9883L248.25 40.4492C248.219 40.3828 248.201 40.3599 248.168 40.3438L247.641 40.0859L247.113 39.8398C246.485 39.5327 245.99 39.0495 245.648 38.4453L245.062 37.4141C245.055 37.4015 245.042 37.3943 245.039 37.3906V37.3789C245.035 37.3768 245.021 37.3731 245.004 37.3672L243.879 36.9688C243.227 36.7385 242.674 36.3359 242.262 35.7734L241.91 35.3047L241.57 34.8242C241.371 34.5523 241.158 34.294 240.938 34.0508L240.164 33.207C239.941 32.9605 239.706 32.7266 239.461 32.5039L238.617 31.7305C238.483 31.6084 238.322 31.5164 238.137 31.4492L237.598 31.25L237.047 31.0508C236.737 30.9385 236.41 30.8376 236.074 30.7578L235.488 30.6289L234.902 30.4883C234.211 30.3233 233.609 29.958 233.145 29.4102L232.77 28.9648L232.383 28.5078C232.3 28.411 232.215 28.3575 232.113 28.3203L231.562 28.1211L231.023 27.9336C230.573 27.7726 230.142 27.5689 229.734 27.3242L228.773 26.7383C228.458 26.549 228.14 26.3591 227.824 26.1758L227.344 25.8945L226.852 25.625C226.347 25.3317 225.918 24.9383 225.562 24.4766L225.188 23.9844L224.824 23.5039C224.749 23.4057 224.684 23.3708 224.625 23.3516L223.523 23C223.284 22.9226 223.025 22.8678 222.738 22.8477L222.129 22.8008L221.52 22.7656C220.775 22.7142 220.096 22.4155 219.551 21.8867L218.707 21.0664C218.416 20.7847 218.116 20.5047 217.828 20.2109L217.418 19.7773L216.996 19.3555C216.88 19.2371 216.769 19.1692 216.656 19.1328L216.105 18.957L215.566 18.793C215.287 18.7047 214.995 18.6383 214.688 18.5938L214.102 18.5117L213.527 18.418C212.964 18.3367 212.429 18.1584 211.934 17.8789L211.441 17.6094L210.949 17.3281C210.697 17.1858 210.434 17.0615 210.164 16.9648L209.625 16.7773L209.098 16.5898C208.881 16.5128 208.644 16.4677 208.383 16.4492L207.797 16.4023L207.199 16.3555C206.543 16.3091 205.925 16.1035 205.383 15.7227L204.914 15.3945L204.445 15.0547C204.026 14.7601 203.637 14.4085 203.285 14.0117L202.863 13.543L202.43 13.0625C202.295 12.9114 202.186 12.8457 202.102 12.8164L201.574 12.6289L201.035 12.4414C200.906 12.3968 200.74 12.3831 200.531 12.4062L199.922 12.4648L199.301 12.5352C198.635 12.6082 197.973 12.5098 197.355 12.207L196.84 11.9609L196.336 11.7148C196.175 11.6358 196.001 11.5879 195.809 11.5742L195.223 11.5273L194.648 11.4922C194.152 11.4584 193.666 11.3674 193.195 11.2227L192.656 11.0586L192.129 10.8945C191.749 10.7777 191.368 10.6564 190.992 10.5195L190.465 10.3203L189.926 10.1328C189.752 10.0696 189.563 10.0355 189.352 10.0391H188.766L188.191 10.0508C187.624 10.0604 187.06 9.97763 186.527 9.78125L186 9.58203L185.473 9.39453C184.924 9.19174 184.435 8.87103 183.996 8.48047L183.516 8.05859L183.059 7.63672L182.543 7.70703L181.945 7.77734C181.331 7.84818 180.715 7.78086 180.129 7.56641L179.602 7.37891L179.074 7.17969C178.714 7.04794 178.346 6.91795 177.984 6.78125L177.445 6.57031L176.918 6.37109C176.76 6.31161 176.594 6.29036 176.414 6.30078L175.84 6.33594L175.254 6.37109C174.904 6.39152 174.551 6.41979 174.199 6.46484L173.613 6.53516L173.039 6.61719C172.367 6.70324 171.706 6.59141 171.094 6.30078L170.566 6.05469L170.039 5.79688C169.69 5.63124 169.336 5.46875 168.984 5.30469L168.445 5.05859L167.918 4.8125C167.818 4.76565 167.724 4.7527 167.625 4.76562L167.051 4.83594L166.477 4.91797C166.066 4.97146 165.655 5.00534 165.246 5.03516L164.672 5.08203L164.098 5.11719C163.619 5.15202 163.141 5.14302 162.668 5.08203L162.105 5.01172L161.555 4.94141C161.213 4.89714 160.866 4.86022 160.523 4.83594L159.961 4.78906L159.398 4.75391C158.984 4.7245 158.568 4.67804 158.156 4.61328L157.605 4.53125L157.043 4.4375C156.601 4.36787 156.164 4.26591 155.73 4.13281L155.18 3.96875L154.629 3.79297C154.529 3.76238 154.432 3.76264 154.312 3.79297L153.738 3.93359L153.176 4.07422C152.546 4.2346 151.894 4.23847 151.266 4.0625L150.715 3.91016L150.164 3.74609C149.987 3.69668 149.812 3.68822 149.637 3.71094L149.062 3.78125L148.5 3.86328C148.05 3.92191 147.601 3.94312 147.152 3.93359L146.027 3.91016C145.525 3.8991 145.028 3.8246 144.539 3.6875L143.977 3.52344L143.414 3.37109C143.219 3.31645 143.035 3.29394 142.852 3.3125L142.289 3.37109L142.148 3.38281C142 3.65873 141.79 3.93736 141.434 4.09766C140.989 4.29623 140.583 4.24001 140.402 4.20312C140.032 4.12689 139.696 3.94215 139.488 3.81641L138.926 3.46484L138.363 3.125C138.298 3.08526 138.258 3.07819 138.258 3.07812L137.719 3.18359L137.156 3.28906C136.796 3.35658 136.436 3.42454 136.078 3.5L135.516 3.61719L134.965 3.73438C134.477 3.83733 133.974 3.8905 133.477 3.875L132.914 3.85156L132.352 3.83984C131.827 3.82347 131.311 3.72082 130.805 3.55859L130.23 3.38281L129.656 3.19531C129.565 3.16617 129.51 3.1776 129.457 3.19531L128.906 3.37109L128.355 3.55859C127.985 3.68264 127.613 3.80148 127.242 3.92188L126.691 4.10938L126.141 4.28516C125.578 4.46776 124.995 4.53265 124.406 4.47266L123.258 4.35547C122.942 4.32304 122.629 4.31243 122.32 4.32031L121.195 4.34375C121.083 4.34674 120.957 4.38373 120.797 4.47266L120.258 4.76562L119.73 5.05859C119.168 5.37129 118.545 5.54218 117.891 5.53906H116.754C116.339 5.5368 115.918 5.51471 115.5 5.48047L114.938 5.43359L114.363 5.38672C114.013 5.35803 113.659 5.3466 113.309 5.33984L112.734 5.32812L112.172 5.31641C112.057 5.31418 111.931 5.33856 111.797 5.41016L111.281 5.69141L110.754 5.96094C110.015 6.35405 109.207 6.4 108.445 6.14844L107.836 5.94922L107.32 5.77344L106.922 6.05469L106.418 6.39453C105.902 6.74383 105.321 6.98217 104.695 7.0625L103.57 7.20312C103.425 7.22164 103.276 7.2768 103.113 7.37891L102.105 8.01172C101.554 8.35709 100.935 8.54246 100.277 8.5625L99.7031 8.58594L99.1289 8.59766C98.6647 8.61112 98.1952 8.58879 97.7227 8.52734L97.125 8.44531L96.5273 8.375C96.3665 8.35406 96.2502 8.37101 96.1523 8.41016L95.0977 8.83203C94.8598 8.9273 94.621 9.05359 94.3828 9.21875L93.8906 9.57031L93.3984 9.91016C92.7874 10.3348 92.0784 10.5296 91.3359 10.4727L90.1406 10.3789C89.8725 10.3586 89.6274 10.3691 89.4023 10.4141L88.8516 10.5312L88.3008 10.6367C87.89 10.7188 87.4698 10.7774 87.0469 10.8242L86.4727 10.8945L85.8984 10.9531C85.874 10.9558 85.8314 10.965 85.7461 11.0469L85.2891 11.4805L84.8438 11.9141C84.3591 12.3792 83.7672 12.7067 83.0859 12.8398L82.5234 12.957L81.9727 13.0625C81.5726 13.1398 81.1655 13.2077 80.7539 13.2617L79.6055 13.4023C79.2675 13.4467 78.9355 13.5065 78.6094 13.5781L78.0469 13.707L77.4961 13.8242C77.475 13.8289 77.4137 13.8461 77.3203 13.9531L76.9102 14.4336L76.4883 14.9141C76.13 15.3244 75.7261 15.6771 75.2812 15.9688L74.3203 16.6016C73.889 16.8841 73.4273 17.1037 72.9375 17.2578L72.3984 17.4336L71.8594 17.5977C71.545 17.6965 71.2378 17.8132 70.9336 17.9375L70.4062 18.1484L69.8906 18.3594C69.4674 18.5324 69.0291 18.6673 68.5781 18.7695L67.4531 19.0273C67.1516 19.0959 66.8644 19.1897 66.5859 19.2969L65.5312 19.6953C65.0523 19.8798 64.5496 20.0026 64.0312 20.0586L63.4336 20.1172L62.8359 20.1875C62.6046 20.2129 62.4079 20.2675 62.2383 20.3516L61.7344 20.5977L61.2305 20.8555C60.9345 21.0022 60.6429 21.163 60.3633 21.3359L59.8828 21.6289L59.4023 21.9336C59.2867 22.0054 59.1605 22.1221 59.0273 22.3203L58.6641 22.8477L58.3125 23.375C57.9005 23.9887 57.313 24.4507 56.5664 24.6641L56.0156 24.8281L55.4531 24.9805C55.3027 25.0234 55.1778 25.1024 55.0664 25.2031L54.6445 25.5781L54.2227 25.9648C53.9209 26.2379 53.6094 26.5064 53.2969 26.7617L52.8633 27.1133L52.418 27.4766C52.0566 27.7716 51.6755 28.0376 51.2695 28.2617L50.2852 28.8008C50.0133 28.9511 49.7539 29.122 49.5 29.3047L48.5859 29.9609C48.2159 30.2273 47.824 30.461 47.4141 30.6641L46.8984 30.9102L46.3945 31.168C46.0656 31.3309 45.7363 31.4926 45.4102 31.6602L44.4023 32.1758C43.9715 32.3972 43.51 32.5809 43.0312 32.7148L42.457 32.8789L42.0117 32.9961L41.8125 33.5234L41.5781 34.1445C41.3191 34.8231 40.8724 35.4218 40.1953 35.8086L39.6914 36.0898L39.1992 36.3711C38.88 36.5527 38.5666 36.7454 38.25 36.9336L37.7578 37.2148L37.2656 37.5078C37.0356 37.6446 36.8324 37.8092 36.6445 37.9883L35.8242 38.7617C35.4644 39.1042 35.0634 39.4036 34.6289 39.6523L34.1367 39.9336L33.6328 40.2266C33.5589 40.2689 33.4997 40.322 33.4453 40.4258L33.1641 40.9648L32.8945 41.4922C32.5061 42.2421 31.8549 42.7271 31.0781 42.9453L29.8359 43.2969C29.7187 43.3302 29.69 43.3578 29.6836 43.3672L29.3438 43.8359L29.0039 44.293C28.7535 44.6317 28.4931 44.9635 28.2188 45.2773L27.8438 45.6992L27.4805 46.1211C27.2324 46.4049 26.98 46.6922 26.7305 46.9766L25.9805 47.8203C25.723 48.1137 25.459 48.4024 25.1953 48.6875L24.8203 49.1094L24.4336 49.5195C24.3599 49.5998 24.2855 49.7179 24.2344 49.9062L24.0703 50.5039L23.918 51.1016C23.7015 51.8984 23.1905 52.5328 22.4531 52.918L21.9141 53.1992L21.3633 53.4922C21.1415 53.6085 20.9687 53.7368 20.8359 53.8789L20.4492 54.2891L20.0625 54.7109C19.8784 54.9082 19.7202 55.1233 19.582 55.3555L19.2891 55.8477L18.9961 56.3281C18.9263 56.4455 18.868 56.6111 18.8438 56.8438L18.7734 57.4766L18.7148 58.1094C18.6326 58.8997 18.2776 59.6209 17.625 60.1367L16.6875 60.8633C16.3634 61.1193 16.033 61.3753 15.6914 61.625L15.1992 61.9883L14.8477 62.2344L14.8711 62.7734L14.8945 63.4414C14.9135 64.0701 14.8099 64.6978 14.543 65.2812L14.3086 65.7852L14.0859 66.3008C13.8382 66.8411 13.473 67.3025 13.0312 67.6953L12.5859 68.1055L12.1289 68.5039C12.0374 68.5862 12.0072 68.6571 11.9883 68.7266L11.6836 69.8281C11.5639 70.2676 11.4121 70.694 11.2266 71.1055L10.9922 71.6211L10.7578 72.125C10.622 72.4256 10.504 72.7387 10.3945 73.0508L10.0195 74.1055C9.83708 74.6255 9.56782 75.103 9.22266 75.5352L8.85938 76.0039L8.48438 76.4609C8.37707 76.5952 8.31427 76.7247 8.28516 76.8594L8.16797 77.4102L8.05078 77.9727C7.9858 78.2736 7.94509 78.5851 7.92188 78.8984L7.875 79.4727L7.82812 80.0352C7.79353 80.502 7.71899 80.9698 7.60547 81.418L7.47656 81.957L7.33594 82.4961C7.20528 83.012 6.99503 83.5037 6.71484 83.9609L6.41016 84.4648L6.09375 84.9688C5.91993 85.2528 5.76112 85.5408 5.625 85.8359L5.39062 86.3633L5.14453 86.8906C5.10102 86.985 5.08301 87.0863 5.09766 87.207L5.23828 88.3789C5.29392 88.8383 5.31926 89.2979 5.30859 89.75L5.28516 90.875C5.2749 91.3099 5.24004 91.7472 5.17969 92.1758L5.09766 92.7266L5.01562 93.2891C4.95391 93.7257 4.8683 94.1602 4.74609 94.5898L4.58203 95.1523L4.42969 95.7031C4.33679 96.029 4.25824 96.358 4.19531 96.6875L4.08984 97.25L3.98438 97.8008C3.9307 98.0818 3.90216 98.372 3.90234 98.6562V99.793C3.90259 100.195 3.88584 100.598 3.86719 101L3.84375 101.574L3.82031 102.137C3.81898 102.165 3.82331 102.24 3.91406 102.383L4.25391 102.934L4.60547 103.473C5.04316 104.161 5.19965 104.973 4.96875 105.805L4.81641 106.379L4.65234 106.953C4.56143 107.28 4.49225 107.61 4.44141 107.938L4.34766 108.523L4.26562 109.098C4.23282 109.309 4.23723 109.507 4.27734 109.695L4.39453 110.246L4.51172 110.809C4.57888 111.123 4.66549 111.439 4.76953 111.746L4.95703 112.285L5.13281 112.824C5.28276 113.268 5.40184 113.724 5.47266 114.184L5.63672 115.309C5.69979 115.719 5.7574 116.132 5.78906 116.551L5.82422 117.125L5.87109 117.699C5.88706 117.907 5.93797 118.107 6.02344 118.297L6.25781 118.812L6.49219 119.34C6.55862 119.488 6.66765 119.655 6.85547 119.832L7.33594 120.277L7.80469 120.711C8.29505 121.172 8.66692 121.75 8.83594 122.434L8.97656 122.984L9.10547 123.523C9.18755 123.857 9.27388 124.191 9.375 124.52L9.53906 125.047L9.71484 125.586C9.84171 125.998 9.94027 126.422 10.0195 126.852L10.2305 127.977C10.2601 128.136 10.3132 128.278 10.4062 128.41L10.7461 128.879L11.0742 129.348C11.4265 129.847 11.6545 130.41 11.7539 131.012L11.9414 132.16C11.9596 132.27 12.0011 132.35 12.0703 132.43L12.4453 132.863L12.832 133.297C13.2092 133.728 13.4979 134.221 13.6875 134.762L14.0625 135.84C14.132 136.037 14.2275 136.215 14.3555 136.379L15.0586 137.27C15.5048 137.835 15.7306 138.502 15.7734 139.191L15.8086 139.824L15.8555 140.457V140.469L16.2656 140.832L16.7109 141.207C17.1643 141.599 17.5247 142.08 17.7773 142.625L18.0234 143.141L18.2578 143.656L18.2695 143.68C18.2778 143.688 18.3048 143.71 18.3633 143.738L18.9375 144.02L19.5117 144.289C20.0832 144.565 20.5919 144.96 20.9766 145.484L21.3047 145.93L21.6328 146.387C21.9973 146.883 22.2385 147.442 22.3594 148.039L22.4766 148.66L22.6055 149.281C22.6185 149.344 22.6351 149.377 22.6406 149.387C22.6447 149.393 22.6543 149.402 22.6641 149.41L23.0977 149.773L23.543 150.137C23.7624 150.319 24.0024 150.491 24.2695 150.641L24.7969 150.934L25.3125 151.215C25.7868 151.479 26.2125 151.815 26.5781 152.211L26.9648 152.621L27.3398 153.031C27.6416 153.359 27.9197 153.714 28.1719 154.086L28.4883 154.566L28.8047 155.035C28.9898 155.309 29.1938 155.568 29.4023 155.82L29.7539 156.254L30.1172 156.688C30.4771 157.122 30.7535 157.618 30.9492 158.152L31.1602 158.738L31.3828 159.324C31.403 159.379 31.412 159.41 31.418 159.418C31.4221 159.423 31.4272 159.433 31.4414 159.441L31.9453 159.734L32.4375 160.027C32.6198 160.135 32.8496 160.222 33.1289 160.285L33.7617 160.426L34.3828 160.566C35.0836 160.724 35.7324 161.079 36.2109 161.668L36.5625 162.113L36.9258 162.559C37.0372 162.695 37.1672 162.802 37.3242 162.887L38.332 163.426C38.919 163.741 39.3901 164.198 39.7266 164.762L40.3359 165.793C40.5212 166.104 40.7172 166.406 40.9219 166.695L41.2617 167.176L41.543 167.574L42.1641 167.633L42.8203 167.691C43.2791 167.734 43.7473 167.896 44.1562 168.219C44.3581 168.379 44.5264 168.563 44.6602 168.758L44.9766 169.379L45.2109 170.023L45.4219 170.609L45.8555 170.75L46.418 170.938C46.836 171.072 47.2424 171.223 47.6367 171.395L48.1641 171.617L48.6797 171.852C49.1751 172.067 49.6361 172.347 50.0391 172.707L50.4609 173.094L50.8828 173.469C51.1946 173.747 51.5016 174.042 51.7969 174.348L52.207 174.77L52.5703 175.156Z" fill="black"/>
</svg>
